{"_v":2,"glyphs":{"0":{"ha":454,"x_min":36,"x_max":417,"o":"m 226 -11 l 226 -11 q 165 -11 123 26 q 80 62 58 143 q 36 223 36 357 l 36 357 q 36 481 56 563 q 75 644 117 685 q 159 725 226 725 l 226 725 q 291 725 333 684 q 375 643 396 561 q 417 478 417 356 l 417 356 q 417 274 408 207 q 399 140 378 91 q 356 42 319 16 q 282 -11 226 -11 z m 226 93 l 226 93 q 245 93 259 107 q 273 121 283 152 q 292 183 297 234 q 301 284 301 356 l 301 356 q 301 429 297 480 q 293 531 284 562 q 274 593 260 607 q 245 621 226 621 l 226 621 q 208 621 194 607 q 180 592 171 561 q 162 530 157 480 q 152 429 152 357 l 152 357 q 152 286 157 236 q 161 185 170 154 q 178 123 192 108 q 206 93 226 93 z"},"1":{"ha":454,"x_min":52,"x_max":331,"o":"m 331 714 l 331 0 l 216 0 l 216 442 q 216 466 218 502 q 220 538 220 572 l 220 572 q 218 567 205 553 q 192 538 178 525 l 178 525 l 117 464 l 52 527 l 237 714 l 331 714 z"},"2":{"ha":454,"x_min":31,"x_max":417,"o":"m 417 0 l 31 0 l 31 82 l 174 282 q 219 342 244 384 q 268 425 278 459 q 287 493 287 531 l 287 531 q 287 560 278 580 q 268 599 251 609 q 234 619 210 619 l 210 619 q 179 619 149 608 q 118 596 88 574 l 88 574 l 35 660 q 59 676 86 691 q 113 705 146 715 q 178 724 217 724 l 217 724 q 273 724 315 700 q 357 676 380 635 q 403 593 403 539 l 403 539 q 403 487 389 442 q 374 396 344 348 q 313 300 266 239 l 266 239 l 169 109 l 169 104 l 417 104 l 417 0 z"},"3":{"ha":454,"x_min":31,"x_max":411,"o":"m 194 -10 l 194 -10 q 148 -10 107 -4 q 66 2 33 16 l 33 16 l 33 123 q 70 108 105 100 q 139 91 178 91 l 178 91 q 239 91 265 123 q 290 155 290 210 l 290 210 q 290 246 276 270 q 262 293 231 306 q 200 318 150 318 l 150 318 l 111 318 l 111 418 l 154 418 q 201 418 229 432 q 257 445 270 471 q 283 496 283 529 l 283 529 q 283 573 263 597 q 243 621 197 621 l 197 621 q 163 621 136 609 q 108 596 87 582 l 87 582 l 31 668 q 73 695 114 710 q 155 724 210 724 l 210 724 q 270 724 312 704 q 354 683 376 645 q 397 607 397 554 l 397 554 q 397 512 382 477 q 366 441 339 416 q 311 390 271 375 l 271 375 l 271 372 q 340 360 376 315 q 411 270 411 200 l 411 200 q 411 139 388 92 q 365 44 317 17 q 269 -10 194 -10 z"},"4":{"ha":454,"x_min":16,"x_max":439,"o":"m 368 0 l 254 0 l 254 149 l 16 149 l 16 237 l 256 717 l 368 717 l 368 246 l 439 246 l 439 149 l 368 149 l 368 0 z m 221 484 l 111 246 l 254 246 l 254 454 q 254 471 255 497 q 256 523 257 544 q 258 565 258 567 l 258 567 l 255 567 q 247 544 239 523 q 230 501 221 484 l 221 484 z"},"5":{"ha":454,"x_min":45,"x_max":411,"o":"m 186 -11 l 186 -11 q 148 -11 110 -3 q 71 5 45 16 l 45 16 l 45 126 q 71 111 105 102 q 139 93 180 93 l 180 93 q 218 93 244 110 q 269 127 282 158 q 294 189 294 230 l 294 230 q 294 287 267 318 q 239 349 183 349 l 183 349 q 161 349 136 345 q 111 340 93 333 l 93 333 l 51 371 l 71 714 l 370 714 l 370 608 l 172 608 l 160 444 q 175 446 191 449 q 207 451 226 451 l 226 451 q 286 451 327 424 q 368 396 390 348 q 411 300 411 238 l 411 238 q 411 164 387 108 q 363 52 313 21 q 263 -11 186 -11 z"},"6":{"ha":454,"x_min":39,"x_max":422,"o":"m 236 -11 l 236 -11 q 192 -11 157 9 q 121 28 95 67 q 68 106 54 165 q 39 224 39 304 l 39 304 q 39 372 46 434 q 53 496 71 549 q 88 602 118 641 q 148 680 193 702 q 238 723 301 723 l 301 723 q 320 723 344 721 q 368 719 385 715 l 385 715 l 385 611 q 370 616 352 619 q 333 622 315 622 l 315 622 q 254 622 218 594 q 182 566 165 512 q 148 458 145 380 l 145 380 l 149 380 q 160 405 177 423 q 193 441 216 451 q 238 461 266 461 l 266 461 q 316 461 351 432 q 386 403 404 352 q 422 300 422 233 l 422 233 q 422 162 401 107 q 379 51 338 20 q 296 -11 236 -11 z m 233 92 l 233 92 q 266 92 287 125 q 308 157 308 231 l 308 231 q 308 294 290 327 q 271 360 234 360 l 234 360 q 209 360 191 345 q 172 330 163 305 q 154 280 154 254 l 154 254 q 154 226 159 198 q 163 169 172 145 q 181 121 196 107 q 211 92 233 92 z"},"7":{"ha":454,"x_min":26,"x_max":423,"o":"m 212 0 l 92 0 l 306 608 l 26 608 l 26 713 l 423 713 l 423 631 l 212 0 z"},"8":{"ha":454,"x_min":31,"x_max":424,"o":"m 228 -10 l 228 -10 q 166 -10 122 13 q 78 36 55 79 q 31 121 31 178 l 31 178 q 31 221 44 257 q 57 292 83 321 q 108 349 145 373 l 145 373 q 114 398 93 426 q 71 454 60 486 q 49 517 49 554 l 49 554 q 49 607 72 645 q 95 682 135 703 q 175 724 227 724 l 227 724 q 282 724 322 704 q 362 683 384 646 q 406 608 406 554 l 406 554 q 406 515 394 482 q 382 449 359 422 q 335 395 300 375 l 300 375 q 339 349 367 320 q 394 291 409 257 q 424 222 424 182 l 424 182 q 424 123 399 81 q 373 38 329 14 q 285 -10 228 -10 z m 226 84 l 226 84 q 272 84 293 112 q 314 139 314 184 l 314 184 q 314 208 303 230 q 292 252 275 271 q 257 290 235 308 l 235 308 l 222 318 q 195 300 177 280 q 158 259 149 236 q 139 212 139 182 l 139 182 q 139 139 162 112 q 184 84 226 84 z m 224 432 l 224 432 q 247 448 263 465 q 279 481 288 502 q 296 522 296 549 l 296 549 q 296 588 279 610 q 261 631 228 631 l 228 631 q 198 631 178 610 q 158 588 158 548 l 158 548 q 158 524 166 503 q 174 481 190 464 q 205 447 224 432 z"},"9":{"ha":454,"x_min":33,"x_max":416,"o":"m 152 -11 l 152 -11 q 133 -11 108 -8 q 83 -6 67 -2 l 67 -2 l 67 102 q 83 97 102 94 q 120 91 139 91 l 139 91 q 187 91 220 110 q 252 129 271 163 q 289 196 298 240 q 307 284 308 333 l 308 333 l 303 333 q 292 310 277 292 q 261 273 240 263 q 218 252 187 252 l 187 252 q 138 252 104 282 q 69 311 51 362 q 33 413 33 480 l 33 480 q 33 552 54 607 q 75 661 118 692 q 160 723 221 723 l 221 723 q 264 723 300 705 q 335 686 361 648 q 387 609 402 552 q 416 495 416 419 l 416 419 q 416 347 408 283 q 400 218 382 165 q 363 112 333 72 q 302 32 258 11 q 213 -11 152 -11 z m 220 352 l 220 352 q 248 352 266 370 q 283 388 292 413 q 301 438 301 463 l 301 463 q 301 483 298 510 q 295 536 287 562 q 278 587 263 604 q 247 620 223 620 l 223 620 q 189 620 168 588 q 147 555 147 480 l 147 480 q 147 416 166 384 q 185 352 220 352 z"},"\r":{"ha":221,"x_min":0,"x_max":0,"o":""}," ":{"ha":221,"x_min":0,"x_max":0,"o":""},"ഀ":{"ha":0,"x_min":-411,"x_max":-145,"o":"m -411 716 l -411 716 q -411 784 -375 824 q -340 864 -279 864 l -279 864 q -217 864 -181 824 q -145 784 -145 716 l -145 716 q -145 648 -180 608 q -216 568 -279 568 l -279 568 q -341 568 -376 608 q -411 647 -411 716 z m -329 716 l -329 716 q -329 685 -317 664 q -305 642 -279 642 l -279 642 q -252 642 -239 664 q -227 685 -227 717 l -227 717 q -227 749 -240 770 q -253 790 -279 790 l -279 790 q -305 790 -317 770 q -329 749 -329 716 z"},"ഁ":{"ha":0,"x_min":-432,"x_max":-125,"o":"m -278 644 l -278 644 q -349 644 -390 686 q -432 728 -432 808 l -432 808 q -432 824 -430 838 q -428 852 -425 864 l -425 864 l -349 854 q -351 844 -352 832 q -354 820 -354 810 l -354 810 q -354 777 -344 758 q -334 738 -317 730 q -300 721 -279 721 l -279 721 q -258 721 -241 729 q -224 736 -213 756 q -203 776 -203 812 l -203 812 q -203 818 -204 831 q -205 844 -208 854 l -208 854 l -131 863 q -129 851 -127 837 q -125 823 -125 809 l -125 809 q -125 728 -165 686 q -206 644 -278 644 z m -279 755 l -279 755 q -302 755 -313 769 q -325 783 -325 807 l -325 807 q -325 830 -313 845 q -302 860 -279 860 l -279 860 q -256 860 -244 846 q -232 831 -232 809 l -232 809 q -232 784 -244 770 q -256 755 -279 755 z"},"ം":{"ha":391,"x_min":31,"x_max":361,"o":"m 196 -12 l 196 -12 q 144 -12 107 11 q 70 34 51 77 q 31 120 31 178 l 31 178 q 31 239 52 282 q 72 324 109 347 q 146 369 195 369 l 195 369 q 246 369 283 347 q 320 324 341 282 q 361 240 361 178 l 361 178 q 361 119 341 76 q 320 33 283 11 q 245 -12 196 -12 z m 196 284 l 196 284 q 167 284 150 261 q 133 237 133 177 l 133 177 q 133 120 151 97 q 168 73 196 73 l 196 73 q 223 73 241 97 q 259 120 259 178 l 259 178 q 259 237 242 261 q 224 284 196 284 z"},"ഃ":{"ha":295,"x_min":28,"x_max":267,"o":"m 28 437 l 28 437 q 28 499 61 535 q 93 571 146 571 l 146 571 q 201 571 234 535 q 267 499 267 437 l 267 437 q 267 376 235 340 q 202 304 147 304 l 147 304 q 92 304 60 340 q 28 375 28 437 z m 107 438 l 107 438 q 107 409 117 393 q 127 377 147 377 l 147 377 q 168 377 178 393 q 188 409 188 438 l 188 438 q 188 467 178 483 q 167 498 147 498 l 147 498 q 128 498 118 483 q 107 467 107 438 z m 28 122 l 28 122 q 28 183 61 219 q 93 255 146 255 l 146 255 q 200 255 234 220 q 267 184 267 122 l 267 122 q 267 59 235 24 q 202 -12 147 -12 l 147 -12 q 92 -12 60 24 q 28 60 28 122 z m 107 122 l 107 122 q 107 93 117 77 q 127 60 147 60 l 147 60 q 168 60 178 77 q 188 93 188 122 l 188 122 q 188 150 178 166 q 167 182 147 182 l 147 182 q 128 182 118 166 q 107 150 107 122 z"},"ഄ":{"ha":517,"x_min":35,"x_max":483,"o":"m 50 331 l 50 331 l 153 312 q 147 289 144 266 q 141 242 141 219 l 141 219 q 141 154 168 117 q 194 80 258 80 l 258 80 q 323 80 350 117 q 376 153 376 219 l 376 219 q 376 242 374 266 q 371 289 365 312 l 365 312 l 466 331 q 473 310 478 280 q 483 250 483 217 l 483 217 q 483 151 462 100 q 441 49 392 20 q 342 -9 258 -9 l 258 -9 q 175 -9 126 20 q 77 49 56 100 q 35 151 35 217 l 35 217 q 35 250 40 280 q 44 310 50 331 z m 213 180 l 213 412 l 306 412 l 306 180 l 213 180 z"},"അ":{"ha":1226,"x_min":35,"x_max":1191,"o":"m 311 571 l 311 571 q 348 571 395 563 q 442 554 481 532 l 481 532 q 489 529 494 524 q 499 518 506 513 l 506 513 q 526 501 546 482 q 566 463 580 436 q 593 409 593 370 l 593 370 q 593 342 585 320 q 576 298 558 281 q 540 264 511 252 l 511 252 l 506 263 q 550 250 577 217 q 603 184 603 135 l 603 135 q 603 94 587 61 q 571 28 535 8 q 498 -12 438 -12 l 438 -12 q 369 -12 327 19 q 285 49 266 105 q 247 160 247 236 l 247 236 q 247 292 261 344 q 274 396 303 440 q 331 483 377 513 l 377 513 q 382 517 385 521 q 388 525 393 529 l 393 529 q 424 548 464 560 q 504 571 548 571 l 548 571 q 601 571 639 558 q 677 545 704 522 q 731 498 752 465 l 752 465 l 785 249 l 785 0 l 676 0 l 676 299 q 676 367 668 401 q 660 435 636 458 l 636 458 q 619 474 597 481 q 574 488 544 488 l 544 488 q 521 488 500 483 q 479 478 463 471 l 463 471 q 434 459 413 436 q 391 413 378 381 q 364 349 358 312 q 351 274 351 233 l 351 233 q 351 144 372 109 q 392 73 432 73 l 432 73 q 464 73 480 90 q 496 106 496 139 l 496 139 q 496 173 475 193 q 454 212 415 212 l 415 212 l 410 212 l 410 298 l 415 298 q 449 298 469 318 q 488 338 488 370 l 488 370 q 488 406 467 434 q 446 461 398 475 l 398 475 q 381 483 362 486 q 342 488 324 488 l 324 488 q 264 488 225 462 q 185 436 166 391 q 147 346 147 287 l 147 287 q 147 234 157 192 q 167 150 185 116 q 203 81 228 50 l 228 50 l 147 -10 q 116 25 91 68 q 65 111 50 166 q 35 221 35 292 l 35 292 q 35 343 49 393 q 63 442 95 483 q 126 523 180 547 q 234 571 311 571 z m 1015 -12 l 1015 -12 q 957 -12 922 16 q 887 44 871 93 q 854 142 854 203 l 854 203 q 854 301 892 353 q 929 405 1000 405 l 1000 405 q 1038 405 1066 386 q 1094 366 1115 331 q 1135 295 1150 248 l 1150 248 l 1109 237 q 1104 256 1093 276 q 1082 295 1066 309 q 1049 322 1026 322 l 1026 322 q 991 322 976 291 q 961 260 961 199 l 961 199 q 961 159 967 131 q 973 102 986 88 q 999 74 1020 74 l 1020 74 q 1040 74 1055 90 q 1069 105 1077 141 q 1085 177 1085 238 l 1085 238 q 1085 249 1084 270 q 1082 291 1079 311 l 1079 311 q 1079 315 1080 322 q 1080 328 1079 331 l 1079 331 q 1074 371 1054 405 q 1034 439 1000 461 q 965 482 916 482 l 916 482 q 888 482 868 478 q 847 473 829 457 l 829 457 q 815 446 805 428 q 795 410 790 380 q 785 349 785 296 l 785 296 l 785 213 l 712 464 q 736 498 763 522 q 790 546 827 559 q 864 571 917 571 l 917 571 q 985 571 1036 547 q 1087 522 1122 477 q 1156 432 1174 372 q 1191 311 1191 239 l 1191 239 q 1191 146 1170 91 q 1148 35 1109 12 q 1069 -12 1015 -12 z"},"ആ":{"ha":1344,"x_min":35,"x_max":1323,"o":"m 311 571 l 311 571 q 348 571 395 563 q 442 554 481 532 l 481 532 q 489 529 494 524 q 499 518 506 513 l 506 513 q 526 501 546 482 q 566 463 580 436 q 593 409 593 370 l 593 370 q 593 342 585 320 q 576 298 558 281 q 540 264 511 252 l 511 252 l 506 263 q 550 250 577 217 q 603 184 603 135 l 603 135 q 603 94 587 61 q 571 28 535 8 q 498 -12 438 -12 l 438 -12 q 369 -12 327 19 q 285 49 266 105 q 247 160 247 236 l 247 236 q 247 292 261 344 q 274 396 303 440 q 331 483 377 513 l 377 513 q 382 517 385 521 q 388 525 393 529 l 393 529 q 424 548 464 560 q 504 571 548 571 l 548 571 q 601 571 639 558 q 677 545 704 522 q 731 498 752 465 l 752 465 l 785 237 l 785 0 l 676 0 l 676 299 q 676 367 668 401 q 660 435 636 458 l 636 458 q 619 474 597 481 q 574 488 544 488 l 544 488 q 521 488 500 483 q 479 478 463 471 l 463 471 q 434 459 413 436 q 391 413 378 381 q 364 349 358 312 q 351 274 351 233 l 351 233 q 351 144 372 109 q 392 73 432 73 l 432 73 q 464 73 480 90 q 496 106 496 139 l 496 139 q 496 173 475 193 q 454 212 415 212 l 415 212 l 410 212 l 410 298 l 415 298 q 449 298 469 318 q 488 338 488 370 l 488 370 q 488 406 467 434 q 446 461 398 475 l 398 475 q 381 483 362 486 q 342 488 324 488 l 324 488 q 264 488 225 462 q 185 436 166 391 q 147 346 147 287 l 147 287 q 147 234 157 192 q 167 150 185 116 q 203 81 228 50 l 228 50 l 147 -10 q 116 25 91 68 q 65 111 50 166 q 35 221 35 292 l 35 292 q 35 343 49 393 q 63 442 95 483 q 126 523 180 547 q 234 571 311 571 z m 907 571 l 907 571 q 991 571 1044 538 q 1097 505 1126 453 q 1154 400 1162 341 l 1162 341 q 1166 315 1168 287 q 1169 259 1169 231 l 1169 231 q 1169 144 1150 91 q 1130 37 1093 13 q 1055 -12 999 -12 l 999 -12 q 944 -12 909 13 q 874 37 857 79 q 840 121 840 176 l 840 176 q 840 282 901 337 q 962 392 1061 392 l 1061 392 q 1078 392 1090 392 q 1102 391 1110 390 l 1110 390 l 1129 388 q 1188 376 1232 337 q 1275 298 1299 237 q 1323 175 1323 94 l 1323 94 q 1323 32 1309 -21 q 1295 -75 1264 -115 q 1233 -155 1183 -178 q 1132 -201 1060 -201 l 1060 -201 q 1027 -201 1001 -196 q 974 -192 947 -183 l 947 -183 l 976 -99 q 998 -106 1018 -108 q 1037 -111 1060 -111 l 1060 -111 q 1109 -111 1140 -93 q 1171 -75 1189 -45 q 1206 -16 1213 22 q 1219 60 1219 98 l 1219 98 q 1219 148 1211 185 q 1203 221 1187 248 q 1170 275 1145 292 l 1145 292 l 1111 299 q 1101 304 1088 306 q 1074 307 1064 307 l 1064 307 q 1026 307 1000 292 q 974 277 961 249 q 947 220 947 178 l 947 178 q 947 146 953 123 q 959 100 971 88 q 983 76 1002 76 l 1002 76 q 1035 76 1050 109 q 1065 142 1065 234 l 1065 234 q 1065 267 1061 300 q 1057 332 1049 360 l 1049 360 l 1045 377 q 1034 409 1014 433 q 994 457 968 470 q 941 482 908 482 l 908 482 q 886 482 867 478 q 847 473 828 457 l 828 457 q 814 446 805 428 q 795 410 790 379 q 785 348 785 295 l 785 295 l 785 210 l 713 464 q 734 497 761 522 q 787 546 823 559 q 859 571 907 571 z"},"ഇ":{"ha":786,"x_min":33,"x_max":752,"o":"m 268 571 l 268 571 q 317 571 350 559 q 382 547 406 527 q 430 506 451 480 l 451 480 l 419 488 q 448 535 486 553 q 523 571 562 571 l 562 571 q 611 571 647 552 q 683 532 706 497 q 729 461 741 415 q 752 368 752 314 l 752 314 q 752 220 733 161 q 714 101 665 61 l 665 61 q 641 41 609 28 q 577 14 533 7 q 489 0 424 0 l 424 0 l 263 0 q 222 0 205 -2 q 187 -5 175 -11 l 175 -11 q 161 -18 155 -29 q 148 -40 148 -54 l 148 -54 q 148 -68 154 -79 q 159 -90 169 -97 l 169 -97 q 181 -104 202 -108 q 223 -112 262 -112 l 262 -112 l 739 -112 l 739 -201 l 258 -201 q 201 -201 161 -192 q 121 -184 97 -169 l 97 -169 q 69 -151 54 -123 q 38 -96 38 -59 l 38 -59 q 38 -23 53 7 q 67 37 98 56 l 98 56 q 114 67 134 74 q 154 80 184 84 q 213 87 257 87 l 257 87 l 390 87 q 450 87 488 92 q 525 97 548 107 q 570 117 586 130 l 586 130 q 622 158 632 205 q 641 251 641 311 l 641 311 q 641 352 633 392 q 624 431 604 457 q 584 483 549 483 l 549 483 q 539 483 529 479 q 519 475 512 467 l 512 467 q 497 452 491 424 q 485 395 485 342 l 485 342 l 485 140 l 378 140 l 378 333 q 378 382 370 410 q 362 438 347 454 l 347 454 q 333 469 314 477 q 294 484 264 484 l 264 484 q 239 484 219 477 q 198 470 182 457 q 165 444 153 426 q 140 407 131 384 l 131 384 q 130 377 130 368 q 129 359 128 352 l 128 352 q 127 343 126 331 q 124 319 124 303 l 124 303 q 124 253 137 227 q 150 201 176 201 l 176 201 q 197 201 207 222 q 216 242 216 273 l 216 273 q 216 296 212 312 q 207 328 197 337 q 187 345 171 345 l 171 345 q 148 345 133 336 q 118 326 102 312 l 102 312 l 45 332 q 62 357 86 378 q 110 398 139 410 q 168 422 199 422 l 199 422 q 241 422 267 403 q 293 383 306 350 q 319 317 319 274 l 319 274 q 319 231 305 196 q 290 161 259 141 q 228 120 179 120 l 179 120 q 136 120 103 142 q 69 164 51 208 q 33 252 33 319 l 33 319 q 33 398 64 454 q 95 510 148 541 q 201 571 268 571 z"},"ഈ":{"ha":1407,"x_min":33,"x_max":1371,"o":"m 268 571 l 268 571 q 317 571 350 559 q 382 547 406 527 q 430 506 451 480 l 451 480 l 419 488 q 448 535 486 553 q 523 571 562 571 l 562 571 q 611 571 647 552 q 683 532 706 497 q 729 461 741 415 q 752 368 752 314 l 752 314 q 752 220 733 161 q 714 101 665 61 l 665 61 q 641 41 609 28 q 577 14 533 7 q 489 0 424 0 l 424 0 l 263 0 q 222 0 205 -2 q 187 -5 175 -11 l 175 -11 q 161 -18 155 -29 q 148 -40 148 -54 l 148 -54 q 148 -68 154 -79 q 159 -90 169 -97 l 169 -97 q 181 -104 202 -108 q 223 -112 262 -112 l 262 -112 l 739 -112 l 739 -201 l 258 -201 q 201 -201 161 -192 q 121 -184 97 -169 l 97 -169 q 69 -151 54 -123 q 38 -96 38 -59 l 38 -59 q 38 -23 53 7 q 67 37 98 56 l 98 56 q 114 67 134 74 q 154 80 184 84 q 213 87 257 87 l 257 87 l 390 87 q 450 87 488 92 q 525 97 548 107 q 570 117 586 130 l 586 130 q 622 158 632 205 q 641 251 641 311 l 641 311 q 641 352 633 392 q 624 431 604 457 q 584 483 549 483 l 549 483 q 539 483 529 479 q 519 475 512 467 l 512 467 q 497 452 491 424 q 485 395 485 342 l 485 342 l 485 140 l 378 140 l 378 333 q 378 382 370 410 q 362 438 347 454 l 347 454 q 333 469 314 477 q 294 484 264 484 l 264 484 q 239 484 219 477 q 198 470 182 457 q 165 444 153 426 q 140 407 131 384 l 131 384 q 130 377 130 368 q 129 359 128 352 l 128 352 q 127 343 126 331 q 124 319 124 303 l 124 303 q 124 253 137 227 q 150 201 176 201 l 176 201 q 197 201 207 222 q 216 242 216 273 l 216 273 q 216 296 212 312 q 207 328 197 337 q 187 345 171 345 l 171 345 q 148 345 133 336 q 118 326 102 312 l 102 312 l 45 332 q 62 357 86 378 q 110 398 139 410 q 168 422 199 422 l 199 422 q 241 422 267 403 q 293 383 306 350 q 319 317 319 274 l 319 274 q 319 231 305 196 q 290 161 259 141 q 228 120 179 120 l 179 120 q 136 120 103 142 q 69 164 51 208 q 33 252 33 319 l 33 319 q 33 398 64 454 q 95 510 148 541 q 201 571 268 571 z m 1200 571 l 1200 571 q 1255 571 1293 541 q 1331 510 1351 452 q 1371 394 1371 310 l 1371 310 q 1371 199 1343 128 q 1314 57 1259 23 q 1204 -12 1121 -12 l 1121 -12 q 1076 -12 1032 -3 q 987 6 945 29 l 945 29 l 990 111 q 1016 99 1048 90 q 1079 80 1112 80 l 1112 80 q 1167 80 1200 105 q 1232 130 1246 180 q 1260 230 1260 307 l 1260 307 q 1260 397 1241 440 q 1221 483 1190 483 l 1190 483 q 1178 483 1171 479 q 1164 474 1158 466 l 1158 466 q 1150 454 1147 435 q 1143 416 1143 371 l 1143 371 l 1143 263 l 1035 263 l 1035 355 q 1035 402 1032 424 q 1029 446 1023 459 l 1023 459 q 1017 472 1006 478 q 995 483 983 483 l 983 483 q 954 483 939 456 q 924 429 924 392 l 924 392 q 924 360 929 332 q 933 303 938 282 l 938 282 l 834 259 q 826 289 821 324 q 815 359 815 394 l 815 394 q 815 441 832 481 q 848 520 882 546 q 916 571 970 571 l 970 571 q 1013 571 1043 555 q 1072 539 1093 506 l 1093 506 l 1078 507 q 1101 542 1130 557 q 1158 571 1200 571 z"},"ഉ":{"ha":571,"x_min":33,"x_max":536,"o":"m 286 571 l 286 571 q 356 571 404 548 q 451 524 481 485 q 511 445 524 396 q 536 347 536 296 l 536 296 q 536 215 519 157 q 502 98 458 60 l 458 60 q 430 37 398 24 q 366 11 330 6 q 293 0 254 0 l 254 0 l 240 0 q 218 0 203 -2 q 187 -4 175 -10 l 175 -10 q 161 -17 155 -28 q 148 -40 148 -54 l 148 -54 q 148 -68 154 -79 q 159 -90 169 -97 l 169 -97 q 181 -104 202 -108 q 223 -112 262 -112 l 262 -112 l 521 -112 l 521 -201 l 258 -201 q 201 -201 161 -192 q 121 -184 97 -169 l 97 -169 q 69 -151 54 -123 q 38 -96 38 -59 l 38 -59 q 38 -22 53 8 q 67 38 98 58 l 98 58 q 122 73 155 80 q 188 87 235 87 l 235 87 l 230 87 q 272 87 302 93 q 331 98 351 108 q 370 117 383 131 l 383 131 q 410 159 418 201 q 426 243 426 292 l 426 292 q 426 325 419 358 q 412 391 396 420 q 379 448 350 465 q 321 482 276 482 l 276 482 q 248 482 224 475 q 199 467 180 452 q 161 437 148 417 q 135 397 128 371 l 128 371 q 129 367 129 362 q 129 357 129 353 l 129 353 q 127 344 126 333 q 124 321 124 303 l 124 303 q 124 253 137 227 q 150 201 176 201 l 176 201 q 197 201 207 222 q 216 242 216 273 l 216 273 q 216 296 212 312 q 207 328 197 337 q 187 345 171 345 l 171 345 q 149 345 133 336 q 116 326 100 312 l 100 312 l 45 332 q 62 357 86 378 q 110 398 139 410 q 168 422 199 422 l 199 422 q 241 422 267 403 q 293 383 306 350 q 319 317 319 274 l 319 274 q 319 231 305 196 q 290 161 259 141 q 228 120 179 120 l 179 120 q 136 120 103 142 q 69 163 51 207 q 33 251 33 317 l 33 317 q 33 375 52 422 q 70 469 104 503 q 137 536 183 554 q 229 571 286 571 z"},"ഊ":{"ha":1191,"x_min":33,"x_max":1155,"o":"m 286 571 l 286 571 q 356 571 404 548 q 451 524 481 485 q 511 445 524 396 q 536 347 536 296 l 536 296 q 536 215 519 157 q 502 98 458 60 l 458 60 q 430 37 398 24 q 366 11 330 6 q 293 0 254 0 l 254 0 l 240 0 q 218 0 203 -2 q 187 -4 175 -10 l 175 -10 q 161 -17 155 -28 q 148 -40 148 -54 l 148 -54 q 148 -68 154 -79 q 159 -90 169 -97 l 169 -97 q 181 -104 202 -108 q 223 -112 262 -112 l 262 -112 l 521 -112 l 521 -201 l 258 -201 q 201 -201 161 -192 q 121 -184 97 -169 l 97 -169 q 69 -151 54 -123 q 38 -96 38 -59 l 38 -59 q 38 -22 53 8 q 67 38 98 58 l 98 58 q 122 73 155 80 q 188 87 235 87 l 235 87 l 230 87 q 272 87 302 93 q 331 98 351 108 q 370 117 383 131 l 383 131 q 410 159 418 201 q 426 243 426 292 l 426 292 q 426 325 419 358 q 412 391 396 420 q 379 448 350 465 q 321 482 276 482 l 276 482 q 248 482 224 475 q 199 467 180 452 q 161 437 148 417 q 135 397 128 371 l 128 371 q 129 367 129 362 q 129 357 129 353 l 129 353 q 127 344 126 333 q 124 321 124 303 l 124 303 q 124 253 137 227 q 150 201 176 201 l 176 201 q 197 201 207 222 q 216 242 216 273 l 216 273 q 216 296 212 312 q 207 328 197 337 q 187 345 171 345 l 171 345 q 149 345 133 336 q 116 326 100 312 l 100 312 l 45 332 q 62 357 86 378 q 110 398 139 410 q 168 422 199 422 l 199 422 q 241 422 267 403 q 293 383 306 350 q 319 317 319 274 l 319 274 q 319 231 305 196 q 290 161 259 141 q 228 120 179 120 l 179 120 q 136 120 103 142 q 69 163 51 207 q 33 251 33 317 l 33 317 q 33 375 52 422 q 70 469 104 503 q 137 536 183 554 q 229 571 286 571 z m 984 571 l 984 571 q 1039 571 1077 541 q 1115 510 1135 452 q 1155 394 1155 310 l 1155 310 q 1155 199 1127 128 q 1098 57 1043 23 q 988 -12 905 -12 l 905 -12 q 860 -12 816 -3 q 771 6 729 29 l 729 29 l 774 111 q 800 99 832 90 q 863 80 896 80 l 896 80 q 951 80 984 105 q 1016 130 1030 180 q 1044 230 1044 307 l 1044 307 q 1044 397 1025 440 q 1005 483 974 483 l 974 483 q 962 483 955 479 q 948 474 942 466 l 942 466 q 934 454 931 435 q 927 416 927 371 l 927 371 l 927 263 l 819 263 l 819 355 q 819 402 816 424 q 813 446 807 459 l 807 459 q 801 472 790 478 q 779 483 767 483 l 767 483 q 738 483 723 456 q 708 429 708 392 l 708 392 q 708 360 713 332 q 717 303 722 282 l 722 282 l 618 259 q 610 289 605 324 q 599 359 599 394 l 599 394 q 599 441 616 481 q 632 520 666 546 q 700 571 754 571 l 754 571 q 797 571 827 555 q 856 539 877 506 l 877 506 l 862 507 q 885 542 914 557 q 942 571 984 571 z"},"ഋ":{"ha":753,"x_min":32,"x_max":721,"o":"m 556 571 l 556 571 q 632 571 677 516 q 721 461 721 356 l 721 356 q 721 290 702 242 q 683 194 648 160 l 648 160 q 609 119 557 98 q 505 76 436 76 l 436 76 l 324 76 q 278 76 238 86 q 198 95 166 114 q 133 132 108 159 l 108 159 q 72 194 52 242 q 32 290 32 356 l 32 356 q 32 421 53 469 q 74 517 113 544 q 152 571 205 571 l 205 571 q 254 571 287 550 q 320 528 337 491 q 353 454 353 407 l 353 407 q 353 349 336 312 q 319 274 288 256 q 257 238 213 238 l 213 238 q 184 238 157 250 q 129 261 106 279 q 82 296 65 314 l 65 314 l 95 394 q 110 371 124 354 q 137 337 152 329 q 167 320 186 320 l 186 320 q 217 320 233 341 q 248 362 248 410 l 248 410 q 248 445 235 466 q 222 487 200 487 l 200 487 q 179 487 165 474 q 150 460 142 434 q 134 407 134 368 l 134 368 q 134 347 137 328 q 140 309 144 293 l 144 293 l 140 269 q 150 240 173 220 q 195 199 225 186 q 255 173 286 167 q 317 160 345 160 l 345 160 l 411 160 q 435 160 465 166 q 495 171 526 184 q 556 197 580 218 q 603 239 614 270 l 614 270 l 610 294 q 614 308 617 328 q 619 348 619 369 l 619 369 q 619 409 612 435 q 605 461 592 474 q 579 487 558 487 l 558 487 q 535 487 521 466 q 506 444 506 402 l 506 402 q 506 360 521 340 q 535 320 565 320 l 565 320 q 586 320 601 329 q 615 337 629 354 q 642 370 658 394 l 658 394 l 688 313 q 672 297 649 279 q 626 261 598 250 q 570 238 540 238 l 540 238 q 497 238 466 256 q 434 274 418 311 q 401 347 401 401 l 401 401 q 401 452 419 490 q 437 528 472 550 q 507 571 556 571 z m 375 -235 l 375 -235 q 284 -235 219 -214 q 153 -194 118 -151 q 83 -108 83 -41 l 83 -41 q 83 4 102 37 q 120 69 154 90 q 188 111 233 121 q 278 131 331 131 l 331 131 l 420 131 q 475 131 521 121 q 566 111 600 90 q 634 69 653 37 q 671 4 671 -42 l 671 -42 q 671 -105 638 -148 q 605 -191 539 -213 q 473 -235 375 -235 z m 378 -146 l 378 -146 q 441 -146 481 -133 q 521 -120 540 -96 q 559 -72 559 -38 l 559 -38 q 559 -6 545 15 q 531 36 506 49 q 481 61 451 66 q 420 71 387 71 l 387 71 l 369 71 q 321 71 281 61 q 241 51 218 27 q 194 3 194 -37 l 194 -37 q 194 -73 213 -97 q 232 -121 273 -133 q 314 -146 378 -146 z"},"ഌ":{"ha":961,"x_min":36,"x_max":926,"o":"m 300 571 l 300 571 q 365 571 407 548 q 448 524 482 477 l 482 477 l 501 399 l 521 211 l 521 0 l 412 0 l 412 306 q 412 370 404 402 q 396 434 380 452 l 380 452 q 367 466 349 474 q 331 482 301 482 l 301 482 q 253 482 216 455 q 179 428 158 375 q 136 322 136 246 l 136 246 l 136 228 q 136 167 144 134 q 152 100 167 87 q 181 74 199 74 l 199 74 q 214 74 225 83 q 235 92 241 112 q 246 131 246 163 l 246 163 q 246 213 233 234 q 220 254 191 254 l 191 254 q 167 254 145 239 q 122 223 98 189 l 98 189 l 79 266 q 100 292 138 315 q 175 337 219 337 l 219 337 q 262 337 292 318 q 321 298 336 261 q 351 223 351 169 l 351 169 q 351 108 334 68 q 316 28 283 8 q 250 -12 203 -12 l 203 -12 q 158 -12 120 13 q 82 37 59 93 q 36 148 36 242 l 36 242 q 36 354 71 427 q 105 500 165 536 q 225 571 300 571 z m 750 -12 l 750 -12 q 692 -12 657 16 q 622 44 606 93 q 589 142 589 203 l 589 203 q 589 301 627 353 q 664 405 735 405 l 735 405 q 774 405 802 386 q 829 366 850 331 q 870 295 885 248 l 885 248 l 845 237 q 839 256 828 276 q 817 295 801 309 q 784 322 761 322 l 761 322 q 726 322 711 291 q 696 260 696 199 l 696 199 q 696 159 702 131 q 708 102 722 88 q 735 74 755 74 l 755 74 q 775 74 790 90 q 804 105 812 141 q 820 177 820 238 l 820 238 q 820 249 819 270 q 817 291 815 311 l 815 311 q 814 315 815 322 q 816 328 814 331 l 814 331 q 809 371 789 405 q 769 439 735 461 q 701 482 651 482 l 651 482 q 623 482 603 478 q 583 473 564 457 l 564 457 q 550 446 540 428 q 530 410 526 380 q 521 349 521 296 l 521 296 l 521 213 l 448 464 q 471 498 498 522 q 525 546 562 559 q 599 571 653 571 l 653 571 q 720 571 772 547 q 823 522 858 477 q 892 432 909 372 q 926 311 926 239 l 926 239 q 926 146 905 91 q 883 35 844 12 q 804 -12 750 -12 z"},"എ":{"ha":1032,"x_min":29,"x_max":996,"o":"m 201 356 l 201 356 q 261 356 298 331 q 335 305 353 265 q 370 225 370 180 l 370 180 q 370 141 358 112 q 346 82 336 65 l 336 65 l 323 87 l 700 87 l 691 0 l 273 0 l 235 57 q 245 76 255 104 q 264 132 264 171 l 264 171 q 264 216 249 243 q 234 269 202 269 l 202 269 q 180 269 166 258 q 152 246 145 225 q 137 203 137 175 l 137 175 q 137 127 151 97 q 165 67 180 37 l 180 37 l 93 -10 q 65 31 47 76 q 29 120 29 178 l 29 178 q 29 232 50 272 q 71 311 110 334 q 149 356 201 356 z m 730 571 l 730 571 q 796 571 846 547 q 896 522 929 473 q 962 423 979 351 q 996 278 996 183 l 996 183 q 996 103 982 30 q 967 -43 942 -107 q 917 -172 882 -228 l 882 -228 l 795 -179 q 823 -130 843 -76 q 862 -22 873 42 q 883 105 883 181 l 883 181 q 883 245 875 300 q 866 355 848 396 q 830 437 801 460 q 771 483 728 483 l 728 483 q 672 483 635 443 q 598 403 580 329 q 562 255 562 152 l 562 152 q 562 118 563 94 q 563 69 564 50 l 564 50 q 565 42 564 36 q 563 30 563 23 l 563 23 q 567 -44 577 -80 q 587 -116 602 -129 q 617 -143 635 -143 l 635 -143 q 649 -143 656 -135 l 656 -135 q 662 -129 664 -118 q 665 -107 665 -88 l 665 -88 l 665 394 l 773 394 l 773 -52 q 773 -100 767 -132 q 761 -165 742 -188 l 742 -188 q 727 -206 702 -217 q 677 -228 643 -228 l 643 -228 q 583 -228 540 -192 q 497 -156 475 -74 q 452 8 452 147 l 452 147 q 452 244 470 322 q 487 400 522 456 q 556 512 608 542 q 660 571 730 571 z"},"ഏ":{"ha":1045,"x_min":28,"x_max":1018,"o":"m 200 356 l 200 356 q 260 356 298 331 q 335 305 353 265 q 370 225 370 180 l 370 180 q 370 141 358 112 q 345 82 336 65 l 336 65 l 316 87 l 694 87 l 691 0 l 272 0 l 234 57 q 244 76 254 104 q 264 132 264 171 l 264 171 q 264 216 249 243 q 233 269 201 269 l 201 269 q 180 269 166 258 q 151 246 144 225 q 136 203 136 175 l 136 175 q 136 127 150 97 q 164 67 180 37 l 180 37 l 92 -10 q 64 31 46 76 q 28 120 28 178 l 28 178 q 28 232 50 272 q 71 311 110 334 q 148 356 200 356 z m 765 571 l 765 571 q 832 571 879 552 q 926 532 955 499 q 984 465 998 424 q 1011 383 1011 340 l 1011 340 q 1011 284 996 246 q 980 207 957 182 q 933 157 909 141 l 909 141 l 908 155 q 957 131 988 87 q 1018 43 1018 -30 l 1018 -30 q 1018 -100 997 -144 q 976 -188 940 -208 q 904 -228 857 -228 l 857 -228 q 834 -228 815 -226 q 796 -224 783 -220 l 783 -220 l 800 -135 q 808 -137 817 -138 q 826 -140 833 -140 l 833 -140 q 860 -140 877 -128 q 893 -116 901 -91 q 908 -66 908 -26 l 908 -26 q 908 27 885 61 q 862 95 816 97 l 816 97 l 816 184 q 841 192 860 211 q 878 229 889 259 q 900 289 900 332 l 900 332 q 900 376 885 410 q 870 444 839 463 q 808 481 760 481 l 760 481 q 691 481 647 440 q 603 398 582 324 q 561 249 561 152 l 561 152 q 561 118 562 94 q 563 70 564 50 l 564 50 q 564 43 563 37 q 562 30 562 23 l 562 23 q 566 -44 576 -80 q 586 -116 601 -129 q 616 -143 634 -143 l 634 -143 q 648 -143 655 -135 l 655 -135 q 661 -129 663 -118 q 664 -107 664 -88 l 664 -88 l 664 394 l 772 394 l 772 -52 q 772 -100 766 -132 q 760 -165 741 -188 l 741 -188 q 726 -206 701 -217 q 676 -228 642 -228 l 642 -228 q 583 -228 540 -192 q 497 -156 475 -73 q 452 9 452 149 l 452 149 q 452 246 472 324 q 491 402 531 458 q 571 513 630 542 q 688 571 765 571 z"},"ഐ":{"ha":1622,"x_min":35,"x_max":1585,"o":"m 203 -12 l 203 -12 q 158 -12 120 13 q 82 37 59 91 q 36 145 36 237 l 36 237 q 36 314 55 376 q 74 437 110 481 q 146 525 197 548 q 247 571 310 571 l 310 571 q 372 571 419 550 q 465 528 496 490 q 526 451 541 400 q 556 349 556 289 l 556 289 q 556 220 541 166 q 525 111 500 69 q 474 26 440 -11 l 440 -11 l 361 49 q 384 77 403 110 q 422 143 433 186 q 444 228 444 284 l 444 284 q 444 346 428 391 q 412 435 381 459 q 349 482 303 482 l 303 482 q 253 482 215 451 q 177 419 156 363 q 135 307 135 233 l 135 233 q 135 170 144 136 q 152 101 167 88 q 181 74 198 74 l 198 74 q 213 74 224 83 q 234 92 240 111 q 245 130 245 162 l 245 162 q 245 212 232 233 q 219 254 190 254 l 190 254 q 166 254 144 239 q 121 223 97 189 l 97 189 l 78 266 q 99 292 136 315 q 173 337 217 337 l 217 337 q 261 337 291 318 q 320 298 335 261 q 350 223 350 169 l 350 169 q 350 109 333 70 q 315 30 283 9 q 250 -12 203 -12 z m 791 356 l 791 356 q 851 356 888 331 q 925 305 943 265 q 960 225 960 180 l 960 180 q 960 141 948 112 q 936 82 926 65 l 926 65 l 913 87 l 1290 87 l 1281 0 l 863 0 l 825 57 q 835 76 845 104 q 854 132 854 171 l 854 171 q 854 216 839 243 q 824 269 792 269 l 792 269 q 770 269 756 258 q 742 246 735 225 q 727 203 727 175 l 727 175 q 727 127 741 97 q 755 67 770 37 l 770 37 l 683 -10 q 655 31 637 76 q 619 120 619 178 l 619 178 q 619 232 640 272 q 661 311 700 334 q 739 356 791 356 z m 1320 571 l 1320 571 q 1386 571 1436 547 q 1486 522 1519 473 q 1552 423 1569 351 q 1586 278 1586 183 l 1586 183 q 1586 103 1572 30 q 1557 -43 1532 -107 q 1507 -172 1472 -228 l 1472 -228 l 1385 -179 q 1413 -130 1433 -76 q 1452 -22 1463 42 q 1473 105 1473 181 l 1473 181 q 1473 245 1465 300 q 1456 355 1438 396 q 1420 437 1391 460 q 1361 483 1318 483 l 1318 483 q 1262 483 1225 443 q 1188 403 1170 329 q 1152 255 1152 152 l 1152 152 q 1152 118 1153 94 q 1153 69 1154 50 l 1154 50 q 1155 42 1154 36 q 1153 30 1153 23 l 1153 23 q 1157 -44 1167 -80 q 1177 -116 1192 -129 q 1207 -143 1225 -143 l 1225 -143 q 1239 -143 1246 -135 l 1246 -135 q 1252 -129 1254 -118 q 1255 -107 1255 -88 l 1255 -88 l 1255 394 l 1363 394 l 1363 -52 q 1363 -100 1357 -132 q 1351 -165 1332 -188 l 1332 -188 q 1317 -206 1292 -217 q 1267 -228 1233 -228 l 1233 -228 q 1173 -228 1130 -192 q 1087 -156 1065 -74 q 1042 8 1042 147 l 1042 147 q 1042 244 1060 322 q 1077 400 1112 456 q 1146 512 1198 542 q 1250 571 1320 571 z"},"ഒ":{"ha":633,"x_min":35,"x_max":603,"o":"m 377 571 l 377 571 q 455 571 504 549 q 552 526 574 488 q 596 450 596 405 l 596 405 q 596 375 587 351 q 578 327 559 308 q 539 289 506 276 l 506 276 l 506 282 q 550 268 577 230 q 603 192 603 143 l 603 143 q 603 71 564 30 q 525 -12 447 -12 l 447 -12 q 422 -12 400 -8 q 377 -5 361 -1 l 361 -1 l 376 83 q 388 79 401 77 q 413 75 428 75 l 428 75 q 463 75 478 94 q 493 113 493 148 l 493 148 q 493 167 487 184 q 481 200 469 211 l 469 211 q 457 223 438 230 q 418 236 388 236 l 388 236 l 383 236 l 383 322 l 387 322 q 420 322 437 327 q 453 332 466 344 l 466 344 q 476 354 481 367 q 486 380 486 396 l 486 396 q 486 438 457 460 q 427 482 371 482 l 371 482 q 318 482 275 466 q 232 449 201 419 q 169 388 152 344 q 135 299 135 242 l 135 242 l 135 222 q 135 164 143 132 q 150 99 165 87 q 180 74 197 74 l 197 74 q 212 74 223 83 q 233 91 239 111 q 244 130 244 163 l 244 163 q 244 213 232 234 q 219 254 190 254 l 190 254 q 164 254 141 238 q 117 221 92 185 l 92 185 l 69 258 q 90 287 129 312 q 168 337 217 337 l 217 337 q 260 337 290 318 q 319 298 334 261 q 349 223 349 168 l 349 168 q 349 108 332 68 q 314 28 282 8 q 249 -12 202 -12 l 202 -12 q 156 -12 118 13 q 80 37 58 90 q 35 142 35 227 l 35 227 q 35 309 59 373 q 82 437 127 481 q 171 525 235 548 q 298 571 377 571 z"},"ഓ":{"ha":1064,"x_min":35,"x_max":1027,"o":"m 377 571 l 377 571 q 455 571 504 549 q 552 526 574 488 q 596 450 596 405 l 596 405 q 596 375 587 351 q 578 327 559 308 q 539 289 506 276 l 506 276 l 506 282 q 550 268 577 230 q 603 192 603 143 l 603 143 q 603 71 564 30 q 525 -12 447 -12 l 447 -12 q 422 -12 400 -8 q 377 -5 361 -1 l 361 -1 l 376 83 q 388 79 401 77 q 413 75 428 75 l 428 75 q 463 75 478 94 q 493 113 493 148 l 493 148 q 493 167 487 184 q 481 200 469 211 l 469 211 q 457 223 438 230 q 418 236 388 236 l 388 236 l 383 236 l 383 322 l 387 322 q 420 322 437 327 q 453 332 466 344 l 466 344 q 476 354 481 367 q 486 380 486 396 l 486 396 q 486 438 457 460 q 427 482 371 482 l 371 482 q 318 482 275 466 q 232 449 201 419 q 169 388 152 344 q 135 299 135 242 l 135 242 l 135 222 q 135 164 143 132 q 150 99 165 87 q 180 74 197 74 l 197 74 q 212 74 223 83 q 233 91 239 111 q 244 130 244 163 l 244 163 q 244 213 232 234 q 219 254 190 254 l 190 254 q 164 254 141 238 q 117 221 92 185 l 92 185 l 69 258 q 90 287 129 312 q 168 337 217 337 l 217 337 q 260 337 290 318 q 319 298 334 261 q 349 223 349 168 l 349 168 q 349 108 332 68 q 314 28 282 8 q 249 -12 202 -12 l 202 -12 q 156 -12 118 13 q 80 37 58 90 q 35 142 35 227 l 35 227 q 35 309 59 373 q 82 437 127 481 q 171 525 235 548 q 298 571 377 571 z m 1027 281 l 1027 281 q 1027 213 1018 159 q 1008 105 986 67 q 964 28 928 8 q 892 -12 838 -12 l 838 -12 q 789 -12 755 5 q 721 21 700 48 q 678 75 666 109 q 654 143 649 178 l 649 178 l 758 199 q 763 171 772 142 q 780 113 796 94 q 811 74 837 74 l 837 74 q 865 74 882 98 q 899 121 907 167 q 915 213 915 282 l 915 282 q 915 349 907 394 q 899 439 883 462 q 866 485 838 485 l 838 485 q 816 485 800 468 q 784 451 775 423 q 766 395 760 362 l 760 362 l 652 383 q 660 418 674 452 q 687 485 709 513 q 731 540 764 556 q 797 571 845 571 l 845 571 q 897 571 932 550 q 967 529 988 491 q 1008 453 1018 400 q 1027 346 1027 281 z"},"ഔ":{"ha":1251,"x_min":35,"x_max":1216,"o":"m 377 571 l 377 571 q 455 571 504 549 q 552 526 574 488 q 596 450 596 405 l 596 405 q 596 375 587 351 q 578 327 559 308 q 539 289 506 276 l 506 276 l 506 282 q 550 268 577 230 q 603 192 603 143 l 603 143 q 603 71 564 30 q 525 -12 447 -12 l 447 -12 q 422 -12 400 -8 q 377 -5 361 -1 l 361 -1 l 376 83 q 388 79 401 77 q 413 75 428 75 l 428 75 q 463 75 478 94 q 493 113 493 148 l 493 148 q 493 167 487 184 q 481 200 469 211 l 469 211 q 457 223 438 230 q 418 236 388 236 l 388 236 l 383 236 l 383 322 l 387 322 q 420 322 437 327 q 453 332 466 344 l 466 344 q 476 354 481 367 q 486 380 486 396 l 486 396 q 486 438 457 460 q 427 482 371 482 l 371 482 q 318 482 275 466 q 232 449 201 419 q 169 388 152 344 q 135 299 135 242 l 135 242 l 135 222 q 135 164 143 132 q 150 99 165 87 q 180 74 197 74 l 197 74 q 212 74 223 83 q 233 91 239 111 q 244 130 244 163 l 244 163 q 244 213 232 234 q 219 254 190 254 l 190 254 q 164 254 141 238 q 117 221 92 185 l 92 185 l 69 258 q 90 287 129 312 q 168 337 217 337 l 217 337 q 260 337 290 318 q 319 298 334 261 q 349 223 349 168 l 349 168 q 349 108 332 68 q 314 28 282 8 q 249 -12 202 -12 l 202 -12 q 156 -12 118 13 q 80 37 58 90 q 35 142 35 227 l 35 227 q 35 309 59 373 q 82 437 127 481 q 171 525 235 548 q 298 571 377 571 z m 1045 571 l 1045 571 q 1100 571 1138 541 q 1176 510 1196 452 q 1216 394 1216 310 l 1216 310 q 1216 199 1188 128 q 1159 57 1104 23 q 1049 -12 966 -12 l 966 -12 q 921 -12 877 -3 q 832 6 790 29 l 790 29 l 835 111 q 861 99 893 90 q 924 80 957 80 l 957 80 q 1012 80 1045 105 q 1077 130 1091 180 q 1105 230 1105 307 l 1105 307 q 1105 397 1086 440 q 1066 483 1035 483 l 1035 483 q 1023 483 1016 479 q 1009 474 1003 466 l 1003 466 q 995 454 992 435 q 988 416 988 371 l 988 371 l 988 263 l 880 263 l 880 355 q 880 402 877 424 q 874 446 868 459 l 868 459 q 862 472 851 478 q 840 483 828 483 l 828 483 q 799 483 784 456 q 769 429 769 392 l 769 392 q 769 360 774 332 q 778 303 783 282 l 783 282 l 679 259 q 671 289 666 324 q 660 359 660 394 l 660 394 q 660 441 677 481 q 693 520 727 546 q 761 571 815 571 l 815 571 q 858 571 888 555 q 917 539 938 506 l 938 506 l 923 507 q 946 542 975 557 q 1003 571 1045 571 z"},"ക":{"ha":857,"x_min":29,"x_max":829,"o":"m 185 -12 l 185 -12 q 110 -12 70 33 q 29 78 29 156 l 29 156 q 29 211 52 246 q 74 281 112 302 l 112 302 q 133 314 158 322 q 183 330 219 334 q 254 337 309 337 l 309 337 l 560 337 q 641 337 686 327 q 731 317 760 295 l 760 295 q 792 274 811 239 q 829 204 829 153 l 829 153 q 829 75 785 32 q 741 -12 675 -12 l 675 -12 q 656 -12 641 -9 q 626 -7 607 -2 l 607 -2 l 626 82 q 634 80 642 79 q 650 77 660 77 l 660 77 q 690 77 707 97 q 723 116 723 154 l 723 154 q 723 177 716 195 q 708 213 693 224 l 693 224 q 676 239 653 245 q 629 250 572 250 l 572 250 l 278 250 q 237 250 211 246 q 185 241 166 229 l 166 229 q 152 217 142 200 q 132 183 132 158 l 132 158 q 132 133 140 115 q 147 96 163 86 q 179 76 204 76 l 204 76 q 228 76 248 85 q 267 94 290 114 l 290 114 l 339 38 q 312 17 287 7 q 262 -4 238 -8 q 213 -12 185 -12 z m 429 571 l 429 571 q 499 571 542 537 q 585 502 606 437 q 627 372 627 281 l 627 281 q 627 180 604 115 q 580 50 536 19 q 491 -12 429 -12 l 429 -12 q 377 -12 341 9 q 305 29 283 60 l 283 60 q 253 103 242 161 q 230 219 230 284 l 230 284 q 230 427 283 499 q 335 571 429 571 z m 429 484 l 429 484 q 382 484 360 437 q 337 390 337 280 l 337 280 q 337 207 347 162 q 357 116 378 96 q 398 75 429 75 l 429 75 q 458 75 479 95 q 499 115 510 161 q 520 206 520 280 l 520 280 q 520 354 510 399 q 499 444 479 464 q 459 484 429 484 z"},"ഖ":{"ha":824,"x_min":36,"x_max":768,"o":"m 311 571 l 311 571 q 375 571 421 551 q 466 530 496 493 q 525 455 540 406 q 555 356 555 297 l 555 297 q 555 239 543 192 q 530 145 510 105 q 490 65 464 30 l 464 30 l 470 0 l 428 0 l 367 57 q 387 82 404 115 q 421 147 432 190 q 443 233 443 288 l 443 288 q 443 350 427 394 q 411 437 381 460 q 350 482 306 482 l 306 482 q 252 482 214 451 q 176 420 156 366 q 136 312 136 244 l 136 244 l 136 228 q 136 167 144 134 q 152 100 167 87 q 181 74 199 74 l 199 74 q 213 74 224 83 q 234 92 240 111 q 246 130 246 162 l 246 162 q 246 212 233 233 q 220 254 191 254 l 191 254 q 165 254 142 238 q 118 221 94 185 l 94 185 l 70 258 q 92 287 131 312 q 170 337 218 337 l 218 337 q 261 337 291 318 q 320 298 336 261 q 351 223 351 169 l 351 169 q 351 108 334 68 q 316 28 284 8 q 251 -12 204 -12 l 204 -12 q 159 -12 121 13 q 83 37 60 93 q 36 149 36 244 l 36 244 q 36 350 72 423 q 107 496 170 534 q 232 571 311 571 z m 660 559 l 768 559 l 768 0 l 448 0 l 484 87 l 660 87 l 660 559 z"},"ഗ":{"ha":726,"x_min":35,"x_max":691,"o":"m 488 571 l 488 571 q 553 571 599 540 q 644 509 668 450 q 691 391 691 307 l 691 307 q 691 237 678 179 q 665 121 642 74 q 619 27 591 -12 l 591 -12 l 503 46 q 526 81 544 119 q 561 157 571 203 q 580 248 580 302 l 580 302 q 580 362 568 402 q 556 442 536 462 q 515 482 488 482 l 488 482 q 470 482 457 476 q 444 470 436 456 l 436 456 q 426 440 422 416 q 418 391 418 344 l 418 344 l 418 207 q 418 170 414 139 q 409 108 400 83 q 390 58 371 38 l 371 38 q 348 14 316 1 q 283 -12 238 -12 l 238 -12 q 173 -12 128 20 q 83 52 59 111 q 35 170 35 252 l 35 252 q 35 325 49 383 q 62 440 86 487 q 109 533 137 572 l 137 572 l 223 514 q 201 480 184 442 q 166 403 156 358 q 146 312 146 257 l 146 257 q 146 196 158 156 q 169 116 190 97 q 210 77 236 77 l 236 77 q 255 77 269 84 q 282 90 290 103 l 290 103 q 300 119 304 144 q 308 169 308 221 l 308 221 l 308 347 q 308 409 320 452 q 331 494 360 524 l 360 524 q 382 545 412 558 q 442 571 488 571 z"},"ഘ":{"ha":1083,"x_min":29,"x_max":1027,"o":"m 201 571 l 201 571 q 261 571 299 546 q 336 521 353 481 q 370 441 370 397 l 370 397 q 370 358 359 329 q 347 300 338 283 l 338 283 l 327 305 l 502 305 l 513 218 l 274 218 l 235 275 q 246 293 255 321 q 264 349 264 389 l 264 389 q 264 431 249 458 q 234 484 202 484 l 202 484 q 181 484 167 473 q 152 461 145 441 q 137 420 137 392 l 137 392 q 137 344 150 314 q 163 284 179 254 l 179 254 l 91 208 q 63 249 46 293 q 29 337 29 394 l 29 394 q 29 448 50 488 q 71 527 110 549 q 149 571 201 571 z m 918 559 l 1027 559 l 1027 0 l 435 0 l 435 321 q 435 396 447 438 q 459 480 481 508 l 481 508 q 504 538 542 555 q 579 571 631 571 l 631 571 q 682 571 720 555 q 757 539 780 509 l 780 509 q 807 475 817 433 q 827 391 827 325 l 827 325 l 827 218 l 543 218 l 543 87 l 918 87 l 918 559 z m 631 484 l 631 484 q 583 484 563 445 q 543 406 543 332 l 543 332 l 543 305 l 719 305 l 719 332 q 719 408 698 446 q 677 484 631 484 z"},"ങ":{"ha":863,"x_min":36,"x_max":832,"o":"m 300 571 l 300 571 q 365 571 408 547 q 450 523 483 473 l 483 473 l 504 404 l 521 248 l 521 0 l 412 0 l 412 306 q 412 370 404 402 q 396 434 380 452 l 380 452 q 367 466 349 474 q 331 482 301 482 l 301 482 q 253 482 216 455 q 179 428 158 375 q 136 322 136 246 l 136 246 l 136 228 q 136 167 144 134 q 152 100 167 87 q 181 74 199 74 l 199 74 q 214 74 225 83 q 235 92 241 112 q 246 131 246 163 l 246 163 q 246 213 233 234 q 220 254 191 254 l 191 254 q 167 254 145 239 q 122 223 98 189 l 98 189 l 79 266 q 100 292 138 315 q 175 337 219 337 l 219 337 q 262 337 292 318 q 321 298 336 261 q 351 223 351 169 l 351 169 q 351 108 334 68 q 316 28 283 8 q 250 -12 203 -12 l 203 -12 q 158 -12 120 13 q 82 37 59 93 q 36 148 36 242 l 36 242 q 36 354 71 427 q 105 500 165 536 q 225 571 300 571 z m 650 571 l 650 571 q 707 571 747 550 q 786 529 806 493 q 826 457 826 413 l 826 413 q 826 381 817 356 q 808 330 789 310 q 769 290 737 276 l 737 276 l 738 282 q 780 268 806 231 q 832 193 832 143 l 832 143 q 832 69 793 29 q 753 -12 677 -12 l 677 -12 q 653 -12 631 -8 q 609 -5 594 -1 l 594 -1 l 611 82 q 623 78 634 77 q 645 75 657 75 l 657 75 q 689 75 706 92 q 722 108 722 148 l 722 148 q 722 167 716 184 q 710 200 699 211 l 699 211 q 687 223 668 230 q 649 236 622 236 l 622 236 l 612 236 l 612 322 l 622 322 q 647 322 665 328 q 683 333 695 345 l 695 345 q 705 355 711 370 q 716 385 716 405 l 716 405 q 716 444 696 464 q 676 483 645 483 l 645 483 q 620 483 601 477 q 582 471 568 457 l 568 457 q 552 442 541 421 q 530 400 526 370 q 521 339 521 295 l 521 295 l 521 208 l 441 217 l 430 305 l 436 421 q 452 463 480 497 q 508 530 550 551 q 592 571 650 571 z"},"ച":{"ha":751,"x_min":18,"x_max":695,"o":"m 587 559 l 695 559 l 695 0 l 18 0 l 18 87 l 337 87 l 282 72 q 303 90 320 125 q 337 160 337 205 l 337 205 q 337 246 323 269 q 309 291 281 291 l 281 291 q 252 291 237 269 q 221 247 221 208 l 221 208 q 221 195 223 184 q 224 172 225 165 l 225 165 l 120 154 q 119 165 117 180 q 114 195 114 214 l 114 214 q 114 291 158 335 q 201 378 280 378 l 280 378 q 328 378 360 363 q 391 348 410 324 q 429 299 436 269 q 443 239 443 209 l 443 209 q 443 179 437 154 q 431 129 420 108 q 409 87 395 68 l 395 68 l 376 87 l 587 87 l 587 559 z"},"ഛ":{"ha":1088,"x_min":18,"x_max":1053,"o":"m 280 378 l 280 378 q 328 378 360 363 q 391 348 410 324 q 429 299 436 269 q 443 239 443 209 l 443 209 q 443 179 437 154 q 431 129 420 108 q 409 87 395 68 l 395 68 l 376 87 l 594 87 l 628 0 l 18 0 l 18 87 l 337 87 l 282 72 q 303 90 320 125 q 337 160 337 205 l 337 205 q 337 246 323 269 q 309 291 281 291 l 281 291 q 252 291 237 269 q 221 247 221 208 l 221 208 q 221 195 223 184 q 224 172 225 165 l 225 165 l 120 154 q 119 165 117 180 q 114 195 114 214 l 114 214 q 114 291 158 335 q 201 378 280 378 z m 773 571 l 773 571 q 844 571 897 547 q 949 522 984 478 q 1018 433 1036 372 q 1053 311 1053 238 l 1053 238 q 1053 146 1032 91 q 1010 35 971 12 q 932 -12 877 -12 l 877 -12 q 819 -12 784 16 q 749 44 733 93 q 716 142 716 203 l 716 203 q 716 301 754 353 q 791 405 863 405 l 863 405 q 901 405 929 386 q 956 366 977 331 q 997 295 1012 248 l 1012 248 l 971 237 q 966 256 955 276 q 944 295 928 309 q 911 322 889 322 l 889 322 q 854 322 839 291 q 823 260 823 199 l 823 199 q 823 159 829 131 q 835 102 849 88 q 862 74 882 74 l 882 74 q 902 74 917 90 q 931 105 939 141 q 947 177 947 238 l 947 238 q 947 251 946 271 q 944 290 942 308 l 942 308 q 941 313 941 321 q 940 328 938 332 l 938 332 q 933 371 913 405 q 893 439 860 461 q 827 482 782 482 l 782 482 q 728 482 692 458 q 656 433 639 389 q 621 345 621 286 l 621 286 q 621 240 630 199 q 639 158 657 123 q 674 87 696 57 l 696 57 l 646 0 l 610 0 l 601 37 q 577 69 556 107 q 535 145 522 193 q 509 240 509 298 l 509 298 q 509 355 526 405 q 542 454 576 492 q 609 529 659 550 q 708 571 773 571 z"},"ജ":{"ha":755,"x_min":29,"x_max":719,"o":"m 247 571 l 247 571 q 292 571 324 561 q 356 550 380 532 q 404 514 424 490 l 424 490 l 389 487 q 420 535 458 553 q 496 571 540 571 l 540 571 q 604 571 643 543 q 682 514 701 468 q 719 422 719 370 l 719 370 q 719 327 707 294 q 695 260 673 236 q 650 212 619 195 l 619 195 l 514 174 l 443 165 q 421 160 385 158 q 349 156 312 156 l 312 156 l 231 156 q 191 156 175 153 q 158 149 149 142 l 149 142 q 142 136 138 129 q 134 121 134 111 l 134 111 q 134 99 139 90 q 143 80 154 74 q 165 68 183 68 l 183 68 q 204 68 221 72 q 237 75 260 86 q 283 96 323 119 l 323 119 q 348 130 371 140 q 394 149 414 157 q 433 165 450 171 q 466 176 476 180 l 476 180 q 492 186 506 194 q 519 202 532 211 q 544 219 557 225 q 569 230 582 230 l 582 230 q 611 230 638 219 q 664 208 682 182 q 700 156 700 111 l 700 111 q 700 54 667 21 q 633 -12 570 -12 l 570 -12 q 523 -12 495 7 q 467 26 454 55 q 441 84 441 115 l 441 115 q 441 153 456 181 q 470 208 489 223 l 489 223 l 575 214 q 566 205 556 191 q 545 177 537 160 q 529 142 529 117 l 529 117 q 529 87 539 74 q 548 60 566 60 l 566 60 q 589 60 599 75 q 608 90 608 113 l 608 113 q 608 130 604 142 q 599 154 590 161 q 581 167 567 167 l 567 167 q 551 167 538 158 q 525 149 506 132 l 506 132 l 494 144 q 484 133 466 118 q 448 102 425 86 q 401 69 371 54 l 371 54 q 330 30 300 15 q 269 0 241 -6 q 213 -12 176 -12 l 176 -12 q 134 -12 101 0 q 67 12 48 39 q 29 65 29 107 l 29 107 q 29 143 44 169 q 58 194 87 210 l 87 210 q 107 221 135 227 q 163 233 221 233 l 221 233 l 418 233 q 453 233 480 235 q 507 237 529 243 q 550 249 565 259 l 565 259 q 588 275 601 302 q 614 328 614 368 l 614 368 q 614 401 606 427 q 597 453 579 470 q 560 486 530 486 l 530 486 q 515 486 505 482 q 494 477 487 470 l 487 470 q 467 452 463 421 q 458 389 458 347 l 458 347 l 458 262 l 358 262 l 358 324 q 358 372 353 404 q 348 436 328 460 l 328 460 q 317 475 295 484 q 273 493 242 493 l 242 493 q 219 493 188 485 q 157 477 141 456 l 141 456 q 138 453 137 446 q 136 438 134 434 l 134 434 q 129 426 127 412 q 124 398 124 381 l 124 381 q 124 342 136 328 q 147 313 164 313 l 164 313 q 178 313 187 321 q 195 329 199 343 q 202 356 202 373 l 202 373 q 202 401 192 415 q 181 428 160 428 l 160 428 q 146 428 132 421 q 117 414 107 407 l 107 407 l 67 428 q 87 455 122 467 q 157 479 192 479 l 192 479 q 221 479 244 467 q 266 454 279 429 q 292 404 292 367 l 292 367 q 292 332 279 304 q 266 275 239 259 q 211 242 166 242 l 166 242 q 107 242 72 280 q 37 317 37 385 l 37 385 q 37 439 61 481 q 85 523 132 547 q 178 571 247 571 z"},"ഝ":{"ha":1343,"x_min":35,"x_max":1309,"o":"m 555 571 l 555 571 q 604 571 643 558 q 682 545 709 520 l 709 520 q 748 485 763 433 q 778 381 778 297 l 778 297 l 778 197 q 778 172 781 147 q 784 122 795 105 l 795 105 q 804 92 818 85 q 832 77 850 77 l 850 77 q 868 77 881 84 q 894 90 901 101 l 901 101 q 914 118 919 145 q 923 171 923 219 l 923 219 l 923 559 l 1032 559 l 1032 227 q 1032 169 1038 139 q 1043 109 1059 93 l 1059 93 q 1068 85 1081 81 q 1093 77 1103 77 l 1103 77 q 1130 77 1152 98 q 1174 119 1186 160 q 1198 201 1198 259 l 1198 259 q 1198 310 1188 355 q 1178 399 1161 438 q 1143 477 1120 511 l 1120 511 l 1207 570 q 1237 530 1260 484 q 1283 437 1296 380 q 1309 323 1309 252 l 1309 252 q 1309 175 1286 116 q 1262 56 1219 22 q 1175 -12 1113 -12 l 1113 -12 q 1068 -12 1033 6 q 998 24 968 67 l 968 67 l 985 68 q 971 47 954 29 q 936 11 911 0 q 885 -12 848 -12 l 848 -12 q 801 -12 769 2 q 737 16 716 39 l 716 39 q 700 58 689 81 q 678 104 674 136 q 669 167 669 207 l 669 207 l 669 297 q 669 338 665 367 q 661 396 653 417 q 644 437 631 451 l 631 451 q 617 467 597 477 q 576 486 543 486 l 543 486 q 523 486 507 483 q 491 479 477 472 l 477 472 l 466 465 q 430 448 406 410 q 381 372 369 323 q 356 273 356 218 l 356 218 q 356 159 365 129 q 373 98 388 87 q 403 75 420 75 l 420 75 q 438 75 453 87 q 467 98 476 128 q 484 158 484 215 l 484 215 q 484 273 472 323 q 459 372 436 408 q 413 444 381 464 l 381 464 l 365 472 q 352 480 336 483 q 320 486 305 486 l 305 486 q 253 486 218 461 q 182 436 165 391 q 147 346 147 287 l 147 287 q 147 234 157 192 q 167 150 185 116 q 203 81 228 50 l 228 50 l 147 -10 q 115 25 90 68 q 65 111 50 166 q 35 221 35 292 l 35 292 q 35 344 49 394 q 62 443 92 484 q 122 524 172 548 q 221 571 294 571 l 294 571 q 337 571 371 561 q 404 550 433 528 l 433 528 l 450 515 q 517 470 556 397 q 594 324 594 218 l 594 218 q 594 142 574 91 q 553 39 514 14 q 475 -12 419 -12 l 419 -12 q 363 -12 325 15 q 287 42 267 94 q 246 145 246 218 l 246 218 q 246 284 263 339 q 279 394 312 437 q 344 480 391 512 l 391 512 l 413 529 q 443 550 480 561 q 516 571 555 571 z"},"ഞ":{"ha":1191,"x_min":36,"x_max":1156,"o":"m 300 571 l 300 571 q 365 571 408 547 q 451 523 484 473 l 484 473 l 478 434 l 521 225 l 521 0 l 412 0 l 412 306 q 412 370 404 402 q 396 434 380 452 l 380 452 q 367 466 349 474 q 330 482 301 482 l 301 482 q 253 482 216 455 q 179 428 158 375 q 136 322 136 246 l 136 246 l 136 228 q 136 167 144 134 q 152 100 167 87 q 181 74 199 74 l 199 74 q 214 74 225 83 q 235 92 241 112 q 246 131 246 163 l 246 163 q 246 213 233 234 q 220 254 191 254 l 191 254 q 167 254 145 239 q 122 223 98 189 l 98 189 l 79 266 q 100 292 138 315 q 175 337 219 337 l 219 337 q 262 337 292 318 q 321 298 336 261 q 351 223 351 169 l 351 169 q 351 108 334 68 q 316 28 283 8 q 250 -12 203 -12 l 203 -12 q 158 -12 120 13 q 82 37 59 93 q 36 148 36 242 l 36 242 q 36 354 71 427 q 105 500 165 536 q 225 571 300 571 z m 647 571 l 647 571 q 681 571 716 561 q 751 550 781 529 l 781 529 l 798 515 q 866 470 905 397 q 944 323 944 218 l 944 218 q 944 142 924 91 q 903 39 864 14 q 825 -12 769 -12 l 769 -12 q 713 -12 675 15 q 636 42 616 94 q 596 145 596 218 l 596 218 q 596 285 613 339 q 630 393 662 436 q 694 479 741 511 l 741 511 l 764 527 q 791 548 827 560 q 863 571 909 571 l 909 571 q 976 571 1024 548 q 1071 525 1100 485 q 1129 444 1143 393 q 1156 341 1156 285 l 1156 285 q 1156 218 1142 165 q 1127 111 1102 69 q 1076 27 1042 -10 l 1042 -10 l 963 50 q 984 78 1003 111 q 1021 143 1033 186 q 1044 228 1044 280 l 1044 280 q 1044 341 1028 387 q 1012 433 980 460 q 947 486 900 486 l 900 486 q 878 486 861 483 q 844 479 829 472 l 829 472 l 818 465 q 779 446 754 408 q 729 369 718 320 q 706 271 706 218 l 706 218 q 706 159 714 129 q 722 98 737 87 q 752 75 770 75 l 770 75 q 788 75 803 87 q 817 98 826 128 q 834 158 834 215 l 834 215 q 834 273 821 323 q 808 372 784 409 q 760 445 728 465 l 728 465 l 713 472 q 705 477 697 480 q 688 483 677 485 q 665 486 647 486 l 647 486 q 617 486 597 477 q 576 468 563 455 l 563 455 q 538 431 530 395 q 521 359 521 298 l 521 298 l 521 32 l 422 32 l 422 275 l 450 464 q 470 495 497 520 q 524 544 561 558 q 597 571 647 571 z"},"ട":{"ha":452,"x_min":12,"x_max":434,"o":"m 236 571 l 236 571 q 290 571 338 561 q 386 550 434 528 l 434 528 l 386 448 q 347 465 314 473 q 280 481 239 481 l 239 481 q 199 481 176 470 q 152 458 143 440 q 133 422 133 404 l 133 404 q 133 383 138 371 q 142 358 152 348 l 152 348 q 166 336 184 332 q 201 328 226 328 l 226 328 l 239 328 q 287 328 325 315 q 363 302 387 276 l 387 276 q 407 256 418 229 q 428 202 428 166 l 428 166 q 428 114 404 74 q 379 33 331 11 q 283 -12 212 -12 l 212 -12 q 160 -12 107 0 q 53 11 12 32 l 12 32 l 59 113 q 83 101 106 94 q 129 86 155 82 q 180 78 210 78 l 210 78 q 250 78 274 90 q 298 101 308 120 q 318 139 318 160 l 318 160 q 318 180 313 196 q 307 211 293 221 l 293 221 q 280 230 267 234 q 253 238 226 238 l 226 238 l 221 238 q 169 238 128 251 q 87 264 63 289 l 63 289 q 44 309 34 337 q 23 364 23 399 l 23 399 q 23 447 48 486 q 73 525 121 548 q 168 571 236 571 z"},"ഠ":{"ha":541,"x_min":34,"x_max":507,"o":"m 272 571 l 272 571 q 346 571 399 537 q 451 503 479 438 q 507 373 507 279 l 507 279 q 507 186 479 121 q 451 56 398 22 q 345 -12 269 -12 l 269 -12 q 191 -12 139 24 q 87 60 61 127 q 34 193 34 280 l 34 280 q 34 374 63 439 q 91 503 144 537 q 197 571 272 571 z m 270 77 l 270 77 q 310 77 338 101 q 366 125 380 171 q 394 216 394 280 l 394 280 q 394 345 380 390 q 365 435 338 459 q 311 482 271 482 l 271 482 q 213 482 180 432 q 147 382 147 280 l 147 280 q 147 179 179 128 q 211 77 270 77 z"},"ഡ":{"ha":984,"x_min":35,"x_max":949,"o":"m 487 -12 l 487 -12 q 442 -12 411 2 q 379 15 357 38 l 357 38 q 340 57 330 80 q 319 102 314 134 q 308 165 308 207 l 308 207 l 308 331 q 308 388 304 414 q 300 440 290 456 l 290 456 q 282 470 269 476 q 256 482 236 482 l 236 482 q 210 482 190 463 q 169 443 158 404 q 146 364 146 302 l 146 302 q 146 247 156 202 q 166 156 184 118 q 201 79 224 45 l 224 45 l 137 -13 q 109 26 86 73 q 62 119 49 177 q 35 235 35 306 l 35 306 q 35 388 59 447 q 83 506 130 539 q 176 571 242 571 l 242 571 q 284 571 316 559 q 348 546 370 523 l 370 523 q 389 502 399 477 q 408 451 413 421 q 417 390 417 354 l 417 354 l 417 210 q 417 169 420 145 q 423 121 434 104 l 434 104 q 442 91 457 84 q 471 77 490 77 l 490 77 q 507 77 521 84 q 535 91 542 102 l 542 102 q 555 119 560 145 q 564 171 564 218 l 564 218 l 564 559 l 673 559 l 673 227 q 673 168 678 139 q 683 109 699 93 l 699 93 q 709 84 722 80 q 734 76 744 76 l 744 76 q 771 76 793 98 q 814 119 826 160 q 838 201 838 258 l 838 258 q 838 309 829 354 q 819 399 802 438 q 784 477 760 511 l 760 511 l 847 569 q 878 529 901 483 q 923 436 936 379 q 949 322 949 251 l 949 251 q 949 174 926 115 q 903 55 860 22 q 816 -12 754 -12 l 754 -12 q 709 -12 675 6 q 640 23 609 67 l 609 67 l 626 68 q 602 33 572 11 q 542 -12 487 -12 z"},"ഢ":{"ha":1084,"x_min":35,"x_max":1048,"o":"m 487 -12 l 487 -12 q 442 -12 411 2 q 379 15 357 38 l 357 38 q 340 57 330 80 q 319 103 314 135 q 308 166 308 208 l 308 208 l 308 331 q 308 389 304 415 q 300 440 290 456 l 290 456 q 282 470 269 476 q 256 482 236 482 l 236 482 q 210 482 190 463 q 169 444 158 404 q 146 364 146 303 l 146 303 q 146 248 156 203 q 165 157 183 119 q 200 80 224 45 l 224 45 l 137 -13 q 109 26 86 73 q 62 120 49 178 q 35 236 35 307 l 35 307 q 35 388 59 447 q 83 506 129 539 q 175 571 242 571 l 242 571 q 284 571 316 559 q 348 546 370 523 l 370 523 q 389 502 399 477 q 408 451 413 421 q 417 390 417 354 l 417 354 l 417 212 q 417 169 420 146 q 423 122 434 105 l 434 105 q 442 91 457 84 q 471 77 490 77 l 490 77 q 507 77 521 84 q 535 91 542 102 l 542 102 q 555 119 560 145 q 564 171 564 219 l 564 219 l 564 559 l 673 559 l 673 302 l 626 68 q 603 33 573 11 q 542 -12 487 -12 z m 881 571 l 881 571 q 926 571 964 547 q 1002 522 1025 467 q 1048 412 1048 317 l 1048 317 q 1048 207 1014 134 q 980 60 920 24 q 860 -12 785 -12 l 785 -12 q 720 -12 678 13 q 635 37 600 84 l 600 84 l 587 251 l 587 506 l 673 506 l 673 254 q 673 190 681 158 q 688 125 705 107 l 705 107 q 717 94 736 86 q 755 77 784 77 l 784 77 q 832 77 869 104 q 906 131 927 184 q 948 237 948 313 l 948 313 l 948 332 q 948 392 940 425 q 932 458 918 472 q 904 485 885 485 l 885 485 q 871 485 861 476 q 850 466 845 447 q 839 428 839 396 l 839 396 q 839 348 852 327 q 864 305 893 305 l 893 305 q 917 305 940 321 q 962 337 987 370 l 987 370 l 1005 293 q 984 268 946 245 q 908 222 865 222 l 865 222 q 823 222 793 242 q 763 261 748 299 q 733 336 733 389 l 733 389 q 733 450 751 491 q 769 531 802 551 q 834 571 881 571 z"},"ണ":{"ha":1094,"x_min":36,"x_max":1059,"o":"m 300 571 l 300 571 q 365 571 407 547 q 449 523 484 474 l 484 474 l 452 483 q 479 529 516 550 q 553 571 597 571 l 597 571 q 646 571 679 551 q 711 530 735 494 l 735 494 l 719 494 q 748 535 782 553 q 816 571 862 571 l 862 571 q 924 571 968 538 q 1012 504 1036 445 q 1059 386 1059 307 l 1059 307 q 1059 236 1045 178 q 1031 120 1009 74 q 986 27 958 -11 l 958 -11 l 870 47 q 893 82 911 121 q 928 160 938 205 q 948 249 948 300 l 948 300 q 948 360 936 401 q 923 441 901 462 q 879 483 852 483 l 852 483 q 843 483 831 479 q 819 474 809 465 l 809 465 q 793 449 788 420 q 782 390 782 332 l 782 332 l 782 0 l 673 0 l 673 336 q 673 389 670 415 q 666 440 654 457 l 654 457 q 645 469 632 476 q 619 483 597 483 l 597 483 q 577 483 564 476 q 551 468 542 457 l 542 457 q 528 437 524 412 q 520 386 520 333 l 520 333 l 520 0 l 412 0 l 412 307 q 412 370 404 402 q 396 434 380 452 l 380 452 q 367 466 350 474 q 332 482 301 482 l 301 482 q 253 482 216 456 q 179 429 158 376 q 136 323 136 246 l 136 246 l 136 228 q 136 167 144 134 q 152 100 167 87 q 181 74 199 74 l 199 74 q 214 74 225 83 q 235 92 241 112 q 246 131 246 163 l 246 163 q 246 213 233 234 q 220 254 191 254 l 191 254 q 167 254 145 239 q 122 223 98 189 l 98 189 l 79 266 q 100 292 138 315 q 175 337 219 337 l 219 337 q 262 337 292 318 q 321 298 336 261 q 351 223 351 169 l 351 169 q 351 109 334 69 q 316 28 283 8 q 250 -12 203 -12 l 203 -12 q 158 -12 120 13 q 82 37 59 93 q 36 148 36 242 l 36 242 q 36 353 71 427 q 105 500 165 536 q 225 571 300 571 z"},"ത":{"ha":841,"x_min":35,"x_max":806,"o":"m 419 -12 l 419 -12 q 363 -12 325 15 q 287 42 267 94 q 246 145 246 218 l 246 218 q 246 285 263 339 q 280 393 313 436 q 345 478 392 511 l 392 511 l 414 527 q 441 548 477 560 q 512 571 559 571 l 559 571 q 626 571 674 548 q 721 525 751 485 q 780 444 793 393 q 806 341 806 285 l 806 285 q 806 218 792 165 q 777 111 752 69 q 726 27 692 -10 l 692 -10 l 613 50 q 634 78 653 111 q 671 143 683 186 q 694 228 694 280 l 694 280 q 694 340 678 386 q 662 432 630 459 q 598 486 550 486 l 550 486 q 528 486 511 483 q 494 479 479 472 l 479 472 l 468 465 q 430 446 405 408 q 380 370 368 321 q 356 271 356 218 l 356 218 q 356 159 365 129 q 373 98 388 87 q 403 75 420 75 l 420 75 q 438 75 453 87 q 467 98 476 129 q 484 159 484 215 l 484 215 q 484 273 472 323 q 459 372 436 408 q 413 444 382 464 l 382 464 l 365 472 q 352 480 336 483 q 320 486 305 486 l 305 486 q 253 486 218 461 q 182 435 165 391 q 147 346 147 287 l 147 287 q 147 234 157 192 q 167 150 185 116 q 203 81 228 50 l 228 50 l 147 -10 q 116 25 91 68 q 65 111 50 166 q 35 221 35 292 l 35 292 q 35 344 49 394 q 62 443 92 484 q 121 524 171 548 q 221 571 293 571 l 293 571 q 336 571 370 561 q 404 550 433 528 l 433 528 l 449 515 q 517 470 556 397 q 594 324 594 218 l 594 218 q 594 142 574 91 q 553 39 514 14 q 475 -12 419 -12 z"},"ഥ":{"ha":739,"x_min":56,"x_max":688,"o":"m 56 559 l 165 559 l 165 87 l 322 87 l 322 0 l 56 0 l 56 559 z m 483 571 l 483 571 q 535 571 570 558 q 605 544 628 521 l 628 521 q 664 487 676 439 q 688 390 688 317 l 688 317 l 688 0 l 276 0 l 276 312 q 276 364 282 402 q 287 439 299 468 q 311 497 334 520 l 334 520 q 357 543 394 557 q 430 571 483 571 z m 482 483 l 482 483 q 457 483 441 476 q 424 468 414 456 l 414 456 q 398 436 392 404 q 385 372 385 313 l 385 313 l 385 87 l 579 87 l 579 309 q 579 372 573 404 q 566 436 550 456 l 550 456 q 540 468 522 476 q 504 483 482 483 z"},"ദ":{"ha":530,"x_min":40,"x_max":499,"o":"m 316 571 l 316 571 q 373 571 413 551 q 452 530 473 495 q 493 459 493 413 l 493 413 q 493 364 473 331 q 452 298 403 276 l 403 276 l 404 282 q 446 268 473 231 q 499 194 499 142 l 499 142 q 499 71 459 30 q 418 -12 340 -12 l 340 -12 q 313 -12 289 -8 q 264 -5 245 -1 l 245 -1 l 263 83 q 277 80 291 78 q 304 75 318 75 l 318 75 q 357 75 373 94 q 389 113 389 148 l 389 148 q 389 167 383 184 q 377 200 365 211 l 365 211 q 354 223 335 230 q 315 236 280 236 l 280 236 l 265 236 l 265 322 l 278 322 q 313 322 331 328 q 349 333 361 345 l 361 345 q 372 355 378 370 q 383 385 383 405 l 383 405 q 383 443 364 463 q 345 483 311 483 l 311 483 q 261 483 225 452 q 189 421 170 364 q 150 306 150 228 l 150 228 q 150 172 157 118 q 163 63 173 18 l 173 18 l 68 -4 q 56 46 48 108 q 40 169 40 226 l 40 226 q 40 335 73 412 q 105 488 167 530 q 228 571 316 571 z"},"ധ":{"ha":736,"x_min":35,"x_max":701,"o":"m 498 -12 l 498 -12 q 466 -12 442 -2 q 417 7 399 25 q 380 42 362 64 l 362 64 l 375 64 q 346 24 312 6 q 278 -12 232 -12 l 232 -12 q 170 -12 126 22 q 81 55 58 115 q 35 174 35 252 l 35 252 q 35 323 48 381 q 61 438 84 485 q 107 531 136 570 l 136 570 l 224 512 q 201 478 184 440 q 166 402 156 357 q 146 312 146 259 l 146 259 q 146 200 159 159 q 171 118 194 97 q 216 76 243 76 l 243 76 q 257 76 268 81 q 278 85 286 92 l 286 92 q 301 106 308 135 q 314 164 314 215 l 314 215 l 314 559 l 422 559 l 422 216 q 422 158 429 133 q 435 107 449 91 l 449 91 q 456 85 467 81 q 477 76 491 76 l 491 76 q 516 76 539 96 q 562 115 576 156 q 590 197 590 260 l 590 260 q 590 312 581 357 q 571 402 554 441 q 537 479 513 512 l 513 512 l 599 570 q 630 529 653 482 q 675 435 688 380 q 701 324 701 256 l 701 256 q 701 176 678 116 q 655 56 610 22 q 564 -12 498 -12 z"},"ന":{"ha":736,"x_min":35,"x_max":701,"o":"m 238 571 l 238 571 q 272 571 296 562 q 319 552 338 535 q 357 518 375 495 l 375 495 l 361 495 q 390 536 424 554 q 458 571 504 571 l 504 571 q 567 571 611 538 q 655 504 678 445 q 701 386 701 307 l 701 307 q 701 237 688 179 q 675 121 652 75 q 629 29 600 -11 l 600 -11 l 512 47 q 535 82 553 120 q 571 158 581 202 q 590 246 590 300 l 590 300 q 590 359 578 400 q 565 441 543 462 q 521 483 493 483 l 493 483 q 480 483 470 479 q 459 474 450 467 l 450 467 q 436 453 429 424 q 422 395 422 344 l 422 344 l 422 0 l 314 0 l 314 343 q 314 401 308 427 q 301 452 287 468 l 287 468 q 281 474 271 479 q 260 483 245 483 l 245 483 q 220 483 198 464 q 175 444 161 403 q 146 362 146 299 l 146 299 q 146 248 156 203 q 165 158 183 119 q 200 80 223 47 l 223 47 l 137 -11 q 108 30 85 77 q 62 124 49 180 q 35 236 35 303 l 35 303 q 35 382 58 443 q 81 503 127 537 q 172 571 238 571 z"},"ഩ":{"ha":834,"x_min":36,"x_max":799,"o":"m 300 571 l 300 571 q 365 571 407 547 q 449 523 484 474 l 484 474 l 452 486 q 480 532 518 552 q 555 571 601 571 l 601 571 q 664 571 709 538 q 753 504 776 445 q 799 386 799 307 l 799 307 q 799 235 786 178 q 772 120 749 74 q 726 28 698 -11 l 698 -11 l 610 47 q 633 82 651 120 q 669 158 679 202 q 689 246 689 300 l 689 300 q 689 359 676 400 q 663 441 641 462 q 619 483 591 483 l 591 483 q 577 483 567 479 q 556 474 548 467 l 548 467 q 533 453 527 424 q 521 395 521 345 l 521 345 l 521 0 l 412 0 l 412 305 q 412 370 404 402 q 396 434 380 452 l 380 452 q 367 466 349 474 q 331 482 301 482 l 301 482 q 253 482 216 455 q 179 428 158 375 q 136 322 136 246 l 136 246 l 136 228 q 136 167 144 134 q 152 100 167 87 q 181 74 199 74 l 199 74 q 214 74 225 83 q 235 92 241 112 q 246 131 246 163 l 246 163 q 246 213 233 234 q 220 254 191 254 l 191 254 q 167 254 145 239 q 122 223 98 189 l 98 189 l 79 266 q 100 292 138 315 q 175 337 219 337 l 219 337 q 262 337 292 318 q 321 298 336 261 q 351 223 351 169 l 351 169 q 351 108 334 68 q 316 28 283 8 q 250 -12 203 -12 l 203 -12 q 158 -12 120 13 q 82 37 59 93 q 36 148 36 242 l 36 242 q 36 354 71 427 q 105 500 165 536 q 225 571 300 571 z"},"പ":{"ha":725,"x_min":29,"x_max":669,"o":"m 201 356 l 201 356 q 261 356 299 331 q 336 305 353 265 q 370 225 370 180 l 370 180 q 370 141 358 112 q 346 82 336 65 l 336 65 l 325 87 l 560 87 l 560 559 l 669 559 l 669 0 l 273 0 l 234 57 q 244 76 254 105 q 264 133 264 172 l 264 172 q 264 215 249 242 q 234 269 202 269 l 202 269 q 180 269 166 258 q 152 246 145 225 q 137 203 137 175 l 137 175 q 137 127 151 97 q 165 67 180 37 l 180 37 l 93 -10 q 65 31 47 76 q 29 120 29 177 l 29 177 q 29 232 50 272 q 71 311 110 334 q 149 356 201 356 z"},"ഫ":{"ha":925,"x_min":29,"x_max":873,"o":"m 201 356 l 201 356 q 261 356 299 331 q 336 305 353 265 q 370 225 370 180 l 370 180 q 370 141 358 112 q 346 82 336 65 l 336 65 l 322 87 l 514 87 l 513 0 l 273 0 l 234 57 q 244 76 254 105 q 264 133 264 172 l 264 172 q 264 215 249 242 q 234 269 202 269 l 202 269 q 180 269 166 258 q 152 246 145 225 q 137 203 137 175 l 137 175 q 137 127 151 97 q 165 67 180 37 l 180 37 l 93 -10 q 65 31 47 76 q 29 120 29 177 l 29 177 q 29 232 50 272 q 71 311 110 334 q 149 356 201 356 z m 669 571 l 669 571 q 721 571 756 558 q 791 544 814 521 l 814 521 q 850 487 862 439 q 873 390 873 317 l 873 317 l 873 0 l 462 0 l 462 312 q 462 364 467 402 q 472 439 485 468 q 497 497 520 520 l 520 520 q 543 543 579 557 q 615 571 669 571 z m 668 483 l 668 483 q 643 483 627 476 q 610 468 600 456 l 600 456 q 584 436 578 404 q 571 372 571 313 l 571 313 l 571 87 l 764 87 l 764 309 q 764 372 758 404 q 752 436 736 456 l 736 456 q 726 468 708 476 q 690 483 668 483 z"},"ബ":{"ha":1062,"x_min":36,"x_max":1006,"o":"m 300 571 l 300 571 q 365 571 407 547 q 449 523 484 474 l 484 474 l 502 404 l 521 254 l 521 0 l 412 0 l 412 306 q 412 370 404 402 q 396 434 380 452 l 380 452 q 367 466 349 474 q 331 482 301 482 l 301 482 q 253 482 216 455 q 179 428 158 375 q 136 322 136 246 l 136 246 l 136 228 q 136 167 144 134 q 152 100 167 87 q 181 74 199 74 l 199 74 q 214 74 225 83 q 235 92 241 112 q 246 131 246 163 l 246 163 q 246 213 233 234 q 220 254 191 254 l 191 254 q 167 254 145 239 q 122 223 98 189 l 98 189 l 79 266 q 100 292 138 315 q 175 337 219 337 l 219 337 q 262 337 292 318 q 321 298 336 261 q 351 223 351 169 l 351 169 q 351 108 334 68 q 316 28 283 8 q 250 -12 203 -12 l 203 -12 q 158 -12 120 13 q 82 37 59 93 q 36 148 36 242 l 36 242 q 36 354 71 427 q 105 500 165 536 q 225 571 300 571 z m 897 559 l 1006 559 l 1006 0 l 667 0 l 616 56 q 641 96 657 133 q 672 170 680 211 q 687 251 687 300 l 687 300 q 687 359 675 400 q 662 441 641 462 q 619 483 591 483 l 591 483 q 577 483 567 479 q 556 474 548 467 l 548 467 q 533 453 527 424 q 521 395 521 346 l 521 346 l 521 6 l 418 6 l 418 244 l 451 423 l 452 486 q 480 532 517 552 q 554 571 601 571 l 601 571 q 663 571 707 538 q 751 504 775 445 q 798 386 798 307 l 798 307 q 798 256 791 214 q 783 171 770 136 q 756 100 736 69 l 736 69 l 723 87 l 897 87 l 897 559 z"},"ഭ":{"ha":555,"x_min":40,"x_max":529,"o":"m 344 571 l 344 571 q 399 571 441 554 q 482 537 506 505 q 529 472 529 425 l 529 425 q 529 397 521 375 q 512 353 494 338 l 494 338 q 478 324 452 317 q 426 309 387 309 l 387 309 l 387 309 q 372 309 361 307 q 350 304 342 299 l 342 299 q 337 295 334 289 q 330 282 330 273 l 330 273 q 330 254 346 247 q 362 239 390 239 l 390 239 l 388 239 q 429 239 455 230 q 480 221 495 206 l 495 206 q 512 190 521 169 q 529 148 529 120 l 529 120 q 529 83 513 53 q 496 22 459 5 q 422 -12 358 -12 l 358 -12 q 337 -12 314 -10 q 290 -8 266 -2 q 242 3 220 11 l 220 11 l 254 93 q 281 85 307 81 q 332 76 355 76 l 355 76 q 396 76 411 88 q 426 99 426 118 l 426 118 q 426 134 415 144 q 403 154 373 154 l 373 154 l 375 154 q 332 154 304 163 q 276 172 260 190 l 260 190 q 246 205 237 227 q 228 248 228 272 l 228 272 q 228 301 238 324 q 248 347 268 362 l 268 362 q 284 374 307 383 q 329 391 372 392 l 372 392 l 374 392 q 399 392 412 400 q 425 407 425 427 l 425 427 q 425 456 402 470 q 378 483 339 483 l 339 483 q 273 483 231 452 q 189 421 170 364 q 150 306 150 228 l 150 228 q 150 172 157 118 q 163 63 173 18 l 173 18 l 68 -4 q 56 46 48 108 q 40 169 40 226 l 40 226 q 40 333 74 410 q 107 487 174 529 q 241 571 344 571 z"},"മ":{"ha":614,"x_min":49,"x_max":565,"o":"m 301 571 l 301 571 q 374 571 422 552 q 470 533 501 500 l 501 500 q 524 475 538 444 q 552 412 559 370 q 565 327 565 270 l 565 270 l 565 0 l 49 0 l 49 273 q 49 331 56 373 q 62 414 76 446 q 90 477 112 500 l 112 500 q 144 534 188 553 q 232 571 301 571 z m 241 481 l 241 481 q 221 481 204 466 q 186 450 175 422 l 175 422 q 166 400 162 368 q 157 335 157 286 l 157 286 l 157 63 l 143 66 q 185 116 218 173 q 250 229 268 287 q 286 345 286 400 l 286 400 q 286 426 282 444 q 278 462 268 472 q 258 481 241 481 z m 394 377 l 394 377 q 394 323 379 273 q 364 222 337 173 q 309 124 272 72 l 272 72 l 253 83 q 271 85 298 86 q 325 87 335 87 l 335 87 l 457 87 l 457 286 q 457 347 446 387 q 435 426 413 451 q 391 476 355 489 l 355 489 l 356 492 q 372 473 383 443 q 394 413 394 377 z"},"യ":{"ha":859,"x_min":37,"x_max":822,"o":"m 555 -12 l 555 -12 q 504 -12 469 -1 q 434 9 397 33 l 397 33 q 392 37 387 44 q 382 51 378 56 l 378 56 q 333 93 307 141 q 280 189 270 242 q 259 295 259 347 l 259 347 q 259 381 265 413 q 270 444 280 470 l 280 470 l 298 492 q 313 521 335 539 q 357 556 385 564 q 412 571 440 571 l 440 571 q 525 571 571 515 q 616 458 616 347 l 616 347 q 616 249 582 174 q 547 98 486 48 l 486 48 q 480 43 473 38 q 466 32 459 27 l 459 27 q 428 8 392 -2 q 356 -12 308 -12 l 308 -12 q 240 -12 189 14 q 138 39 104 85 q 70 130 54 192 q 37 253 37 326 l 37 326 q 37 402 58 457 q 79 512 123 542 q 166 571 229 571 l 229 571 q 274 571 311 552 q 347 532 380 492 l 380 492 l 299 440 q 284 465 267 475 q 249 484 233 484 l 233 484 q 205 484 186 467 q 167 449 157 415 q 147 380 147 328 l 147 328 q 147 244 169 187 q 190 130 228 102 q 265 73 312 73 l 312 73 q 338 73 357 77 q 375 80 390 88 l 390 88 q 397 91 402 93 q 407 95 413 99 l 413 99 q 444 123 465 163 q 486 203 496 251 q 506 299 506 345 l 506 345 q 506 400 496 430 q 486 460 471 472 q 455 484 438 484 l 438 484 q 417 484 401 471 q 385 457 377 427 q 369 396 369 347 l 369 347 q 369 304 377 258 q 385 212 403 172 q 421 131 450 105 l 450 105 q 455 100 460 98 q 465 95 471 92 l 471 92 q 485 83 506 78 q 526 73 550 73 l 550 73 q 605 73 641 100 q 676 126 693 177 q 710 227 710 299 l 710 299 q 710 358 695 417 q 680 475 651 528 l 651 528 l 747 572 q 783 513 803 445 q 822 376 822 309 l 822 309 q 822 242 809 184 q 795 125 765 81 q 734 37 683 13 q 631 -12 555 -12 z"},"ര":{"ha":614,"x_min":35,"x_max":578,"o":"m 300 571 l 300 571 q 370 571 422 547 q 474 522 509 478 q 544 433 561 372 q 578 311 578 238 l 578 238 q 578 146 557 91 q 536 35 497 12 q 458 -12 403 -12 l 403 -12 q 345 -12 310 16 q 275 44 259 93 q 242 142 242 203 l 242 203 q 242 301 280 353 q 317 405 388 405 l 388 405 q 427 405 455 386 q 482 366 503 331 q 523 295 538 248 l 538 248 l 497 237 q 492 256 481 276 q 470 295 454 309 q 437 322 415 322 l 415 322 q 380 322 364 291 q 348 260 348 199 l 348 199 q 348 159 355 131 q 361 102 375 88 q 388 74 408 74 l 408 74 q 429 74 443 90 q 457 105 465 141 q 472 177 472 238 l 472 238 q 472 251 471 271 q 470 290 468 308 l 468 308 q 467 313 467 321 q 466 328 464 332 l 464 332 q 459 371 439 405 q 419 439 386 461 q 353 482 308 482 l 308 482 q 253 482 217 458 q 181 433 164 389 q 146 345 146 286 l 146 286 q 146 233 156 191 q 166 149 185 115 q 203 80 228 48 l 228 48 l 149 -11 q 117 24 91 68 q 65 112 50 168 q 35 223 35 292 l 35 292 q 35 350 51 400 q 67 450 100 489 q 132 527 182 549 q 232 571 300 571 z"},"റ":{"ha":554,"x_min":34,"x_max":520,"o":"m 279 571 l 279 571 q 344 571 390 549 q 435 527 464 488 q 493 448 507 398 q 520 347 520 290 l 520 290 q 520 221 506 167 q 491 113 465 70 q 439 26 405 -11 l 405 -11 l 324 49 q 347 77 366 111 q 385 145 396 188 q 407 231 407 288 l 407 288 q 407 348 391 392 q 375 436 347 459 q 318 482 281 482 l 281 482 q 240 482 210 459 q 180 436 164 393 q 147 349 147 289 l 147 289 q 147 236 157 194 q 167 151 186 116 q 204 81 229 49 l 229 49 l 148 -11 q 116 23 90 67 q 64 111 49 167 q 34 223 34 292 l 34 292 q 34 346 48 397 q 62 447 92 487 q 122 526 168 549 q 214 571 279 571 z"},"ല":{"ha":701,"x_min":53,"x_max":645,"o":"m 537 559 l 645 559 l 645 0 l 53 0 l 53 321 q 53 396 65 438 q 77 480 99 508 l 99 508 q 122 538 160 555 q 198 571 249 571 l 249 571 q 300 571 338 555 q 375 539 398 509 l 398 509 q 425 475 436 433 q 446 391 446 325 l 446 325 l 446 218 l 161 218 l 161 87 l 537 87 l 537 559 z m 249 484 l 249 484 q 201 484 181 445 q 161 406 161 332 l 161 332 l 161 305 l 337 305 l 337 332 q 337 408 317 446 q 296 484 249 484 z"},"ള":{"ha":599,"x_min":33,"x_max":568,"o":"m 321 483 l 321 483 q 286 483 254 476 q 221 468 195 453 q 168 437 151 416 q 133 395 126 367 l 126 367 q 126 363 128 360 q 130 356 129 350 l 129 350 q 128 343 126 331 q 124 318 124 301 l 124 301 q 124 252 137 227 q 150 201 176 201 l 176 201 q 197 201 207 222 q 216 242 216 273 l 216 273 q 216 296 212 312 q 207 328 197 337 q 187 345 171 345 l 171 345 q 150 345 135 336 q 119 327 102 312 l 102 312 l 46 332 q 65 356 90 376 q 114 396 141 409 q 168 422 196 422 l 196 422 q 240 422 267 403 q 294 383 307 350 q 319 317 319 274 l 319 274 q 319 231 305 196 q 290 161 259 141 q 228 120 180 120 l 180 120 q 136 120 103 142 q 70 163 52 205 q 33 247 33 310 l 33 310 q 33 364 51 411 q 68 458 104 495 q 140 531 197 551 q 253 571 333 571 l 333 571 q 404 571 456 551 q 507 531 535 494 q 563 456 563 403 l 563 403 q 563 362 545 334 q 526 305 492 288 q 457 271 407 264 l 407 264 l 364 303 l 364 323 l 368 323 q 386 323 403 328 q 420 332 433 344 l 433 344 q 443 352 448 365 q 452 378 452 395 l 452 395 q 452 424 438 443 q 424 462 395 473 q 365 483 321 483 z m 568 154 l 568 154 q 568 114 554 84 q 539 54 514 34 l 514 34 q 497 23 478 16 q 458 8 430 4 q 402 0 359 0 l 359 0 l 263 0 q 222 0 205 -2 q 187 -5 175 -11 l 175 -11 q 161 -18 155 -29 q 148 -40 148 -54 l 148 -54 q 148 -68 154 -79 q 159 -90 169 -97 l 169 -97 q 181 -104 202 -108 q 223 -112 262 -112 l 262 -112 l 544 -112 l 544 -201 l 258 -201 q 201 -201 161 -192 q 121 -184 97 -169 l 97 -169 q 69 -151 54 -123 q 38 -96 38 -59 l 38 -59 q 38 -23 53 7 q 67 37 98 56 l 98 56 q 114 67 134 74 q 153 80 183 84 q 213 87 256 87 l 256 87 l 346 87 q 382 87 402 91 q 422 95 435 105 l 435 105 q 446 114 452 128 q 458 142 458 161 l 458 161 q 458 180 452 195 q 445 210 431 219 l 431 219 q 421 228 405 232 q 389 236 362 236 l 362 236 l 364 236 l 364 311 l 457 292 q 506 275 537 241 q 568 207 568 154 z"},"ഴ":{"ha":560,"x_min":32,"x_max":528,"o":"m 215 419 l 215 419 q 215 489 257 530 q 298 571 371 571 l 371 571 q 427 571 462 546 q 496 521 512 482 q 528 443 528 401 l 528 401 q 528 329 502 274 q 475 219 424 187 q 373 155 301 155 l 301 155 l 283 155 q 202 155 146 186 q 89 216 61 271 q 32 325 32 397 l 32 397 q 32 442 44 485 q 56 528 81 571 l 81 571 l 173 530 q 158 498 150 467 q 141 435 141 398 l 141 398 q 141 343 159 307 q 177 271 209 254 q 241 236 281 236 l 281 236 l 303 236 q 342 236 368 257 q 394 277 407 314 q 420 351 420 400 l 420 400 q 420 438 408 463 q 396 488 369 488 l 369 488 q 355 488 344 479 q 332 470 326 453 q 319 435 319 412 l 319 412 q 319 376 330 342 q 341 307 355 274 q 369 240 380 204 q 391 168 391 129 l 391 129 q 391 95 378 63 q 364 30 332 9 q 300 -12 245 -12 l 245 -12 q 211 -12 176 -6 q 140 0 108 13 l 108 13 l 143 94 q 167 85 187 81 q 206 76 226 76 l 226 76 q 263 76 275 98 q 287 120 287 141 l 287 141 q 287 173 276 206 q 265 239 251 274 q 236 308 226 345 q 215 381 215 419 z"},"വ":{"ha":788,"x_min":34,"x_max":732,"o":"m 279 571 l 279 571 q 344 571 390 549 q 435 527 464 489 q 492 451 505 402 q 518 353 518 299 l 518 299 q 518 241 507 194 q 495 147 475 108 q 455 69 429 33 l 429 33 l 450 87 l 623 87 l 623 559 l 732 559 l 732 0 l 383 0 l 332 60 q 351 84 369 117 q 386 149 397 191 q 407 233 407 288 l 407 288 q 407 348 391 392 q 375 436 347 459 q 318 482 281 482 l 281 482 q 240 482 210 459 q 180 436 164 393 q 147 349 147 289 l 147 289 q 147 236 157 194 q 167 151 186 116 q 204 80 229 49 l 229 49 l 148 -11 q 116 23 90 67 q 64 111 49 167 q 34 223 34 292 l 34 292 q 34 346 48 397 q 62 447 92 487 q 122 526 168 549 q 214 571 279 571 z"},"ശ":{"ha":851,"x_min":35,"x_max":815,"o":"m 542 571 l 542 571 q 606 571 657 548 q 708 525 744 481 q 779 437 797 376 q 815 315 815 238 l 815 238 q 815 146 794 91 q 773 35 734 12 q 694 -12 639 -12 l 639 -12 q 582 -12 547 16 q 511 44 495 93 q 478 142 478 203 l 478 203 q 478 301 516 353 q 554 405 625 405 l 625 405 q 663 405 691 386 q 719 366 739 331 q 759 295 774 248 l 774 248 l 733 237 q 728 256 717 276 q 706 295 690 309 q 673 322 650 322 l 650 322 q 616 322 601 291 q 585 260 585 199 l 585 199 q 585 159 591 131 q 597 102 611 88 q 624 74 645 74 l 645 74 q 665 74 679 90 q 693 105 701 141 q 709 177 709 238 l 709 238 q 709 251 708 271 q 707 290 705 308 l 705 308 q 704 313 705 321 q 705 328 702 332 l 702 332 q 697 371 678 406 q 659 440 626 461 q 592 482 543 482 l 543 482 q 515 482 496 476 q 476 470 459 455 l 459 455 q 432 429 425 386 q 417 342 417 263 l 417 263 l 417 209 q 417 155 408 112 q 398 69 370 39 l 370 39 q 347 14 315 1 q 283 -12 237 -12 l 237 -12 q 173 -12 128 20 q 82 52 59 111 q 35 170 35 252 l 35 252 q 35 325 49 383 q 62 440 86 487 q 109 533 137 572 l 137 572 l 223 514 q 201 480 184 442 q 166 403 156 358 q 146 312 146 257 l 146 257 q 146 196 158 156 q 169 116 190 97 q 210 77 234 77 l 234 77 q 252 77 266 84 q 280 91 287 104 l 287 104 q 298 122 302 148 q 305 173 305 221 l 305 221 l 305 299 q 305 377 322 430 q 338 483 377 519 l 377 519 q 404 543 443 557 q 482 571 542 571 z"},"ഷ":{"ha":956,"x_min":29,"x_max":900,"o":"m 201 356 l 201 356 q 261 356 298 331 q 335 305 353 265 q 370 225 370 180 l 370 180 q 370 141 358 112 q 346 82 336 65 l 336 65 l 324 87 l 552 87 l 592 0 l 273 0 l 235 57 q 245 76 255 104 q 264 132 264 171 l 264 171 q 264 215 249 242 q 234 269 202 269 l 202 269 q 180 269 166 258 q 152 246 145 225 q 137 203 137 175 l 137 175 q 137 127 151 97 q 165 67 180 37 l 180 37 l 93 -10 q 65 31 47 76 q 29 120 29 178 l 29 178 q 29 232 50 272 q 71 311 110 334 q 149 356 201 356 z m 900 0 l 537 0 l 537 408 q 537 433 534 449 q 531 465 526 474 l 526 474 q 522 479 517 482 q 511 485 504 485 l 504 485 q 484 485 472 466 q 460 446 460 410 l 460 410 q 460 383 466 362 q 472 341 491 329 q 510 317 548 317 l 548 317 l 582 317 q 621 317 653 336 q 684 354 709 388 q 733 422 754 466 q 775 509 795 559 l 795 559 l 900 559 l 900 0 z m 507 571 l 507 571 q 540 571 564 562 q 588 553 604 535 l 604 535 q 624 514 633 483 q 642 452 642 400 l 642 400 l 642 87 l 792 87 l 792 302 q 792 327 793 346 q 794 365 796 382 q 797 398 798 412 l 798 412 l 801 403 q 777 344 743 306 q 708 268 669 251 q 629 234 587 234 l 587 234 l 544 234 q 480 234 439 258 q 397 281 378 321 q 358 361 358 412 l 358 412 q 358 453 375 489 q 391 525 424 548 q 457 571 507 571 z"},"സ":{"ha":984,"x_min":35,"x_max":949,"o":"m 500 571 l 500 571 q 543 571 574 558 q 605 545 627 522 l 627 522 q 645 503 656 480 q 666 457 671 426 q 676 395 676 352 l 676 352 l 676 228 q 676 171 680 145 q 684 119 694 103 l 694 103 q 702 90 716 84 q 729 77 748 77 l 748 77 q 775 77 795 97 q 815 116 827 156 q 838 196 838 257 l 838 257 q 838 312 829 358 q 819 403 802 442 q 784 480 761 514 l 761 514 l 847 572 q 876 533 899 487 q 922 440 936 383 q 949 325 949 252 l 949 252 q 949 170 925 111 q 900 52 855 20 q 809 -12 746 -12 l 746 -12 q 701 -12 669 1 q 636 14 613 38 l 613 38 q 596 58 586 83 q 576 108 572 139 q 567 170 567 205 l 567 205 l 567 349 q 567 390 564 414 q 561 438 550 455 l 550 455 q 542 469 528 476 q 513 482 494 482 l 494 482 q 478 482 464 476 q 449 469 442 457 l 442 457 q 430 441 425 415 q 420 388 420 341 l 420 341 l 420 0 l 311 0 l 311 332 q 311 391 306 421 q 301 450 285 466 l 285 466 q 276 475 264 479 q 251 483 241 483 l 241 483 q 213 483 192 462 q 170 440 158 400 q 146 359 146 300 l 146 300 q 146 249 156 205 q 165 161 183 122 q 200 83 224 48 l 224 48 l 137 -10 q 106 30 83 77 q 60 124 48 181 q 35 238 35 307 l 35 307 q 35 386 58 445 q 81 504 125 538 q 168 571 230 571 l 230 571 q 275 571 310 554 q 344 537 375 492 l 375 492 l 358 491 q 382 526 413 549 q 444 571 500 571 z"},"ഹ":{"ha":969,"x_min":29,"x_max":935,"o":"m 201 356 l 201 356 q 261 356 298 331 q 335 305 353 265 q 370 225 370 180 l 370 180 q 370 141 358 112 q 346 82 336 65 l 336 65 l 324 87 l 538 87 l 594 0 l 273 0 l 235 57 q 245 76 255 104 q 264 132 264 171 l 264 171 q 264 215 249 242 q 234 269 202 269 l 202 269 q 180 269 166 258 q 152 246 145 225 q 137 203 137 175 l 137 175 q 137 127 151 97 q 165 67 180 37 l 180 37 l 93 -10 q 65 31 47 76 q 29 120 29 178 l 29 178 q 29 232 50 272 q 71 311 110 334 q 149 356 201 356 z m 694 571 l 694 571 q 759 571 805 549 q 850 527 879 488 q 908 448 922 398 q 935 347 935 290 l 935 290 q 935 220 920 166 q 905 111 879 68 q 852 25 820 -11 l 820 -11 l 739 49 q 762 77 781 111 q 800 144 811 187 q 822 230 822 288 l 822 288 q 822 348 807 392 q 791 436 763 459 q 734 482 696 482 l 696 482 q 655 482 625 459 q 595 436 579 393 q 562 349 562 289 l 562 289 q 562 240 571 199 q 580 158 597 124 q 614 90 637 60 l 637 60 l 586 0 l 570 0 l 544 32 q 520 65 499 104 q 477 143 464 191 q 450 238 450 297 l 450 297 q 450 350 464 400 q 478 449 508 488 q 537 526 583 549 q 629 571 694 571 z"},"ഺ":{"ha":584,"x_min":19,"x_max":567,"o":"m 138 87 l 567 87 l 567 0 l 371 0 l 371 -202 l 263 -202 l 263 0 l 75 0 l 19 71 l 204 564 l 306 531 l 138 87 z"},"഻":{"ha":0,"x_min":-320,"x_max":-238,"o":"m -320 592 l -320 864 l -238 864 l -238 592 l -320 592 z"},"഼":{"ha":0,"x_min":-226,"x_max":13,"o":"m -226 726 l -226 726 q -226 787 -193 823 q -161 859 -107 859 l -107 859 q -53 859 -20 824 q 13 788 13 726 l 13 726 q 13 664 -19 628 q -52 592 -107 592 l -107 592 q -161 592 -193 628 q -226 663 -226 726 z m -147 727 l -147 727 q -147 698 -137 682 q -127 665 -107 665 l -107 665 q -86 665 -76 681 q -66 697 -66 726 l -66 726 q -66 754 -76 770 q -87 786 -107 786 l -107 786 q -126 786 -136 771 q -147 755 -147 727 z"},"ഽ":{"ha":403,"x_min":-58,"x_max":461,"o":"m 308 797 l 308 797 q 352 797 383 777 q 414 757 433 724 q 452 690 461 649 l 461 649 l 355 627 q 350 652 344 671 q 338 690 329 700 q 319 710 305 710 l 305 710 q 294 710 286 705 q 277 700 271 691 l 271 691 q 264 680 261 658 q 257 636 257 598 l 257 598 l 257 -20 q 257 -98 245 -141 q 233 -185 200 -211 l 200 -211 q 181 -226 156 -235 q 130 -244 95 -244 l 95 -244 q 51 -244 20 -224 q -11 -205 -30 -171 q -49 -137 -58 -95 l -58 -95 l 48 -73 q 52 -99 59 -118 q 65 -137 75 -147 q 85 -157 98 -157 l 98 -157 q 111 -157 119 -151 q 127 -146 132 -138 l 132 -138 q 140 -123 143 -100 q 146 -77 146 -42 l 146 -42 l 146 575 q 146 648 158 693 q 170 738 203 764 l 203 764 q 223 780 248 789 q 273 797 308 797 z"},"ാ":{"ha":431,"x_min":16,"x_max":394,"o":"m 394 281 l 394 281 q 394 213 385 159 q 375 105 353 67 q 331 28 295 8 q 259 -12 205 -12 l 205 -12 q 156 -12 122 5 q 88 21 67 48 q 45 75 33 109 q 21 143 16 178 l 16 178 l 125 199 q 130 171 139 142 q 147 113 163 94 q 178 74 204 74 l 204 74 q 232 74 249 98 q 266 121 274 167 q 282 213 282 282 l 282 282 q 282 349 274 394 q 266 439 250 462 q 233 485 205 485 l 205 485 q 183 485 167 468 q 151 451 142 423 q 133 395 127 362 l 127 362 l 19 383 q 27 418 41 452 q 54 485 76 513 q 98 540 131 556 q 164 571 212 571 l 212 571 q 264 571 299 550 q 334 529 355 491 q 375 453 385 400 q 394 346 394 281 z"},"ി":{"ha":221,"x_min":-187,"x_max":165,"o":"m -15 848 l -15 848 q 22 848 54 837 q 86 826 108 805 l 108 805 q 131 785 143 757 q 155 729 160 691 q 165 652 165 595 l 165 595 l 165 0 l 56 0 l 56 558 q 56 604 54 641 q 52 677 46 702 q 40 727 29 740 l 29 740 q 21 750 10 756 q -1 761 -17 761 l -17 761 q -33 761 -47 753 q -62 744 -70 728 q -78 711 -78 686 l -78 686 q -78 673 -76 660 q -75 647 -73 638 l -73 638 l -180 624 q -183 636 -185 653 q -187 669 -187 688 l -187 688 q -187 740 -164 776 q -141 811 -102 830 q -63 848 -15 848 z"},"ീ":{"ha":221,"x_min":-225,"x_max":165,"o":"m -63 848 l -63 848 q -10 848 29 833 q 67 818 98 790 l 98 790 q 138 752 152 697 q 165 641 165 553 l 165 553 l 165 0 l 56 0 l 56 530 q 56 593 52 636 q 48 678 38 706 q 27 733 9 751 l 9 751 q -9 764 -29 770 q -49 775 -77 775 l -77 775 q -92 775 -107 769 q -123 763 -133 749 q -143 735 -143 710 l -143 710 q -143 682 -132 670 q -121 657 -103 657 l -103 657 q -81 657 -72 672 q -63 686 -63 711 l -63 711 q -63 735 -73 757 q -83 778 -99 793 l -99 793 l -12 782 q -2 771 6 752 q 13 732 13 705 l 13 705 q 13 670 1 642 q -11 613 -37 597 q -63 581 -104 581 l -104 581 q -139 581 -167 596 q -195 610 -210 639 q -225 667 -225 709 l -225 709 q -225 749 -207 780 q -189 811 -153 830 q -118 848 -63 848 z"},"ു":{"ha":291,"x_min":-19,"x_max":297,"o":"m 139 -232 l 139 -232 q 66 -232 24 -184 q -19 -136 -19 -53 l -19 -53 q -19 3 1 43 q 20 83 55 104 q 90 125 138 125 l 138 125 q 187 125 223 105 q 258 84 278 44 q 297 4 297 -53 l 297 -53 q 297 -109 277 -149 q 257 -190 222 -211 q 186 -232 139 -232 z m 139 -152 l 139 -152 q 167 -152 183 -127 q 199 -103 199 -53 l 199 -53 q 199 -4 184 20 q 168 44 139 44 l 139 44 q 111 44 95 20 q 79 -4 79 -54 l 79 -54 q 79 -104 96 -128 q 112 -152 139 -152 z m 109 571 l 109 571 q 160 571 190 548 q 220 525 233 489 q 246 452 246 410 l 246 410 q 246 339 231 261 q 216 182 194 93 l 194 93 l 93 108 q 112 188 124 260 q 135 332 135 394 l 135 394 q 135 435 123 459 q 111 482 78 482 l 78 482 q 67 482 55 480 q 43 478 33 475 l 33 475 l 15 559 q 32 563 55 567 q 77 571 109 571 z"},"ൂ":{"ha":291,"x_min":-19,"x_max":297,"o":"m 140 -232 l 140 -232 q 66 -232 24 -184 q -19 -136 -19 -53 l -19 -53 q -19 3 1 43 q 20 83 55 104 q 90 125 138 125 l 138 125 q 187 125 223 105 q 258 84 278 44 q 297 4 297 -53 l 297 -53 q 297 -109 277 -149 q 257 -190 222 -211 q 187 -232 140 -232 z m 139 49 l 139 49 q 107 49 86 25 q 65 1 65 -54 l 65 -54 q 65 -107 86 -130 q 106 -154 140 -154 l 140 -154 q 173 -154 194 -130 q 214 -107 214 -55 l 214 -55 q 214 0 194 25 q 174 49 139 49 z m 139 -97 l 139 -97 q 92 -97 71 -67 q 49 -37 49 12 l 49 12 q 49 34 58 55 q 67 76 83 99 l 83 99 l 125 71 q 109 61 99 49 q 89 36 89 20 l 89 20 q 89 6 95 -4 q 101 -14 112 -19 q 123 -25 139 -25 l 139 -25 q 156 -25 168 -19 q 179 -13 184 -3 q 189 7 189 19 l 189 19 q 189 36 181 49 q 173 61 156 69 l 156 69 l 199 99 q 216 74 223 54 q 229 34 229 14 l 229 14 q 229 -15 221 -40 q 213 -65 194 -81 q 174 -97 139 -97 z m 110 571 l 110 571 q 161 571 191 548 q 220 525 233 489 q 246 452 246 410 l 246 410 q 246 339 231 261 q 216 182 194 93 l 194 93 l 93 107 q 112 188 124 260 q 135 332 135 394 l 135 394 q 135 435 123 459 q 111 482 78 482 l 78 482 q 67 482 55 480 q 43 478 33 475 l 33 475 l 15 559 q 32 563 55 567 q 78 571 110 571 z"},"ൃ":{"ha":230,"x_min":-126,"x_max":228,"o":"m 39 -327 l 39 -327 q -12 -327 -49 -309 q -86 -292 -106 -257 q -126 -222 -126 -171 l -126 -171 q -126 -107 -87 -66 q -48 -26 31 -26 l 31 -26 q 60 -26 96 -38 q 132 -50 171 -84 l 171 -84 l 146 -161 q 118 -135 92 -123 q 65 -111 36 -111 l 36 -111 q 10 -111 -6 -126 q -23 -142 -23 -175 l -23 -175 q -23 -206 -7 -223 q 9 -240 37 -240 l 37 -240 q 65 -240 84 -227 q 102 -215 112 -189 q 121 -164 121 -123 l 121 -123 q 121 -96 117 -68 q 112 -41 103 -5 q 93 30 77 81 l 77 81 q 62 131 49 187 q 36 243 36 306 l 36 306 q 36 374 53 437 q 69 500 94 559 l 94 559 l 207 559 q 186 509 172 468 q 158 427 152 390 q 145 352 145 310 l 145 310 q 145 258 155 214 q 164 169 182 112 l 182 112 q 198 60 208 20 q 218 -20 223 -54 q 228 -89 228 -122 l 228 -122 q 228 -196 203 -241 q 177 -286 134 -306 q 91 -327 39 -327 z"},"ൄ":{"ha":230,"x_min":-233,"x_max":228,"o":"m -21 -327 l -21 -327 q -89 -327 -137 -306 q -185 -285 -209 -245 q -233 -205 -233 -150 l -233 -150 q -233 -95 -203 -62 q -174 -30 -127 -30 l -127 -30 q -99 -30 -81 -44 q -63 -58 -52 -79 l -52 -79 l -63 -76 q -51 -54 -32 -42 q -13 -30 10 -30 l 10 -30 q 36 -30 53 -40 q 69 -50 79 -66 q 88 -82 91 -101 q 94 -121 94 -140 l 94 -140 l 94 -175 l 27 -175 l 27 -157 q 27 -134 22 -120 q 17 -107 2 -107 l 2 -107 q -14 -107 -19 -119 q -25 -132 -25 -154 l -25 -154 l -25 -175 l -93 -175 l -93 -154 q -93 -133 -98 -120 q -104 -107 -117 -107 l -117 -107 q -129 -107 -137 -118 q -145 -129 -145 -149 l -145 -149 q -145 -191 -114 -215 q -84 -240 -23 -240 l -23 -240 q 41 -240 80 -210 q 118 -181 118 -120 l 118 -120 q 118 -92 114 -66 q 110 -40 101 -5 q 91 30 76 81 l 76 81 q 63 129 50 185 q 36 240 36 306 l 36 306 q 36 374 53 437 q 69 500 94 559 l 94 559 l 207 559 q 186 509 172 468 q 158 427 152 390 q 145 352 145 310 l 145 310 q 145 258 155 214 q 164 169 180 114 l 180 114 q 198 60 209 21 q 219 -18 224 -51 q 228 -84 228 -122 l 228 -122 q 228 -187 198 -232 q 167 -278 111 -302 q 54 -327 -21 -327 z"},"െ":{"ha":591,"x_min":36,"x_max":556,"o":"m 203 -12 l 203 -12 q 158 -12 120 13 q 82 37 59 91 q 36 145 36 237 l 36 237 q 36 314 55 376 q 74 437 110 481 q 146 525 197 548 q 247 571 310 571 l 310 571 q 372 571 419 550 q 465 528 496 490 q 526 451 541 400 q 556 349 556 289 l 556 289 q 556 220 541 166 q 525 111 500 69 q 474 26 440 -11 l 440 -11 l 361 49 q 384 77 403 110 q 422 143 433 186 q 444 228 444 284 l 444 284 q 444 346 428 391 q 412 435 381 459 q 349 482 303 482 l 303 482 q 253 482 215 451 q 177 419 156 363 q 135 307 135 233 l 135 233 q 135 170 144 136 q 152 101 167 88 q 181 74 198 74 l 198 74 q 213 74 224 83 q 234 92 240 111 q 245 130 245 162 l 245 162 q 245 212 232 233 q 219 254 190 254 l 190 254 q 166 254 144 239 q 121 223 97 189 l 97 189 l 78 266 q 99 292 136 315 q 173 337 217 337 l 217 337 q 261 337 291 318 q 320 298 335 261 q 350 223 350 169 l 350 169 q 350 109 333 70 q 315 30 283 9 q 250 -12 203 -12 z"},"േ":{"ha":501,"x_min":34,"x_max":471,"o":"m 293 -12 l 293 -12 q 239 -12 192 5 q 144 22 109 59 q 73 95 54 151 q 34 207 34 283 l 34 283 q 34 357 56 412 q 77 466 114 501 q 150 536 199 554 q 248 571 304 571 l 304 571 q 365 571 402 551 q 439 531 455 498 q 471 464 471 424 l 471 424 q 471 382 455 353 q 439 324 411 309 q 382 293 345 293 l 345 293 q 299 293 271 310 q 242 327 230 357 q 217 386 217 421 l 217 421 q 217 444 224 467 q 231 489 240 502 l 240 502 l 331 511 q 317 497 309 474 q 301 451 301 425 l 301 425 q 301 401 309 386 q 317 370 339 370 l 339 370 q 360 370 369 384 q 378 397 378 422 l 378 422 q 378 454 362 471 q 346 488 319 488 l 319 488 q 306 488 292 488 q 277 488 270 487 l 270 487 q 232 486 203 461 q 174 435 158 390 q 141 345 141 282 l 141 282 q 141 222 155 176 q 169 130 196 104 q 223 77 259 72 l 259 72 q 271 71 286 71 q 301 71 310 71 l 310 71 q 332 71 346 79 q 359 86 366 101 q 373 115 373 137 l 373 137 q 373 162 365 176 q 356 190 337 190 l 337 190 q 315 190 305 174 q 295 158 295 133 l 295 133 q 295 105 304 83 q 313 61 328 47 l 328 47 l 234 58 q 225 72 219 95 q 212 117 212 141 l 212 141 q 212 172 224 202 q 236 231 264 250 q 292 268 339 268 l 339 268 q 376 268 405 253 q 433 237 450 208 q 466 179 466 135 l 466 135 q 466 95 449 61 q 432 27 394 8 q 355 -12 293 -12 z"},"ൈ":{"ha":1180,"x_min":36,"x_max":1145,"o":"m 203 -12 l 203 -12 q 158 -12 120 13 q 82 37 59 91 q 36 145 36 237 l 36 237 q 36 314 55 376 q 74 437 110 481 q 146 525 197 548 q 247 571 310 571 l 310 571 q 372 571 419 550 q 465 528 496 490 q 526 451 541 400 q 556 349 556 289 l 556 289 q 556 220 541 166 q 525 111 500 69 q 474 26 440 -11 l 440 -11 l 361 49 q 384 77 403 110 q 422 143 433 186 q 444 228 444 284 l 444 284 q 444 346 428 391 q 412 435 381 459 q 349 482 303 482 l 303 482 q 253 482 215 451 q 177 419 156 363 q 135 307 135 233 l 135 233 q 135 170 144 136 q 152 101 167 88 q 181 74 198 74 l 198 74 q 213 74 224 83 q 234 92 240 111 q 245 130 245 162 l 245 162 q 245 212 232 233 q 219 254 190 254 l 190 254 q 166 254 144 239 q 121 223 97 189 l 97 189 l 78 266 q 99 292 136 315 q 173 337 217 337 l 217 337 q 261 337 291 318 q 320 298 335 261 q 350 223 350 169 l 350 169 q 350 109 333 70 q 315 30 283 9 q 250 -12 203 -12 z m 792 -12 l 792 -12 q 747 -12 709 13 q 671 37 648 91 q 625 145 625 237 l 625 237 q 625 314 644 376 q 663 437 699 481 q 735 525 786 548 q 836 571 899 571 l 899 571 q 961 571 1008 550 q 1054 528 1085 490 q 1115 451 1130 400 q 1145 349 1145 289 l 1145 289 q 1145 220 1130 166 q 1114 111 1089 69 q 1063 26 1029 -11 l 1029 -11 l 950 49 q 973 77 992 110 q 1011 143 1022 186 q 1033 228 1033 284 l 1033 284 q 1033 346 1017 391 q 1001 435 970 459 q 938 482 892 482 l 892 482 q 842 482 804 451 q 766 419 745 363 q 724 307 724 233 l 724 233 q 724 170 733 136 q 741 101 756 88 q 770 74 787 74 l 787 74 q 802 74 813 83 q 823 92 829 111 q 834 130 834 162 l 834 162 q 834 212 821 233 q 808 254 779 254 l 779 254 q 755 254 733 239 q 710 223 686 189 l 686 189 l 667 266 q 688 292 725 315 q 762 337 806 337 l 806 337 q 850 337 880 318 q 909 298 924 261 q 939 223 939 169 l 939 169 q 939 109 922 70 q 904 30 872 9 q 839 -12 792 -12 z"},"ൊ":{"ha":1180,"x_min":36,"x_max":1142,"o":"m 203 -12 l 203 -12 q 158 -12 120 13 q 82 37 59 91 q 36 145 36 237 l 36 237 q 36 314 55 376 q 74 437 110 481 q 146 525 197 548 q 247 571 310 571 l 310 571 q 372 571 419 550 q 465 528 496 490 q 526 451 541 400 q 556 349 556 289 l 556 289 q 556 220 541 166 q 525 111 500 69 q 474 26 440 -11 l 440 -11 l 361 49 q 384 77 403 110 q 422 143 433 186 q 444 228 444 284 l 444 284 q 444 346 428 391 q 412 435 381 459 q 349 482 303 482 l 303 482 q 253 482 215 451 q 177 419 156 363 q 135 307 135 233 l 135 233 q 135 170 144 136 q 152 101 167 88 q 181 74 198 74 l 198 74 q 213 74 224 83 q 234 92 240 111 q 245 130 245 162 l 245 162 q 245 212 232 233 q 219 254 190 254 l 190 254 q 166 254 144 239 q 121 223 97 189 l 97 189 l 78 266 q 99 292 136 315 q 173 337 217 337 l 217 337 q 261 337 291 318 q 320 298 335 261 q 350 223 350 169 l 350 169 q 350 109 333 70 q 315 30 283 9 q 250 -12 203 -12 z m 678 222 l 678 222 q 646 222 628 242 q 610 261 610 297 l 610 297 q 610 334 628 353 q 645 372 678 372 l 678 372 q 711 372 729 354 q 746 335 746 297 l 746 297 q 746 260 728 241 q 710 222 678 222 z m 1143 281 l 1143 281 q 1143 213 1134 159 q 1124 105 1102 67 q 1080 28 1044 8 q 1008 -12 954 -12 l 954 -12 q 905 -12 871 5 q 837 21 816 48 q 794 75 782 109 q 770 143 765 178 l 765 178 l 874 199 q 879 171 888 142 q 896 113 912 94 q 927 74 953 74 l 953 74 q 981 74 998 98 q 1015 121 1023 167 q 1031 213 1031 282 l 1031 282 q 1031 349 1023 394 q 1015 439 999 462 q 982 485 954 485 l 954 485 q 932 485 916 468 q 900 451 891 423 q 882 395 876 362 l 876 362 l 768 383 q 776 418 790 452 q 803 485 825 513 q 847 540 880 556 q 913 571 961 571 l 961 571 q 1013 571 1048 550 q 1083 529 1104 491 q 1124 453 1134 400 q 1143 346 1143 281 z"},"ോ":{"ha":1073,"x_min":34,"x_max":1035,"o":"m 293 -12 l 293 -12 q 239 -12 192 5 q 144 22 109 59 q 73 95 54 151 q 34 207 34 283 l 34 283 q 34 357 56 412 q 77 466 114 501 q 150 536 199 554 q 248 571 304 571 l 304 571 q 365 571 402 551 q 439 531 455 498 q 471 464 471 424 l 471 424 q 471 382 455 353 q 439 324 411 309 q 382 293 345 293 l 345 293 q 299 293 271 310 q 242 327 230 357 q 217 386 217 421 l 217 421 q 217 444 224 467 q 231 489 240 502 l 240 502 l 331 511 q 317 497 309 474 q 301 451 301 425 l 301 425 q 301 401 309 386 q 317 370 339 370 l 339 370 q 360 370 369 384 q 378 397 378 422 l 378 422 q 378 454 362 471 q 346 488 319 488 l 319 488 q 306 488 292 488 q 277 488 270 487 l 270 487 q 232 486 203 461 q 174 435 158 390 q 141 345 141 282 l 141 282 q 141 222 155 176 q 169 130 196 104 q 223 77 259 72 l 259 72 q 271 71 286 71 q 301 71 310 71 l 310 71 q 332 71 346 79 q 359 86 366 101 q 373 115 373 137 l 373 137 q 373 162 365 176 q 356 190 337 190 l 337 190 q 315 190 305 174 q 295 158 295 133 l 295 133 q 295 105 304 83 q 313 61 328 47 l 328 47 l 234 58 q 225 72 219 95 q 212 117 212 141 l 212 141 q 212 172 224 202 q 236 231 264 250 q 292 268 339 268 l 339 268 q 376 268 405 253 q 433 237 450 208 q 466 179 466 135 l 466 135 q 466 95 449 61 q 432 27 394 8 q 355 -12 293 -12 z m 571 222 l 571 222 q 539 222 521 242 q 503 261 503 297 l 503 297 q 503 334 521 353 q 538 372 571 372 l 571 372 q 604 372 622 354 q 639 335 639 297 l 639 297 q 639 260 621 241 q 603 222 571 222 z m 1036 281 l 1036 281 q 1036 213 1027 159 q 1017 105 995 67 q 973 28 937 8 q 901 -12 847 -12 l 847 -12 q 798 -12 764 5 q 730 21 709 48 q 687 75 675 109 q 663 143 658 178 l 658 178 l 767 199 q 772 171 781 142 q 789 113 805 94 q 820 74 846 74 l 846 74 q 874 74 891 98 q 908 121 916 167 q 924 213 924 282 l 924 282 q 924 349 916 394 q 908 439 892 462 q 875 485 847 485 l 847 485 q 825 485 809 468 q 793 451 784 423 q 775 395 769 362 l 769 362 l 661 383 q 669 418 683 452 q 696 485 718 513 q 740 540 773 556 q 806 571 854 571 l 854 571 q 906 571 941 550 q 976 529 997 491 q 1017 453 1027 400 q 1036 346 1036 281 z"},"ൌ":{"ha":1385,"x_min":36,"x_max":1349,"o":"m 203 -12 l 203 -12 q 158 -12 120 13 q 82 37 59 91 q 36 145 36 237 l 36 237 q 36 314 55 376 q 74 437 110 481 q 146 525 197 548 q 247 571 310 571 l 310 571 q 372 571 419 550 q 465 528 496 490 q 526 451 541 400 q 556 349 556 289 l 556 289 q 556 220 541 166 q 525 111 500 69 q 474 26 440 -11 l 440 -11 l 361 49 q 384 77 403 110 q 422 143 433 186 q 444 228 444 284 l 444 284 q 444 346 428 391 q 412 435 381 459 q 349 482 303 482 l 303 482 q 253 482 215 451 q 177 419 156 363 q 135 307 135 233 l 135 233 q 135 170 144 136 q 152 101 167 88 q 181 74 198 74 l 198 74 q 213 74 224 83 q 234 92 240 111 q 245 130 245 162 l 245 162 q 245 212 232 233 q 219 254 190 254 l 190 254 q 166 254 144 239 q 121 223 97 189 l 97 189 l 78 266 q 99 292 136 315 q 173 337 217 337 l 217 337 q 261 337 291 318 q 320 298 335 261 q 350 223 350 169 l 350 169 q 350 109 333 70 q 315 30 283 9 q 250 -12 203 -12 z m 679 222 l 679 222 q 647 222 629 242 q 611 261 611 297 l 611 297 q 611 334 629 353 q 646 372 679 372 l 679 372 q 712 372 730 354 q 747 335 747 297 l 747 297 q 747 260 729 241 q 711 222 679 222 z m 1179 571 l 1179 571 q 1234 571 1272 541 q 1310 510 1330 452 q 1350 394 1350 310 l 1350 310 q 1350 199 1322 128 q 1293 57 1238 23 q 1183 -12 1100 -12 l 1100 -12 q 1055 -12 1011 -3 q 966 6 924 29 l 924 29 l 969 111 q 995 99 1027 90 q 1058 80 1091 80 l 1091 80 q 1146 80 1179 105 q 1211 130 1225 180 q 1239 230 1239 307 l 1239 307 q 1239 397 1220 440 q 1200 483 1169 483 l 1169 483 q 1157 483 1150 479 q 1143 474 1137 466 l 1137 466 q 1129 454 1126 435 q 1122 416 1122 371 l 1122 371 l 1122 263 l 1014 263 l 1014 355 q 1014 402 1011 424 q 1008 446 1002 459 l 1002 459 q 996 472 985 478 q 974 483 962 483 l 962 483 q 933 483 918 456 q 903 429 903 392 l 903 392 q 903 360 908 332 q 912 303 917 282 l 917 282 l 813 259 q 805 289 800 324 q 794 359 794 394 l 794 394 q 794 441 811 481 q 827 520 861 546 q 895 571 949 571 l 949 571 q 992 571 1022 555 q 1051 539 1072 506 l 1072 506 l 1057 507 q 1080 542 1109 557 q 1137 571 1179 571 z"},"്":{"ha":0,"x_min":-248,"x_max":60,"o":"m -94 594 l -94 594 q -148 594 -182 615 q -216 635 -232 671 q -248 707 -248 753 l -248 753 q -248 776 -244 795 q -241 813 -236 826 l -236 826 l -142 811 q -145 799 -147 785 q -149 771 -149 757 l -149 757 q -149 727 -142 710 q -135 692 -122 685 q -110 677 -92 677 l -92 677 q -75 677 -62 685 q -50 692 -43 710 q -36 727 -36 758 l -36 758 q -36 772 -38 786 q -40 800 -42 811 l -42 811 l 49 826 q 54 814 57 796 q 60 777 60 754 l 60 754 q 60 708 45 672 q 29 635 -5 615 q -39 594 -94 594 z"},"ൎ":{"ha":0,"x_min":-332,"x_max":-211,"o":"m -332 822 l -211 822 l -219 634 l -325 634 l -332 822 z"},"൏":{"ha":1026,"x_min":42,"x_max":987,"o":"m 490 571 l 490 571 q 555 571 597 547 q 639 523 675 474 l 675 474 l 643 486 q 671 532 708 552 q 744 571 788 571 l 788 571 q 849 571 894 535 q 938 499 963 426 q 987 352 987 241 l 987 241 q 987 86 939 -21 q 891 -129 788 -184 q 685 -239 518 -239 l 518 -239 q 409 -239 329 -214 q 248 -189 193 -144 q 138 -99 105 -39 q 71 21 57 92 q 42 162 42 237 l 42 237 q 42 307 58 386 q 73 464 104 548 l 104 548 l 199 515 q 172 447 159 374 q 145 301 145 236 l 145 236 q 145 176 156 121 q 166 65 190 17 q 214 -32 257 -68 q 299 -104 364 -124 q 429 -145 519 -145 l 519 -145 q 626 -145 696 -118 q 765 -92 804 -41 q 843 9 859 81 q 875 152 875 243 l 875 243 q 875 324 864 378 q 852 431 831 457 q 810 483 780 483 l 780 483 q 767 483 757 479 q 747 474 738 467 l 738 467 q 723 453 717 424 q 711 395 711 345 l 711 345 l 711 0 l 602 0 l 602 305 q 602 370 595 402 q 587 434 570 452 l 570 452 q 558 466 540 474 q 521 482 491 482 l 491 482 q 444 482 407 455 q 370 428 348 375 q 326 322 326 246 l 326 246 l 326 228 q 326 167 335 134 q 343 100 358 87 q 372 74 389 74 l 389 74 q 404 74 415 83 q 425 92 431 112 q 436 131 436 163 l 436 163 q 436 213 423 234 q 410 254 382 254 l 382 254 q 357 254 335 239 q 312 223 288 189 l 288 189 l 269 266 q 291 292 328 315 q 365 337 410 337 l 410 337 q 453 337 482 318 q 511 298 526 261 q 541 223 541 169 l 541 169 q 541 108 524 68 q 506 28 473 8 q 440 -12 393 -12 l 393 -12 q 349 -12 311 13 q 273 37 250 93 q 227 148 227 242 l 227 242 q 227 354 261 427 q 295 500 355 536 q 415 571 490 571 z"},"ൔ":{"ha":529,"x_min":50,"x_max":516,"o":"m 147 797 l 147 797 q 180 797 205 788 q 230 778 243 762 l 243 762 q 262 741 270 713 q 277 685 277 640 l 277 640 l 277 524 q 277 481 281 444 q 284 406 301 367 q 317 328 352 281 l 352 281 l 367 260 q 393 225 432 179 q 470 133 516 80 l 516 80 l 477 0 l 50 0 l 50 273 q 50 331 57 373 q 63 415 77 446 q 90 477 112 500 l 112 500 q 143 533 186 552 q 228 570 280 570 l 280 570 q 332 570 372 547 q 411 524 434 481 q 456 438 456 378 l 456 378 q 456 321 432 278 q 408 235 377 197 l 377 197 l 358 178 q 339 155 321 134 q 302 113 285 94 q 267 75 248 57 l 248 57 l 254 85 q 275 86 294 87 q 312 88 319 88 l 319 88 l 338 88 q 340 88 354 88 q 367 87 384 87 q 400 86 411 84 l 411 84 l 411 62 q 383 96 358 125 q 333 154 312 181 l 312 181 l 284 217 q 238 274 216 323 q 193 371 186 421 q 178 471 178 534 l 178 534 l 178 625 q 178 654 174 669 q 169 684 160 692 l 160 692 q 155 699 144 703 q 133 706 119 706 l 119 706 q 106 706 93 704 q 80 702 69 699 l 69 699 l 50 783 q 69 790 94 794 q 119 797 147 797 z m 157 271 l 157 63 l 138 62 q 165 90 195 121 q 224 152 252 187 q 279 221 300 259 l 300 259 l 321 290 q 333 313 342 337 q 350 360 350 387 l 350 387 q 350 417 339 440 q 328 462 308 474 q 288 486 258 486 l 258 486 q 227 486 207 468 q 186 450 175 420 l 175 420 q 169 403 165 384 q 161 365 159 338 q 157 311 157 271 l 157 271 z"},"ൕ":{"ha":856,"x_min":36,"x_max":824,"o":"m 564 -12 l 564 -12 q 526 -12 498 -7 q 469 -2 446 8 q 422 18 397 33 l 397 33 q 392 37 387 44 q 382 51 378 56 l 378 56 q 333 93 307 142 q 281 190 270 243 q 259 296 259 347 l 259 347 q 259 381 264 413 q 269 444 280 470 l 280 470 l 297 492 q 313 521 335 539 q 357 556 384 564 q 411 571 439 571 l 439 571 q 524 571 570 515 q 616 458 616 347 l 616 347 q 616 282 602 227 q 587 172 558 128 q 529 83 486 48 l 486 48 q 480 43 473 38 q 466 32 459 27 l 459 27 q 428 8 392 -2 q 356 -12 307 -12 l 307 -12 q 239 -12 188 14 q 137 39 104 85 q 70 130 53 192 q 36 253 36 326 l 36 326 q 36 402 58 457 q 79 512 122 542 q 165 571 228 571 l 228 571 q 274 571 311 552 q 347 532 380 492 l 380 492 l 299 440 q 284 465 267 475 q 249 484 233 484 l 233 484 q 205 484 186 467 q 166 449 157 415 q 147 380 147 328 l 147 328 q 147 244 169 187 q 190 130 227 102 q 264 73 312 73 l 312 73 q 338 73 356 77 q 374 80 389 88 l 389 88 q 396 91 402 93 q 407 95 413 99 l 413 99 q 443 123 464 163 q 485 203 495 251 q 505 299 505 345 l 505 345 q 505 400 495 430 q 485 460 470 472 q 455 484 438 484 l 438 484 q 417 484 401 471 q 385 457 377 427 q 369 396 369 347 l 369 347 q 369 305 378 259 q 386 212 404 172 q 422 131 450 105 l 450 105 q 456 101 461 98 q 466 95 471 92 l 471 92 q 485 83 506 78 q 527 73 557 73 l 557 73 q 609 73 644 93 q 678 113 696 149 q 713 184 713 231 l 713 231 q 713 267 707 300 q 700 333 685 370 q 670 407 646 454 l 646 454 q 627 497 611 531 q 595 565 586 596 q 577 627 577 661 l 577 661 q 577 693 590 725 q 603 756 634 777 q 665 797 720 797 l 720 797 q 750 797 773 793 q 795 788 807 783 l 807 783 l 790 698 q 778 702 767 704 q 756 706 740 706 l 740 706 q 711 706 698 690 q 685 674 685 651 l 685 651 q 685 631 690 612 q 694 593 707 566 q 719 538 742 492 l 742 492 q 768 440 787 396 q 805 352 815 312 q 824 272 824 230 l 824 230 q 824 194 815 159 q 806 123 788 93 q 769 62 739 39 q 709 15 666 2 q 622 -12 564 -12 z"},"ൖ":{"ha":625,"x_min":32,"x_max":594,"o":"m 210 172 l 210 172 q 210 147 217 125 q 224 103 242 90 q 260 77 290 77 l 290 77 q 325 77 339 97 q 353 116 353 145 l 353 145 q 353 178 344 208 q 335 237 322 268 q 309 299 300 336 q 291 373 291 417 l 291 417 q 291 462 308 497 q 325 531 358 551 q 391 571 437 571 l 437 571 q 492 571 527 547 q 561 522 578 483 q 594 443 594 403 l 594 403 q 594 331 568 276 q 541 220 487 188 q 433 156 350 156 l 350 156 l 321 156 q 281 156 249 162 q 216 168 183 183 l 183 183 l 150 192 q 115 212 89 242 q 62 271 47 311 q 32 350 32 397 l 32 397 q 32 442 44 486 q 56 529 81 572 l 81 572 l 173 530 q 159 498 151 466 q 142 433 142 399 l 142 399 q 142 366 150 338 q 157 310 165 290 l 165 290 l 200 269 q 221 254 253 245 q 285 236 316 236 l 316 236 l 355 236 q 400 236 429 257 q 457 277 472 314 q 486 351 486 400 l 486 400 q 486 438 474 463 q 462 488 435 488 l 435 488 q 420 488 409 479 q 398 470 392 453 q 385 435 385 412 l 385 412 q 385 375 396 341 q 407 306 421 272 q 435 238 446 204 q 456 169 456 132 l 456 132 q 456 107 449 82 q 441 56 423 35 q 404 14 373 1 q 341 -12 292 -12 l 292 -12 q 239 -12 199 7 q 158 26 135 67 q 112 107 112 173 l 112 173 q 112 210 123 253 q 134 295 154 345 q 173 394 195 452 l 195 452 q 217 502 231 538 q 244 573 250 600 q 256 627 256 651 l 256 651 q 256 677 242 692 q 227 706 198 706 l 198 706 q 189 706 176 705 q 162 703 151 699 l 151 699 l 132 784 q 150 791 178 794 q 206 797 233 797 l 233 797 q 287 797 315 777 q 343 756 353 728 q 363 699 363 674 l 363 674 q 363 651 358 625 q 353 599 343 569 q 333 539 317 501 q 300 462 279 411 l 279 411 q 254 351 240 313 q 225 275 219 250 q 213 225 212 208 q 210 190 210 172 z"},"ൗ":{"ha":620,"x_min":29,"x_max":585,"o":"m 414 571 l 414 571 q 469 571 507 541 q 545 510 565 452 q 585 394 585 310 l 585 310 q 585 199 557 128 q 528 57 473 23 q 418 -12 335 -12 l 335 -12 q 290 -12 246 -3 q 201 6 159 29 l 159 29 l 204 111 q 230 99 262 90 q 293 80 326 80 l 326 80 q 381 80 414 105 q 446 130 460 180 q 474 230 474 307 l 474 307 q 474 397 455 440 q 435 483 404 483 l 404 483 q 392 483 385 479 q 378 474 372 466 l 372 466 q 364 454 361 435 q 357 416 357 371 l 357 371 l 357 263 l 249 263 l 249 355 q 249 402 246 424 q 243 446 237 459 l 237 459 q 231 472 220 478 q 209 483 197 483 l 197 483 q 168 483 153 456 q 138 429 138 392 l 138 392 q 138 360 143 332 q 147 303 152 282 l 152 282 l 48 259 q 40 289 35 324 q 29 359 29 394 l 29 394 q 29 441 46 481 q 62 520 96 546 q 130 571 184 571 l 184 571 q 227 571 257 555 q 286 539 307 506 l 307 506 l 292 507 q 315 542 344 557 q 372 571 414 571 z"},"൘":{"ha":982,"x_min":34,"x_max":942,"o":"m 486 -12 l 486 -12 q 444 -12 411 7 q 377 26 348 70 l 348 70 l 365 65 q 339 27 308 8 q 277 -12 229 -12 l 229 -12 q 166 -12 123 23 q 79 58 57 118 q 34 178 34 256 l 34 256 q 34 324 47 379 q 60 434 84 481 q 107 528 136 569 l 136 569 l 222 511 q 199 479 182 440 q 164 401 155 357 q 145 312 145 260 l 145 260 q 145 198 158 157 q 171 116 192 96 q 213 76 238 76 l 238 76 q 253 76 263 82 q 273 87 280 94 l 280 94 q 294 112 299 137 q 303 161 303 209 l 303 209 l 303 559 l 411 559 l 411 223 q 411 176 416 149 q 421 122 433 103 l 433 103 q 443 90 456 83 q 469 76 487 76 l 487 76 q 507 76 520 84 q 532 91 541 103 l 541 103 q 553 121 557 148 q 560 174 560 219 l 560 219 l 560 559 l 669 559 l 669 247 l 621 64 q 596 26 564 7 q 532 -12 486 -12 z m 750 -12 l 750 -12 q 702 -12 668 7 q 633 26 606 68 l 606 68 l 568 232 l 568 549 l 669 549 l 669 230 q 669 176 675 144 q 680 111 697 92 l 697 92 q 705 84 716 80 q 726 76 740 76 l 740 76 q 769 76 790 104 q 810 131 821 185 q 831 238 831 316 l 831 316 q 831 402 820 472 q 808 541 784 595 q 760 648 722 684 q 684 720 632 738 q 580 755 512 755 l 512 755 q 464 755 415 749 q 366 742 323 732 l 323 732 l 308 821 q 346 831 378 837 q 409 842 442 845 q 475 847 517 847 l 517 847 q 607 847 677 824 q 746 801 796 757 q 846 713 879 649 q 911 585 927 502 q 942 419 942 320 l 942 320 q 942 207 921 134 q 899 60 856 24 q 812 -12 750 -12 z"},"൙":{"ha":919,"x_min":35,"x_max":900,"o":"m 299 571 l 299 571 q 371 571 423 546 q 475 521 510 475 q 544 429 561 368 q 578 306 578 231 l 578 231 q 578 139 557 86 q 535 32 496 10 q 457 -12 404 -12 l 404 -12 q 346 -12 312 12 q 278 35 263 71 q 247 107 247 148 l 247 148 q 247 201 266 237 q 284 273 316 297 l 316 297 q 336 312 363 321 q 389 329 423 333 q 457 337 502 337 l 502 337 l 679 337 l 679 250 l 509 250 q 456 250 430 244 q 403 238 384 224 l 384 224 q 370 212 362 194 q 353 175 353 148 l 353 148 q 353 118 366 98 q 379 77 407 77 l 407 77 q 427 77 441 93 q 454 108 462 142 q 470 175 470 231 l 470 231 q 470 248 470 264 q 469 280 467 290 l 467 290 l 462 315 q 459 360 440 398 q 421 436 388 459 q 355 482 307 482 l 307 482 q 253 482 217 458 q 181 433 164 389 q 146 345 146 286 l 146 286 q 146 233 156 191 q 166 149 185 115 q 203 80 228 48 l 228 48 l 149 -11 q 117 24 91 68 q 65 112 50 168 q 35 223 35 292 l 35 292 q 35 349 51 400 q 67 450 100 489 q 132 527 182 549 q 232 571 299 571 z m 757 559 l 757 559 q 808 559 839 539 q 870 518 885 485 q 900 452 900 413 l 900 413 q 900 375 886 343 q 872 311 846 290 l 846 290 q 829 276 808 267 q 786 258 755 254 q 724 250 680 250 l 680 250 l 546 250 l 550 337 l 696 337 q 732 337 750 343 q 767 348 777 357 l 777 357 q 789 367 795 380 q 800 393 800 416 l 800 416 q 800 442 789 458 q 777 474 756 474 l 756 474 q 734 474 722 456 q 709 437 709 406 l 709 406 q 709 369 720 344 q 731 318 746 297 l 746 297 l 650 291 q 635 313 624 347 q 613 380 613 414 l 613 414 q 613 462 632 494 q 651 526 684 543 q 716 559 757 559 z"},"൚":{"ha":877,"x_min":35,"x_max":828,"o":"m 565 571 l 565 571 q 637 571 686 552 q 734 533 764 500 l 764 500 q 787 475 802 444 q 816 412 822 370 q 828 327 828 270 l 828 270 l 828 0 l 420 0 l 420 81 q 455 126 485 180 q 514 233 532 290 q 550 346 550 400 l 550 400 q 550 426 546 444 q 542 462 532 472 q 522 481 504 481 l 504 481 q 484 481 467 466 q 450 450 439 422 l 439 422 q 429 396 425 362 q 421 327 421 275 l 421 275 l 421 230 l 314 230 l 314 343 q 314 400 308 426 q 301 452 287 468 l 287 468 q 281 474 271 479 q 260 483 245 483 l 245 483 q 220 483 198 464 q 175 444 161 403 q 146 362 146 299 l 146 299 q 146 247 156 202 q 165 157 183 119 q 200 80 223 47 l 223 47 l 137 -11 q 108 30 85 77 q 62 124 49 180 q 35 236 35 303 l 35 303 q 35 382 58 443 q 81 503 127 537 q 173 571 240 571 l 240 571 q 273 571 298 563 q 323 554 345 534 q 367 514 388 478 l 388 478 l 357 470 q 379 504 409 527 q 439 549 478 560 q 516 571 565 571 z m 657 377 l 657 377 q 657 323 642 273 q 627 222 600 173 q 573 124 535 72 l 535 72 l 516 83 q 535 85 562 86 q 589 87 599 87 l 599 87 l 720 87 l 720 286 q 720 347 709 387 q 698 426 676 451 q 654 476 618 489 l 618 489 l 619 492 q 635 473 646 443 q 657 413 657 377 z"},"൛":{"ha":788,"x_min":56,"x_max":754,"o":"m 509 -12 l 509 -12 q 443 -12 398 10 q 353 32 325 70 q 296 108 283 157 q 270 206 270 260 l 270 260 q 270 318 282 365 q 293 412 313 452 q 332 491 359 526 l 359 526 l 338 472 l 164 472 l 164 0 l 56 0 l 56 559 l 405 559 l 456 499 q 437 475 420 443 q 403 410 392 368 q 381 326 381 271 l 381 271 q 381 211 397 167 q 413 123 442 100 q 470 77 507 77 l 507 77 q 548 77 578 101 q 607 124 624 167 q 641 210 641 270 l 641 270 q 641 324 631 366 q 621 408 603 444 q 584 479 559 510 l 559 510 l 640 570 q 673 536 699 492 q 724 448 739 393 q 754 337 754 267 l 754 267 q 754 213 740 163 q 726 113 696 74 q 666 34 620 11 q 574 -12 509 -12 z"},"൜":{"ha":1225,"x_min":35,"x_max":1190,"o":"m 737 571 l 737 571 q 781 571 813 558 q 844 545 864 525 l 864 525 q 883 506 895 480 q 907 454 912 422 q 917 389 917 350 l 917 350 l 917 228 q 917 171 921 145 q 925 119 935 103 l 935 103 q 943 90 957 84 q 970 77 989 77 l 989 77 q 1015 77 1036 97 q 1056 116 1068 156 q 1079 196 1079 257 l 1079 257 q 1079 312 1069 358 q 1059 403 1042 442 q 1025 480 1001 514 l 1001 514 l 1088 572 q 1117 533 1140 486 q 1163 439 1177 382 q 1190 325 1190 252 l 1190 252 q 1190 170 1166 111 q 1141 52 1095 20 q 1049 -12 986 -12 l 986 -12 q 943 -12 910 1 q 877 14 853 38 l 853 38 q 836 57 827 83 q 817 109 813 141 q 808 172 808 206 l 808 206 l 808 349 q 808 385 805 411 q 802 436 792 454 l 792 454 q 785 468 771 475 q 757 482 738 482 l 738 482 q 719 482 706 476 q 692 469 686 456 l 686 456 q 674 440 671 415 q 667 390 667 354 l 667 354 l 667 210 q 667 172 662 139 q 657 106 645 80 q 633 54 614 34 l 614 34 q 594 14 564 1 q 534 -12 488 -12 l 488 -12 q 443 -12 412 1 q 381 14 361 34 l 361 34 q 342 55 331 82 q 319 108 314 140 q 308 172 308 209 l 308 209 l 308 331 q 308 391 304 416 q 300 440 290 456 l 290 456 q 282 470 269 476 q 256 482 236 482 l 236 482 q 210 482 190 463 q 169 443 158 403 q 146 363 146 302 l 146 302 q 146 247 156 202 q 166 156 184 118 q 201 79 224 45 l 224 45 l 137 -13 q 109 26 86 73 q 62 119 49 177 q 35 235 35 306 l 35 306 q 35 388 59 447 q 83 506 130 539 q 176 571 242 571 l 242 571 q 284 571 316 559 q 348 546 370 523 l 370 523 q 390 502 400 475 q 409 448 413 416 q 417 383 417 345 l 417 345 l 417 211 q 417 174 420 149 q 423 123 434 105 l 434 105 q 440 92 454 85 q 468 77 488 77 l 488 77 q 507 77 520 84 q 533 91 539 103 l 539 103 q 550 120 554 145 q 558 170 558 209 l 558 209 l 558 346 q 558 387 564 420 q 569 452 581 479 q 592 506 611 525 l 611 525 q 630 545 661 558 q 691 571 737 571 z"},"൝":{"ha":1624,"x_min":9,"x_max":1589,"o":"m 635 571 l 635 571 q 679 571 711 558 q 743 545 762 525 l 762 525 q 782 506 794 480 q 805 454 811 422 q 816 389 816 350 l 816 350 l 816 211 q 816 174 819 149 q 822 123 832 105 l 832 105 q 839 92 853 85 q 866 77 886 77 l 886 77 q 905 77 919 84 q 932 91 938 103 l 938 103 q 949 120 953 145 q 957 170 957 209 l 957 209 l 957 346 q 957 387 962 420 q 967 452 979 479 q 991 506 1010 525 l 1010 525 q 1029 545 1059 558 q 1089 571 1136 571 l 1136 571 q 1180 571 1212 558 q 1243 545 1263 525 l 1263 525 q 1282 506 1294 480 q 1305 454 1311 422 q 1316 389 1316 350 l 1316 350 l 1316 228 q 1316 171 1320 145 q 1324 119 1334 103 l 1334 103 q 1342 90 1356 84 q 1369 77 1388 77 l 1388 77 q 1414 77 1434 97 q 1454 116 1466 156 q 1478 196 1478 257 l 1478 257 q 1478 312 1468 358 q 1458 403 1441 442 q 1423 480 1400 514 l 1400 514 l 1487 572 q 1516 533 1539 486 q 1562 439 1576 382 q 1589 325 1589 252 l 1589 252 q 1589 170 1565 111 q 1540 52 1494 20 q 1448 -12 1385 -12 l 1385 -12 q 1341 -12 1308 1 q 1275 14 1252 38 l 1252 38 q 1235 57 1225 83 q 1215 109 1211 141 q 1207 172 1207 206 l 1207 206 l 1207 349 q 1207 385 1204 411 q 1200 436 1191 454 l 1191 454 q 1184 468 1170 475 q 1156 482 1137 482 l 1137 482 q 1118 482 1105 476 q 1091 469 1085 456 l 1085 456 q 1073 440 1070 415 q 1066 390 1066 354 l 1066 354 l 1066 210 q 1066 172 1061 139 q 1055 106 1044 80 q 1032 54 1013 34 l 1013 34 q 993 14 963 1 q 932 -12 887 -12 l 887 -12 q 842 -12 811 1 q 780 14 760 34 l 760 34 q 741 55 729 82 q 717 108 712 140 q 707 172 707 209 l 707 209 l 707 351 q 707 387 704 412 q 700 436 690 454 l 690 454 q 684 468 670 475 q 656 482 636 482 l 636 482 q 618 482 605 476 q 591 469 584 456 l 584 456 q 573 440 570 415 q 566 390 566 354 l 566 354 l 566 210 q 566 141 554 102 q 541 63 516 36 l 516 36 q 494 13 464 1 q 434 -12 395 -12 l 395 -12 q 341 -12 309 9 q 277 29 254 62 l 254 62 l 267 66 q 247 39 225 22 q 202 4 177 -4 q 152 -12 122 -12 l 122 -12 q 86 -12 60 -5 q 33 2 9 15 l 9 15 l 44 98 q 62 89 83 83 q 103 77 126 77 l 126 77 q 139 77 153 80 q 167 83 177 93 l 177 93 q 193 109 199 139 q 204 169 204 227 l 204 227 l 204 555 l 313 559 l 313 221 q 313 171 318 146 q 323 120 334 102 l 334 102 q 341 91 355 84 q 369 77 385 77 l 385 77 q 403 77 417 83 q 430 88 439 101 l 439 101 q 449 118 453 141 q 457 163 457 204 l 457 204 l 457 346 q 457 387 463 420 q 468 452 479 479 q 490 506 509 525 l 509 525 q 529 545 559 558 q 589 571 635 571 z"},"൞":{"ha":1136,"x_min":35,"x_max":1109,"o":"m 299 571 l 299 571 q 371 571 423 546 q 475 521 510 475 q 544 429 561 368 q 578 306 578 231 l 578 231 q 578 139 557 86 q 535 32 496 10 q 457 -12 404 -12 l 404 -12 q 346 -12 312 12 q 278 35 263 71 q 247 107 247 148 l 247 148 q 247 201 266 237 q 284 273 316 297 l 316 297 q 336 312 363 321 q 389 329 423 333 q 457 337 502 337 l 502 337 l 525 337 l 525 250 l 509 250 q 456 250 430 244 q 403 238 384 224 l 384 224 q 370 212 362 194 q 353 175 353 148 l 353 148 q 353 118 366 98 q 379 77 407 77 l 407 77 q 427 77 441 93 q 454 108 462 142 q 470 175 470 231 l 470 231 q 470 248 470 264 q 469 280 467 290 l 467 290 l 462 315 q 459 360 440 398 q 421 436 388 459 q 355 482 307 482 l 307 482 q 253 482 217 458 q 181 433 164 389 q 146 345 146 286 l 146 286 q 146 233 156 191 q 166 149 185 115 q 203 80 228 48 l 228 48 l 149 -11 q 117 24 91 68 q 65 112 50 168 q 35 223 35 292 l 35 292 q 35 349 51 400 q 67 450 100 489 q 132 527 182 549 q 232 571 299 571 z m 937 203 l 937 203 q 878 203 841 229 q 803 254 785 295 q 767 335 767 379 l 767 379 q 767 418 779 448 q 791 477 801 494 l 801 494 l 814 472 l 644 472 l 686 496 q 698 479 708 454 q 717 429 717 399 l 717 399 q 717 345 696 313 q 674 280 636 265 q 597 250 547 250 l 547 250 l 529 250 l 529 337 l 549 337 q 576 337 592 344 q 608 351 615 366 q 622 381 622 403 l 622 403 q 622 424 614 444 q 606 464 598 476 l 598 476 l 627 559 l 865 559 l 903 502 q 892 483 883 455 q 874 427 874 388 l 874 388 q 874 345 889 318 q 904 290 936 290 l 936 290 q 958 290 972 302 q 986 313 994 335 q 1001 356 1001 384 l 1001 384 q 1001 432 988 462 q 974 492 957 522 l 957 522 l 1045 569 q 1074 529 1092 484 q 1109 439 1109 381 l 1109 381 q 1109 327 1088 287 q 1067 247 1029 225 q 990 203 937 203 z"},"ൟ":{"ha":1136,"x_min":23,"x_max":1112,"o":"m 23 269 l 23 269 q 23 331 56 367 q 88 403 142 403 l 142 403 q 195 403 229 367 q 262 331 262 269 l 262 269 q 262 207 230 172 q 197 136 142 136 l 142 136 q 88 136 56 172 q 23 207 23 269 z m 102 270 l 102 270 q 102 241 112 225 q 122 209 142 209 l 142 209 q 163 209 173 225 q 183 241 183 270 l 183 270 q 183 299 173 315 q 162 330 142 330 l 142 330 q 123 330 113 315 q 102 299 102 270 z m 874 269 l 874 269 q 874 331 907 367 q 939 403 992 403 l 992 403 q 1046 403 1079 367 q 1112 331 1112 269 l 1112 269 q 1112 207 1080 172 q 1048 136 992 136 l 992 136 q 938 136 906 172 q 874 207 874 269 z m 953 270 l 953 270 q 953 241 963 225 q 973 209 992 209 l 992 209 q 1013 209 1023 225 q 1033 241 1033 270 l 1033 270 q 1033 299 1023 315 q 1013 330 992 330 l 992 330 q 973 330 963 315 q 953 299 953 270 z m 560 571 l 560 571 q 631 571 683 547 q 735 522 770 478 q 804 433 822 372 q 839 311 839 238 l 839 238 q 839 146 818 91 q 797 35 758 12 q 718 -12 664 -12 l 664 -12 q 606 -12 571 16 q 535 44 519 93 q 502 142 502 203 l 502 203 q 502 301 540 353 q 578 405 649 405 l 649 405 q 688 405 716 386 q 743 366 764 331 q 784 295 798 248 l 798 248 l 758 237 q 753 256 742 276 q 731 295 715 309 q 698 322 675 322 l 675 322 q 640 322 625 291 q 609 260 609 199 l 609 199 q 609 159 616 131 q 622 102 636 88 q 649 74 669 74 l 669 74 q 689 74 704 90 q 718 105 726 141 q 733 177 733 238 l 733 238 q 733 251 732 271 q 731 290 729 308 l 729 308 q 728 313 728 321 q 727 328 725 332 l 725 332 q 719 371 700 405 q 680 439 647 461 q 614 482 569 482 l 569 482 q 514 482 478 458 q 442 433 425 389 q 407 345 407 286 l 407 286 q 407 233 417 191 q 426 149 445 115 q 464 80 489 48 l 489 48 l 409 -11 q 377 24 351 68 q 325 112 311 168 q 296 223 296 292 l 296 292 q 296 350 312 400 q 328 450 361 489 q 393 527 443 549 q 493 571 560 571 z"},"ൠ":{"ha":753,"x_min":32,"x_max":721,"o":"m 556 571 l 556 571 q 632 571 677 516 q 721 461 721 356 l 721 356 q 721 290 702 242 q 683 194 648 160 l 648 160 q 615 125 573 105 q 530 85 476 80 l 476 80 l 416 89 l 329 87 l 275 80 q 217 87 178 107 q 139 126 108 159 l 108 159 q 72 194 52 242 q 32 290 32 356 l 32 356 q 32 420 53 469 q 74 517 113 544 q 152 571 205 571 l 205 571 q 254 571 287 550 q 320 528 337 491 q 353 454 353 407 l 353 407 q 353 349 336 312 q 319 274 288 256 q 257 238 213 238 l 213 238 q 184 238 157 250 q 129 261 106 279 q 82 296 65 314 l 65 314 l 95 394 q 110 371 124 354 q 137 337 152 329 q 167 320 186 320 l 186 320 q 217 320 233 341 q 248 362 248 410 l 248 410 q 248 445 235 466 q 222 487 200 487 l 200 487 q 179 487 165 474 q 150 460 142 434 q 134 407 134 368 l 134 368 q 134 347 137 328 q 140 309 144 293 l 144 293 l 140 269 q 150 240 173 220 q 195 199 225 186 q 255 173 286 167 q 317 160 345 160 l 345 160 l 411 160 q 435 160 465 166 q 495 171 526 184 q 556 197 580 218 q 603 239 614 270 l 614 270 l 610 294 q 614 308 617 328 q 619 348 619 369 l 619 369 q 619 409 612 435 q 605 461 592 474 q 579 487 558 487 l 558 487 q 535 487 521 466 q 506 444 506 402 l 506 402 q 506 360 521 340 q 535 320 565 320 l 565 320 q 586 320 601 329 q 615 337 629 354 q 642 370 658 394 l 658 394 l 688 313 q 672 297 649 279 q 626 261 598 250 q 570 238 540 238 l 540 238 q 497 238 466 256 q 434 274 418 311 q 401 347 401 401 l 401 401 q 401 452 419 490 q 437 528 472 550 q 507 571 556 571 z m 375 -235 l 375 -235 q 284 -235 219 -214 q 153 -194 118 -151 q 83 -108 83 -41 l 83 -41 q 83 4 102 37 q 120 69 154 90 q 188 111 233 121 q 278 131 331 131 l 331 131 l 420 131 q 475 131 521 121 q 566 111 600 90 q 634 69 653 37 q 671 4 671 -42 l 671 -42 q 671 -104 638 -147 q 605 -191 539 -213 q 473 -235 375 -235 z m 378 -148 l 378 -148 q 448 -148 489 -134 q 529 -121 547 -96 q 565 -72 565 -38 l 565 -38 q 565 -5 551 17 q 536 38 511 51 q 485 64 454 70 q 422 75 387 75 l 387 75 l 369 75 q 319 75 278 64 q 237 53 213 29 q 189 4 189 -38 l 189 -38 q 189 -74 207 -98 q 225 -122 267 -135 q 308 -148 378 -148 z m 439 41 l 439 41 q 465 41 481 31 q 497 20 505 4 q 513 -12 516 -31 q 518 -51 518 -69 l 518 -69 l 518 -103 l 451 -103 l 451 -82 q 451 -62 448 -49 q 445 -36 431 -36 l 431 -36 q 417 -36 414 -49 q 410 -62 410 -81 l 410 -81 l 410 -103 l 342 -103 l 342 -81 q 342 -61 339 -48 q 335 -36 322 -36 l 322 -36 q 308 -36 305 -49 q 301 -63 301 -82 l 301 -82 l 301 -103 l 235 -103 l 235 -70 q 235 -52 238 -32 q 240 -13 248 4 q 256 20 272 31 q 288 41 314 41 l 314 41 q 337 41 351 32 q 365 23 376 8 l 376 8 q 390 25 405 33 q 420 41 439 41 z"},"ൡ":{"ha":1080,"x_min":36,"x_max":1059,"o":"m 300 571 l 300 571 q 365 571 407 548 q 448 524 482 477 l 482 477 l 496 399 l 521 245 l 521 0 l 412 0 l 412 306 q 412 370 404 402 q 396 434 380 452 l 380 452 q 367 466 349 474 q 331 482 301 482 l 301 482 q 253 482 216 455 q 179 428 158 375 q 136 322 136 246 l 136 246 l 136 228 q 136 167 144 134 q 152 101 167 88 q 181 75 199 75 l 199 75 q 214 75 225 84 q 235 93 241 112 q 246 131 246 164 l 246 164 q 246 213 233 234 q 220 254 191 254 l 191 254 q 167 254 145 239 q 122 223 98 189 l 98 189 l 79 266 q 100 292 138 315 q 175 337 219 337 l 219 337 q 262 337 292 318 q 321 298 336 261 q 351 223 351 169 l 351 169 q 351 108 334 68 q 316 28 283 8 q 250 -12 203 -12 l 203 -12 q 158 -12 120 13 q 82 37 59 93 q 36 148 36 242 l 36 242 q 36 354 71 427 q 105 500 165 536 q 225 571 300 571 z m 643 571 l 643 571 q 726 571 780 538 q 833 505 861 453 q 889 400 897 341 l 897 341 q 902 315 904 287 q 905 259 905 231 l 905 231 q 905 144 886 91 q 866 37 829 13 q 791 -12 735 -12 l 735 -12 q 679 -12 644 13 q 609 37 593 79 q 576 121 576 176 l 576 176 q 576 282 637 337 q 698 392 797 392 l 797 392 q 814 392 826 392 q 838 391 845 390 l 845 390 l 865 388 q 924 376 968 337 q 1011 298 1035 237 q 1059 175 1059 94 l 1059 94 q 1059 32 1045 -21 q 1031 -75 1000 -115 q 969 -155 919 -178 q 868 -201 796 -201 l 796 -201 q 763 -201 737 -196 q 710 -192 682 -183 l 682 -183 l 712 -99 q 734 -106 754 -108 q 773 -111 796 -111 l 796 -111 q 844 -111 876 -93 q 907 -75 924 -45 q 941 -16 948 22 q 955 60 955 98 l 955 98 q 955 148 947 185 q 939 221 923 248 q 906 275 880 292 l 880 292 l 847 299 q 836 304 823 306 q 810 307 800 307 l 800 307 q 762 307 736 292 q 710 277 697 249 q 683 220 683 178 l 683 178 q 683 146 689 123 q 695 100 707 88 q 719 76 738 76 l 738 76 q 770 76 786 109 q 801 142 801 234 l 801 234 q 801 267 797 300 q 793 332 784 360 l 784 360 l 781 377 q 770 409 750 433 q 730 457 704 470 q 677 482 643 482 l 643 482 q 622 482 602 478 q 582 473 564 457 l 564 457 q 550 446 540 428 q 530 410 526 379 q 521 348 521 295 l 521 295 l 521 210 l 448 464 q 470 497 497 522 q 523 546 559 559 q 594 571 643 571 z"},"ൢ":{"ha":0,"x_min":-686,"x_max":-27,"o":"m -497 23 l -497 23 q -455 23 -413 8 q -372 -7 -347 -52 l -347 -52 l -313 -160 l -313 -333 l -402 -333 l -402 -178 q -402 -143 -407 -116 q -412 -89 -428 -73 l -428 -73 q -439 -61 -456 -55 q -473 -49 -498 -49 l -498 -49 q -518 -49 -538 -55 q -558 -62 -574 -79 q -591 -96 -602 -128 l -602 -128 q -605 -140 -605 -152 q -606 -165 -606 -184 l -606 -184 q -606 -234 -593 -251 q -581 -269 -565 -269 l -565 -269 q -549 -269 -538 -256 q -528 -243 -528 -212 l -528 -212 q -528 -183 -538 -170 q -548 -157 -569 -157 l -569 -157 q -588 -157 -603 -168 q -619 -180 -638 -202 l -638 -202 l -659 -147 q -630 -120 -603 -104 q -577 -89 -550 -89 l -550 -89 q -498 -89 -473 -121 q -449 -154 -449 -211 l -449 -211 q -449 -270 -477 -303 q -505 -337 -562 -337 l -562 -337 q -619 -337 -652 -295 q -686 -253 -686 -176 l -686 -176 q -686 -112 -660 -67 q -635 -23 -592 0 q -549 23 -497 23 z m -213 23 l -213 23 q -160 23 -118 0 q -76 -24 -52 -68 q -28 -112 -28 -174 l -28 -174 q -28 -259 -61 -298 q -94 -337 -148 -337 l -148 -337 q -189 -337 -214 -319 q -240 -302 -252 -272 q -264 -242 -264 -206 l -264 -206 q -264 -163 -251 -134 q -239 -105 -215 -90 q -191 -76 -159 -76 l -159 -76 q -134 -76 -114 -87 q -95 -98 -78 -122 q -62 -146 -48 -184 l -48 -184 l -85 -190 q -99 -162 -111 -150 q -123 -139 -139 -139 l -139 -139 q -162 -139 -173 -156 q -185 -174 -185 -206 l -185 -206 q -185 -237 -175 -253 q -165 -269 -146 -269 l -146 -269 q -127 -269 -117 -245 q -108 -221 -108 -179 l -108 -179 q -108 -168 -108 -157 q -108 -146 -109 -137 l -109 -137 l -115 -113 q -125 -90 -142 -76 q -159 -62 -178 -55 q -197 -49 -215 -49 l -215 -49 q -236 -49 -252 -54 q -269 -59 -279 -68 l -279 -68 q -297 -83 -305 -108 q -314 -134 -313 -184 l -313 -184 l -388 -113 q -383 -61 -355 -31 q -327 -2 -288 11 q -249 23 -213 23 z"},"ൣ":{"ha":0,"x_min":-686,"x_max":75,"o":"m -497 23 l -497 23 q -455 23 -413 8 q -372 -7 -347 -52 l -347 -52 l -313 -159 l -313 -333 l -402 -333 l -402 -178 q -402 -143 -407 -116 q -412 -89 -428 -73 l -428 -73 q -439 -61 -456 -55 q -473 -49 -498 -49 l -498 -49 q -518 -49 -538 -55 q -558 -62 -574 -79 q -591 -96 -602 -128 l -602 -128 q -605 -140 -605 -152 q -606 -165 -606 -184 l -606 -184 q -606 -234 -593 -251 q -581 -269 -565 -269 l -565 -269 q -549 -269 -538 -256 q -528 -243 -528 -212 l -528 -212 q -528 -183 -538 -170 q -548 -157 -569 -157 l -569 -157 q -588 -157 -603 -168 q -619 -180 -638 -202 l -638 -202 l -659 -147 q -630 -120 -603 -104 q -577 -89 -550 -89 l -550 -89 q -498 -89 -473 -121 q -449 -154 -449 -211 l -449 -211 q -449 -270 -477 -303 q -505 -337 -562 -337 l -562 -337 q -619 -337 -652 -295 q -686 -253 -686 -176 l -686 -176 q -686 -112 -660 -67 q -635 -23 -592 0 q -549 23 -497 23 z m -213 23 l -213 23 q -163 23 -122 1 q -81 -21 -56 -64 q -32 -107 -32 -172 l -32 -172 q -32 -228 -45 -264 q -59 -301 -84 -319 q -110 -337 -146 -337 l -146 -337 q -191 -337 -216 -319 q -242 -302 -253 -273 q -264 -245 -264 -214 l -264 -214 q -264 -151 -226 -111 q -188 -71 -109 -71 l -109 -71 q -99 -71 -88 -72 q -77 -73 -65 -75 l -65 -75 q -28 -82 4 -102 q 36 -123 56 -159 q 75 -195 75 -249 l 75 -249 q 75 -285 69 -311 q 63 -337 53 -359 l 53 -359 l -21 -331 q -14 -315 -10 -295 q -6 -276 -6 -251 l -6 -251 q -6 -211 -18 -185 q -30 -160 -61 -145 l -61 -145 l -82 -140 q -89 -138 -98 -136 q -107 -135 -113 -135 l -113 -135 q -148 -135 -166 -156 q -185 -178 -185 -214 l -185 -214 q -185 -241 -175 -255 q -166 -269 -147 -269 l -147 -269 q -127 -269 -118 -244 q -109 -220 -109 -171 l -109 -171 q -109 -160 -110 -148 q -111 -137 -114 -125 l -114 -125 l -116 -109 q -125 -88 -140 -75 q -156 -62 -175 -55 q -194 -49 -215 -49 l -215 -49 q -237 -49 -253 -54 q -269 -59 -279 -68 l -279 -68 q -297 -83 -305 -108 q -314 -134 -313 -184 l -313 -184 l -387 -113 q -383 -74 -364 -47 q -346 -21 -320 -6 q -294 9 -265 16 q -237 23 -213 23 z"},"൦":{"ha":471,"x_min":37,"x_max":434,"o":"m 236 39 l 236 39 q 175 39 131 66 q 86 93 62 148 q 37 202 37 282 l 37 282 q 37 362 62 416 q 87 470 132 498 q 176 525 235 525 l 235 525 q 299 525 343 497 q 387 469 411 415 q 434 361 434 282 l 434 282 q 434 203 409 149 q 384 94 340 67 q 296 39 236 39 z m 236 127 l 236 127 q 261 127 281 142 q 301 157 313 192 q 325 227 325 283 l 325 283 q 325 365 299 402 q 273 438 235 438 l 235 438 q 199 438 173 402 q 146 366 146 281 l 146 281 q 146 199 172 163 q 198 127 236 127 z"},"൧":{"ha":740,"x_min":11,"x_max":688,"o":"m 317 -112 l 317 -201 l 236 -201 q 173 -201 134 -192 q 95 -184 70 -169 l 70 -169 q 42 -151 27 -123 q 11 -96 11 -59 l 11 -59 q 11 -23 26 7 q 41 36 71 56 l 71 56 q 87 66 107 73 q 126 79 156 83 q 186 87 229 87 l 229 87 l 350 87 l 387 0 l 231 0 q 192 0 176 -2 q 159 -4 148 -10 l 148 -10 q 133 -16 127 -27 q 121 -39 121 -55 l 121 -55 q 121 -82 143 -97 l 143 -97 q 155 -105 176 -108 q 197 -112 236 -112 l 236 -112 l 317 -112 z m 484 571 l 484 571 q 535 571 570 558 q 605 544 628 521 l 628 521 q 664 487 676 439 q 688 390 688 317 l 688 317 l 688 0 l 277 0 l 277 312 q 277 364 282 402 q 287 439 300 468 q 312 497 335 520 l 335 520 q 358 543 394 557 q 430 571 484 571 z m 483 483 l 483 483 q 458 483 442 476 q 425 468 414 456 l 414 456 q 399 436 393 404 q 386 372 386 313 l 386 313 l 386 87 l 579 87 l 579 309 q 579 372 573 404 q 566 436 551 456 l 551 456 q 540 468 522 476 q 504 483 483 483 z"},"൨":{"ha":691,"x_min":34,"x_max":674,"o":"m 279 571 l 279 571 q 344 571 390 549 q 435 527 464 489 q 492 451 505 402 q 518 353 518 299 l 518 299 q 518 241 507 194 q 495 147 475 108 q 455 69 429 33 l 429 33 l 450 87 l 674 87 l 674 0 l 383 0 l 332 60 q 351 84 369 117 q 386 149 397 191 q 407 233 407 288 l 407 288 q 407 348 391 392 q 375 436 347 459 q 318 482 281 482 l 281 482 q 240 482 210 459 q 180 436 164 393 q 147 349 147 289 l 147 289 q 147 236 157 194 q 167 151 186 116 q 204 80 229 49 l 229 49 l 148 -11 q 116 23 90 67 q 64 111 49 167 q 34 223 34 292 l 34 292 q 34 346 48 397 q 62 447 92 487 q 122 526 168 549 q 214 571 279 571 z"},"൩":{"ha":868,"x_min":35,"x_max":850,"o":"m 238 571 l 238 571 q 272 571 296 562 q 319 552 338 535 q 357 518 375 495 l 375 495 l 361 495 q 390 536 424 554 q 458 571 504 571 l 504 571 q 567 571 611 538 q 655 504 678 445 q 701 386 701 307 l 701 307 q 701 247 691 200 q 681 153 660 113 q 638 72 605 28 l 605 28 l 613 0 l 570 0 l 518 56 q 544 94 560 132 q 576 169 583 210 q 590 251 590 300 l 590 300 q 590 359 578 400 q 565 441 543 462 q 521 483 493 483 l 493 483 q 480 483 470 479 q 459 474 450 467 l 450 467 q 436 453 429 424 q 422 395 422 344 l 422 344 l 422 0 l 314 0 l 314 344 q 314 401 308 427 q 301 452 287 468 l 287 468 q 281 474 271 479 q 260 483 245 483 l 245 483 q 220 483 198 464 q 175 444 161 403 q 146 362 146 299 l 146 299 q 146 248 156 203 q 165 158 183 119 q 200 80 223 47 l 223 47 l 137 -11 q 108 30 85 77 q 62 124 49 180 q 35 236 35 303 l 35 303 q 35 382 58 443 q 81 503 127 537 q 172 571 238 571 z m 588 0 l 630 87 l 850 87 l 850 0 l 588 0 z"},"൪":{"ha":647,"x_min":35,"x_max":642,"o":"m 299 571 l 299 571 q 367 571 414 548 q 460 524 497 484 l 497 484 q 545 433 567 365 q 589 297 589 221 l 589 221 q 589 141 569 89 q 548 37 508 13 q 468 -12 409 -12 l 409 -12 q 352 -12 314 14 q 276 39 257 83 q 237 126 237 179 l 237 179 q 237 241 259 290 q 281 338 325 384 q 368 429 433 481 l 433 481 q 476 513 497 534 q 518 554 525 574 q 532 593 532 619 l 532 619 q 532 639 526 659 q 519 678 508 693 l 508 693 l 607 739 q 623 714 633 687 q 642 659 642 626 l 642 626 q 642 580 625 545 q 607 509 572 478 q 536 447 483 408 l 483 408 q 443 374 412 339 q 381 303 363 264 q 345 224 345 175 l 345 175 q 345 128 361 101 q 377 73 408 73 l 408 73 q 431 73 447 86 q 462 98 470 128 q 478 157 478 208 l 478 208 q 478 276 459 338 q 440 399 398 439 l 398 439 q 382 458 358 471 q 334 484 306 484 l 306 484 q 254 484 219 461 q 183 437 165 393 q 146 349 146 288 l 146 288 q 146 234 156 192 q 165 150 184 115 q 203 80 228 49 l 228 49 l 149 -11 q 117 24 91 68 q 65 112 50 168 q 35 223 35 292 l 35 292 q 35 349 51 400 q 67 450 99 488 q 131 526 181 549 q 231 571 299 571 z"},"൫":{"ha":834,"x_min":41,"x_max":793,"o":"m 423 727 l 423 727 q 515 727 585 695 q 654 663 701 604 q 747 544 770 464 q 793 384 793 288 l 793 288 q 793 214 781 138 q 768 62 741 -10 l 741 -10 l 643 22 q 659 63 668 107 q 677 151 682 196 q 686 240 686 283 l 686 283 q 686 362 670 427 q 653 492 621 539 q 589 586 540 612 q 490 637 425 637 l 425 637 q 342 637 280 593 q 217 549 183 465 q 148 380 148 258 l 148 258 q 148 184 160 122 q 172 59 198 12 q 223 -35 263 -61 q 303 -87 358 -87 l 358 -87 q 437 -87 472 -47 q 507 -8 507 65 l 507 65 q 507 104 498 136 q 489 168 467 187 q 444 206 408 206 l 408 206 l 399 206 l 399 291 l 404 291 q 432 291 448 295 q 463 299 474 308 l 474 308 q 488 320 495 336 q 501 351 501 376 l 501 376 q 501 413 484 433 q 467 453 435 453 l 435 453 q 401 453 378 430 q 355 407 344 366 q 333 325 333 269 l 333 269 q 333 210 348 148 q 362 86 389 32 l 389 32 l 291 -7 q 260 58 242 127 q 223 195 223 275 l 223 275 q 223 355 250 415 q 276 475 325 509 q 373 543 439 543 l 439 543 q 497 543 535 522 q 572 500 591 463 q 610 426 610 381 l 610 381 q 610 352 602 326 q 593 300 575 280 q 556 260 524 245 l 524 245 l 511 257 q 556 238 587 186 q 617 133 617 62 l 617 62 q 617 -16 587 -69 q 557 -123 500 -150 q 443 -177 365 -177 l 365 -177 q 263 -177 191 -127 q 118 -78 80 18 q 41 114 41 251 l 41 251 q 41 372 71 462 q 101 551 155 610 q 208 668 277 698 q 346 727 423 727 z"},"൬":{"ha":982,"x_min":34,"x_max":942,"o":"m 486 571 l 486 571 q 532 571 564 552 q 596 532 621 495 l 621 495 l 669 312 l 669 0 l 560 0 l 560 340 q 560 385 557 412 q 553 439 541 456 l 541 456 q 532 469 520 476 q 507 483 487 483 l 487 483 q 469 483 456 476 q 443 469 433 456 l 433 456 q 421 437 416 411 q 411 384 411 336 l 411 336 l 411 0 l 303 0 l 303 350 q 303 398 299 423 q 294 447 280 465 l 280 465 q 273 472 263 478 q 253 483 238 483 l 238 483 q 213 483 192 463 q 171 443 158 402 q 145 361 145 299 l 145 299 q 145 247 155 203 q 164 158 182 120 q 199 81 222 48 l 222 48 l 136 -10 q 107 32 84 79 q 60 125 47 181 q 34 236 34 303 l 34 303 q 34 380 57 441 q 79 501 123 536 q 166 571 229 571 l 229 571 q 277 571 308 552 q 339 532 365 494 l 365 494 l 348 489 q 377 534 411 553 q 444 571 486 571 z m 750 571 l 750 571 q 843 571 893 489 q 942 407 942 230 l 942 230 q 942 81 913 -14 q 883 -109 819 -155 q 754 -201 647 -201 l 647 -201 q 629 -201 607 -199 q 584 -198 564 -194 l 564 -194 l 570 -105 q 585 -109 603 -110 q 621 -111 638 -111 l 638 -111 q 697 -111 735 -88 q 773 -65 794 -21 q 815 23 823 85 q 831 147 831 227 l 831 227 q 831 313 821 370 q 810 426 790 455 q 769 483 740 483 l 740 483 q 726 483 716 479 q 705 475 697 467 l 697 467 q 680 448 675 416 q 669 383 669 329 l 669 329 l 669 10 l 568 10 l 568 327 l 606 491 q 633 533 668 552 q 702 571 750 571 z"},"൭":{"ha":611,"x_min":36,"x_max":573,"o":"m 310 571 l 310 571 q 378 571 427 546 q 476 520 509 473 q 541 426 557 359 q 573 292 573 207 l 573 207 q 573 103 555 27 q 536 -50 499 -101 q 462 -152 407 -176 q 351 -201 275 -201 l 275 -201 q 250 -201 226 -199 q 202 -198 179 -194 l 179 -194 l 187 -105 q 203 -108 223 -109 q 242 -111 263 -111 l 263 -111 q 319 -111 357 -89 q 395 -68 418 -27 q 441 14 451 74 q 461 133 461 208 l 461 208 q 461 346 419 414 q 377 482 303 482 l 303 482 q 248 482 211 450 q 173 417 155 363 q 136 308 136 241 l 136 241 l 136 226 q 136 166 144 133 q 152 100 167 87 q 181 74 199 74 l 199 74 q 213 74 224 83 q 234 92 240 111 q 246 130 246 162 l 246 162 q 246 212 233 233 q 220 254 191 254 l 191 254 q 165 254 142 238 q 118 221 94 185 l 94 185 l 79 266 q 100 292 137 315 q 173 337 218 337 l 218 337 q 261 337 291 318 q 320 298 336 261 q 351 223 351 169 l 351 169 q 351 109 334 70 q 316 30 284 9 q 251 -12 204 -12 l 204 -12 q 159 -12 121 13 q 83 37 60 92 q 36 147 36 240 l 36 240 q 36 345 70 419 q 104 493 166 532 q 228 571 310 571 z"},"൮":{"ha":782,"x_min":34,"x_max":726,"o":"m 279 571 l 279 571 q 344 571 390 549 q 435 527 464 489 q 492 451 505 402 q 518 353 518 299 l 518 299 q 518 241 507 194 q 495 147 475 108 q 455 69 429 33 l 429 33 l 450 87 l 617 87 l 617 559 l 726 559 l 726 158 l 663 0 l 383 0 l 332 60 q 351 84 369 117 q 386 149 397 191 q 407 233 407 288 l 407 288 q 407 348 391 392 q 375 436 347 459 q 318 482 281 482 l 281 482 q 240 482 210 459 q 180 436 164 393 q 147 349 147 289 l 147 289 q 147 236 157 194 q 167 151 186 116 q 204 80 229 49 l 229 49 l 148 -11 q 116 23 90 67 q 64 111 49 167 q 34 223 34 292 l 34 292 q 34 346 48 397 q 62 447 92 487 q 122 526 168 549 q 214 571 279 571 z m 463 -201 l 463 -201 q 436 -201 411 -198 q 385 -196 364 -190 l 364 -190 l 376 -101 q 391 -106 413 -108 q 434 -111 452 -111 l 452 -111 q 502 -111 534 -99 q 565 -88 583 -66 q 600 -44 608 -14 q 615 16 616 54 l 616 54 l 726 237 l 726 116 q 726 44 720 -5 q 713 -55 697 -88 q 680 -122 650 -148 l 650 -148 q 622 -171 576 -186 q 529 -201 463 -201 z"},"൯":{"ha":907,"x_min":35,"x_max":901,"o":"m 239 571 l 239 571 q 274 571 300 562 q 325 552 347 534 q 368 515 389 490 l 389 490 l 422 247 l 422 0 l 314 0 l 314 346 q 314 401 308 427 q 301 452 287 468 l 287 468 q 281 474 271 479 q 260 483 245 483 l 245 483 q 220 483 198 463 q 175 443 161 403 q 146 362 146 299 l 146 299 q 146 248 156 203 q 165 158 183 119 q 200 80 223 47 l 223 47 l 137 -11 q 108 30 85 77 q 62 124 49 180 q 35 236 35 303 l 35 303 q 35 381 58 442 q 81 502 127 537 q 173 571 239 571 z m 545 571 l 545 571 q 615 571 667 547 q 718 523 755 481 l 755 481 q 802 430 825 363 q 848 295 848 221 l 848 221 q 848 141 828 89 q 807 37 767 13 q 727 -12 668 -12 l 668 -12 q 611 -12 573 14 q 535 39 515 83 q 495 126 495 179 l 495 179 q 495 241 518 290 q 540 338 584 384 q 627 429 692 481 l 692 481 q 734 513 756 534 q 777 554 784 574 q 791 593 791 619 l 791 619 q 791 639 784 659 q 777 678 767 693 l 767 693 l 866 739 q 882 714 892 687 q 901 659 901 626 l 901 626 q 901 580 883 545 q 865 509 830 478 q 795 447 743 408 l 743 408 q 702 374 671 339 q 640 303 622 264 q 604 224 604 175 l 604 175 q 604 128 620 101 q 636 73 667 73 l 667 73 q 690 73 706 86 q 721 98 729 128 q 737 157 737 208 l 737 208 q 737 277 717 337 q 696 397 655 437 l 655 437 q 637 458 610 471 q 582 484 546 484 l 546 484 q 523 484 502 477 q 481 470 464 454 l 464 454 q 449 440 440 421 q 430 401 426 372 q 422 343 422 301 l 422 301 l 422 30 l 321 30 l 321 303 l 348 459 q 370 492 396 517 q 421 542 457 557 q 493 571 545 571 z"},"൰":{"ha":838,"x_min":-22,"x_max":804,"o":"m 157 559 l 265 559 l 265 152 l 264 104 q 264 24 255 -28 q 246 -80 223 -120 l 223 -120 q 199 -157 157 -179 q 114 -201 53 -201 l 53 -201 q 33 -201 15 -199 q -4 -197 -22 -193 l -22 -193 l -13 -105 q -2 -108 11 -109 q 24 -111 38 -111 l 38 -111 q 72 -111 93 -101 q 113 -91 127 -75 l 127 -75 q 147 -49 152 -9 q 157 31 157 94 l 157 94 l 157 559 z m 607 -12 l 607 -12 q 563 -12 529 6 q 494 23 465 65 l 465 65 l 482 70 q 453 27 422 8 q 391 -12 348 -12 l 348 -12 q 314 -12 289 -1 q 264 9 246 29 q 228 49 212 78 l 212 78 l 178 258 l 179 557 l 265 542 l 265 222 q 265 170 270 145 q 274 120 285 102 l 285 102 q 293 90 307 83 q 321 76 342 76 l 342 76 q 363 76 376 84 q 388 91 397 102 l 397 102 q 411 121 415 148 q 419 174 419 226 l 419 226 l 419 559 l 528 559 l 528 227 q 528 167 533 138 q 537 108 553 93 l 553 93 q 563 84 575 80 q 587 76 596 76 l 596 76 q 624 76 646 98 q 668 120 681 161 q 693 202 693 259 l 693 259 q 693 310 684 355 q 674 400 657 439 q 639 478 615 511 l 615 511 l 701 569 q 732 529 755 482 q 778 434 791 378 q 804 321 804 251 l 804 251 q 804 176 782 116 q 759 56 715 22 q 671 -12 607 -12 z"},"൱":{"ha":743,"x_min":35,"x_max":703,"o":"m 239 571 l 239 571 q 273 571 297 562 q 321 552 341 534 q 361 516 382 490 l 382 490 l 422 247 l 422 0 l 314 0 l 314 346 q 314 401 308 427 q 301 452 287 468 l 287 468 q 281 474 271 479 q 260 483 245 483 l 245 483 q 220 483 198 464 q 175 444 161 403 q 146 362 146 299 l 146 299 q 146 248 156 203 q 165 158 183 119 q 200 80 223 47 l 223 47 l 137 -11 q 108 30 85 77 q 62 124 49 180 q 35 236 35 303 l 35 303 q 35 382 58 443 q 81 503 127 537 q 173 571 239 571 z m 505 571 l 505 571 q 568 571 613 536 q 657 500 680 425 q 703 350 703 229 l 703 229 q 703 80 673 -15 q 643 -110 579 -155 q 514 -201 407 -201 l 407 -201 q 386 -201 364 -199 q 341 -198 317 -194 l 317 -194 l 324 -105 q 339 -108 359 -109 q 378 -111 400 -111 l 400 -111 q 458 -111 496 -88 q 533 -65 554 -21 q 575 23 584 86 q 592 148 592 228 l 592 228 q 592 315 581 372 q 570 428 549 456 q 527 483 497 483 l 497 483 q 483 483 472 479 q 461 475 451 467 l 451 467 q 435 451 429 420 q 422 389 422 331 l 422 331 l 422 10 l 321 10 l 321 313 l 360 491 q 388 531 423 551 q 457 571 505 571 z"},"൲":{"ha":1148,"x_min":36,"x_max":1129,"o":"m 986 559 l 986 559 q 1038 559 1069 539 q 1099 518 1114 485 q 1129 452 1129 413 l 1129 413 q 1129 375 1115 343 q 1101 311 1075 290 l 1075 290 q 1058 276 1037 267 q 1015 258 984 254 q 953 250 909 250 l 909 250 l 766 250 l 769 337 l 926 337 q 961 337 979 343 q 997 348 1006 357 l 1006 357 q 1018 367 1024 380 q 1029 393 1029 416 l 1029 416 q 1029 442 1018 458 q 1006 474 985 474 l 985 474 q 963 474 951 456 q 938 437 938 406 l 938 406 q 938 369 949 344 q 960 318 975 297 l 975 297 l 879 291 q 864 313 853 347 q 842 380 842 414 l 842 414 q 842 462 861 494 q 880 526 913 543 q 945 559 986 559 z m 240 571 l 240 571 q 274 571 299 562 q 323 552 343 535 q 363 517 385 491 l 385 491 l 424 238 l 424 0 l 315 0 l 315 346 q 315 401 309 427 q 302 452 289 468 l 289 468 q 282 474 272 479 q 261 483 246 483 l 246 483 q 221 483 199 464 q 176 444 162 403 q 147 362 147 299 l 147 299 q 147 248 157 203 q 166 158 184 119 q 201 80 224 47 l 224 47 l 138 -11 q 109 30 86 77 q 63 124 50 180 q 36 236 36 303 l 36 303 q 36 382 59 443 q 82 503 128 537 q 174 571 240 571 z m 540 571 l 540 571 q 598 571 647 549 q 696 527 732 485 q 767 442 787 378 q 807 314 807 229 l 807 229 q 807 139 785 86 q 763 33 725 11 q 686 -12 632 -12 l 632 -12 q 575 -12 541 12 q 506 35 491 71 q 476 107 476 148 l 476 148 q 476 201 494 237 q 512 273 544 297 l 544 297 q 565 312 591 321 q 616 329 650 333 q 684 337 730 337 l 730 337 l 907 337 l 907 250 l 734 250 q 684 250 658 244 q 631 238 613 224 l 613 224 q 598 212 590 194 q 581 175 581 148 l 581 148 q 581 118 595 98 q 608 77 635 77 l 635 77 q 655 77 669 93 q 683 108 691 141 q 698 173 698 228 l 698 228 q 698 244 698 259 q 697 274 696 287 l 696 287 l 690 319 q 685 358 670 395 q 655 432 625 458 q 594 483 544 483 l 544 483 q 522 483 502 477 q 482 470 463 454 l 463 454 q 448 440 440 422 q 431 403 428 375 q 424 346 424 304 l 424 304 l 424 210 l 360 224 l 350 468 q 370 498 395 522 q 420 545 455 558 q 490 571 540 571 z"},"൳":{"ha":602,"x_min":35,"x_max":580,"o":"m 201 -12 l 201 -12 q 152 -12 115 13 q 78 38 57 90 q 35 142 35 221 l 35 221 q 35 297 58 356 q 81 415 129 453 l 129 453 q 160 478 200 494 q 239 510 292 518 q 345 525 418 525 l 418 525 l 580 525 l 580 434 l 422 434 q 360 434 318 429 q 275 423 246 413 q 217 402 194 385 l 194 385 q 168 365 156 337 q 143 308 137 278 l 137 278 l 138 252 q 136 245 136 236 q 135 226 135 211 l 135 211 q 135 160 143 130 q 151 100 166 87 q 180 74 196 74 l 196 74 q 212 74 223 83 q 233 91 239 111 q 245 130 245 162 l 245 162 q 245 212 232 233 q 219 254 190 254 l 190 254 q 164 254 141 238 q 117 221 93 185 l 93 185 l 69 258 q 91 287 130 312 q 169 337 217 337 l 217 337 q 261 337 290 318 q 319 298 335 261 q 350 223 350 168 l 350 168 q 350 109 333 69 q 315 28 283 8 q 250 -12 201 -12 z"},"൴":{"ha":765,"x_min":36,"x_max":730,"o":"m 388 790 l 497 790 l 497 190 q 497 165 499 145 q 500 125 505 111 q 509 97 518 87 l 518 87 q 524 81 533 78 q 542 75 555 75 l 555 75 q 575 75 590 89 q 604 103 612 134 q 619 165 619 216 l 619 216 q 619 267 610 312 q 600 356 580 392 q 559 427 526 451 q 493 475 448 485 l 448 485 l 423 482 q 415 482 406 483 q 396 483 387 483 l 387 483 q 329 483 283 467 q 236 451 203 420 q 170 388 153 343 q 135 297 135 238 l 135 238 l 135 220 q 135 163 143 131 q 151 99 166 87 q 181 74 198 74 l 198 74 q 213 74 224 83 q 234 91 240 111 q 245 130 245 163 l 245 163 q 245 213 232 234 q 219 254 190 254 l 190 254 q 165 254 142 238 q 118 221 93 185 l 93 185 l 70 258 q 91 287 130 312 q 169 337 217 337 l 217 337 q 261 337 291 318 q 320 298 335 261 q 350 223 350 168 l 350 168 q 350 109 333 70 q 315 30 283 9 q 250 -12 203 -12 l 203 -12 q 158 -12 120 12 q 82 36 59 89 q 36 141 36 227 l 36 227 q 36 309 60 373 q 84 437 130 481 q 176 525 241 548 q 305 571 387 571 l 387 571 q 401 571 413 571 q 425 571 436 570 l 436 570 l 468 567 q 523 559 571 533 q 619 506 655 461 q 690 416 710 355 q 730 294 730 218 l 730 218 q 730 147 710 96 q 690 44 652 16 q 613 -12 556 -12 l 556 -12 q 513 -12 485 0 q 456 12 437 33 l 437 33 q 418 54 407 81 q 396 108 392 144 q 388 179 388 227 l 388 227 l 388 790 z"},"൵":{"ha":1004,"x_min":36,"x_max":999,"o":"m 300 571 l 300 571 q 365 571 408 547 q 450 523 483 473 l 483 473 l 501 402 l 521 244 l 521 0 l 412 0 l 412 306 q 412 370 404 402 q 396 434 380 452 l 380 452 q 367 466 349 474 q 331 482 301 482 l 301 482 q 253 482 216 455 q 179 428 158 375 q 136 322 136 246 l 136 246 l 136 228 q 136 167 144 134 q 152 100 167 87 q 181 74 199 74 l 199 74 q 214 74 225 83 q 235 92 241 112 q 246 131 246 163 l 246 163 q 246 213 233 234 q 220 254 191 254 l 191 254 q 167 254 145 239 q 122 223 98 189 l 98 189 l 79 266 q 100 292 138 315 q 175 337 219 337 l 219 337 q 262 337 292 318 q 321 298 336 261 q 351 223 351 169 l 351 169 q 351 108 334 68 q 316 28 283 8 q 250 -12 203 -12 l 203 -12 q 158 -12 120 13 q 82 37 59 93 q 36 148 36 242 l 36 242 q 36 354 71 427 q 105 500 165 536 q 225 571 300 571 z m 643 571 l 643 571 q 713 571 765 547 q 816 523 854 481 l 854 481 q 901 430 924 363 q 947 295 947 221 l 947 221 q 947 141 926 89 q 905 37 866 13 q 826 -12 767 -12 l 767 -12 q 709 -12 671 14 q 633 39 614 83 q 594 126 594 179 l 594 179 q 594 241 617 290 q 639 338 683 384 q 726 429 790 481 l 790 481 q 833 513 854 534 q 875 554 882 574 q 889 593 889 619 l 889 619 q 889 639 883 659 q 876 678 865 693 l 865 693 l 964 739 q 980 714 990 687 q 999 659 999 626 l 999 626 q 999 580 982 545 q 964 509 929 478 q 894 447 841 408 l 841 408 q 800 374 769 339 q 738 303 721 264 q 703 224 703 175 l 703 175 q 703 128 719 101 q 734 73 765 73 l 765 73 q 789 73 804 86 q 819 98 827 128 q 835 157 835 208 l 835 208 q 835 277 815 337 q 795 397 753 437 l 753 437 q 735 458 708 471 q 680 484 644 484 l 644 484 q 621 484 601 477 q 580 470 562 454 l 562 454 q 547 440 538 421 q 528 401 525 372 q 521 343 521 301 l 521 301 l 521 30 l 419 30 l 419 303 l 447 459 q 468 492 494 517 q 519 542 555 557 q 591 571 643 571 z"},"൶":{"ha":1103,"x_min":29,"x_max":1054,"o":"m 201 356 l 201 356 q 261 356 299 331 q 336 305 353 265 q 370 225 370 180 l 370 180 q 370 141 358 112 q 346 82 336 65 l 336 65 l 325 87 l 583 87 l 596 0 l 273 0 l 234 57 q 244 76 254 105 q 264 133 264 172 l 264 172 q 264 215 249 242 q 234 269 202 269 l 202 269 q 180 269 166 258 q 152 246 145 225 q 137 203 137 175 l 137 175 q 137 127 151 97 q 165 67 180 37 l 180 37 l 93 -10 q 65 31 47 76 q 29 120 29 177 l 29 177 q 29 232 50 272 q 71 311 110 334 q 149 356 201 356 z m 790 571 l 790 571 q 863 571 911 552 q 959 533 990 500 l 990 500 q 1013 475 1027 444 q 1041 412 1048 370 q 1054 327 1054 270 l 1054 270 l 1054 0 l 538 0 l 538 273 q 538 331 545 373 q 551 414 565 446 q 579 477 602 500 l 602 500 q 633 534 677 553 q 721 571 790 571 z m 730 481 l 730 481 q 710 481 693 466 q 675 450 664 422 l 664 422 q 655 400 651 368 q 646 335 646 286 l 646 286 l 646 63 l 632 66 q 674 116 707 173 q 739 229 757 287 q 775 345 775 400 l 775 400 q 775 426 771 444 q 767 462 758 472 q 748 481 730 481 z m 883 377 l 883 377 q 883 323 868 273 q 853 222 826 173 q 799 124 761 72 l 761 72 l 742 83 q 760 85 787 86 q 814 87 824 87 l 824 87 l 946 87 l 946 286 q 946 347 935 387 q 924 426 902 451 q 880 476 844 489 l 844 489 l 845 492 q 861 473 872 443 q 883 413 883 377 z"},"൷":{"ha":1426,"x_min":29,"x_max":1406,"o":"m 201 356 l 201 356 q 261 356 298 331 q 335 305 353 265 q 370 225 370 180 l 370 180 q 370 141 358 112 q 346 82 336 65 l 336 65 l 324 87 l 538 87 l 588 0 l 273 0 l 235 57 q 245 76 255 104 q 264 132 264 171 l 264 171 q 264 215 249 242 q 234 269 202 269 l 202 269 q 180 269 166 258 q 152 246 145 225 q 137 203 137 175 l 137 175 q 137 127 151 97 q 165 67 180 37 l 180 37 l 93 -10 q 65 31 47 76 q 29 120 29 178 l 29 178 q 29 232 50 272 q 71 311 110 334 q 149 356 201 356 z m 655 571 l 655 571 q 689 571 713 562 q 737 552 758 535 q 778 517 800 491 l 800 491 l 838 282 l 838 230 l 730 230 l 730 346 q 730 401 724 427 q 717 452 703 468 l 703 468 q 697 474 687 479 q 676 483 661 483 l 661 483 q 635 483 613 464 q 591 445 577 405 q 562 365 562 304 l 562 304 q 562 231 580 171 q 598 110 631 56 l 631 56 l 581 0 l 527 0 l 514 68 q 494 102 480 138 q 466 173 459 216 q 451 258 451 309 l 451 309 q 451 386 474 445 q 497 503 543 537 q 588 571 655 571 z m 966 571 l 966 571 q 1025 571 1075 549 q 1124 526 1161 483 q 1197 440 1218 376 q 1238 312 1238 229 l 1238 229 q 1238 138 1217 86 q 1195 33 1156 11 q 1117 -12 1064 -12 l 1064 -12 q 1007 -12 972 12 q 937 35 922 71 q 907 107 907 148 l 907 148 q 907 201 926 237 q 944 273 976 297 l 976 297 q 996 312 1022 321 q 1048 329 1082 333 q 1115 337 1159 337 l 1159 337 l 1226 337 l 1226 250 l 1166 250 q 1116 250 1090 244 q 1063 238 1044 224 l 1044 224 q 1029 212 1021 194 q 1013 175 1013 148 l 1013 148 q 1013 118 1026 98 q 1039 77 1065 77 l 1065 77 q 1085 77 1100 93 q 1114 109 1121 142 q 1128 174 1128 228 l 1128 228 q 1128 244 1128 259 q 1127 274 1126 287 l 1126 287 l 1120 319 q 1116 357 1100 395 q 1084 433 1052 458 q 1020 483 967 483 l 967 483 q 938 483 918 478 q 898 472 878 454 l 878 454 q 864 441 855 422 q 846 403 842 375 q 838 346 838 304 l 838 304 l 838 243 l 775 237 l 768 470 q 787 501 813 524 q 839 546 877 559 q 914 571 966 571 z m 1290 447 l 1396 469 q 1401 455 1404 437 q 1406 419 1406 400 l 1406 400 q 1406 364 1394 337 q 1381 309 1358 291 l 1358 291 q 1331 270 1294 260 q 1256 250 1192 250 l 1192 250 l 1199 250 l 1199 337 l 1187 337 q 1216 337 1236 341 q 1256 344 1269 352 l 1269 352 q 1283 360 1290 375 q 1297 389 1297 409 l 1297 409 q 1297 418 1295 429 q 1293 439 1290 447 l 1290 447 z"},"൸":{"ha":1770,"x_min":9,"x_max":1721,"o":"m 1134 571 l 1134 571 q 1155 571 1175 567 q 1194 563 1213 553 q 1231 542 1248 525 q 1265 507 1280 479 l 1280 479 l 1250 470 q 1272 504 1302 527 q 1332 549 1371 560 q 1409 571 1458 571 l 1458 571 q 1530 571 1579 552 q 1627 533 1658 500 l 1658 500 q 1680 475 1695 444 q 1709 412 1715 370 q 1721 327 1721 270 l 1721 270 l 1721 0 l 1313 0 l 1313 81 q 1348 126 1378 180 q 1407 233 1425 290 q 1443 346 1443 400 l 1443 400 q 1443 426 1439 444 q 1435 462 1425 472 q 1415 481 1397 481 l 1397 481 q 1378 481 1361 466 q 1343 451 1331 422 l 1331 422 q 1322 397 1319 364 q 1315 330 1315 275 l 1315 275 l 1315 230 l 1207 230 l 1207 349 q 1207 385 1204 411 q 1200 436 1191 454 l 1191 454 q 1184 468 1170 475 q 1156 482 1135 482 l 1135 482 q 1118 482 1105 476 q 1091 469 1085 456 l 1085 456 q 1073 440 1070 415 q 1066 390 1066 354 l 1066 354 l 1066 210 q 1066 172 1061 139 q 1055 106 1044 80 q 1032 54 1013 34 l 1013 34 q 993 14 963 1 q 932 -12 887 -12 l 887 -12 q 842 -12 811 1 q 780 14 760 34 l 760 34 q 741 55 729 82 q 717 108 712 140 q 707 172 707 209 l 707 209 l 707 351 q 707 387 704 412 q 700 436 690 454 l 690 454 q 684 468 670 475 q 656 482 636 482 l 636 482 q 618 482 605 476 q 591 469 584 456 l 584 456 q 573 440 570 415 q 566 390 566 354 l 566 354 l 566 210 q 566 141 554 102 q 541 63 516 36 l 516 36 q 494 13 464 1 q 434 -12 395 -12 l 395 -12 q 341 -12 309 9 q 277 29 254 62 l 254 62 l 267 66 q 247 39 225 22 q 202 4 177 -4 q 152 -12 122 -12 l 122 -12 q 86 -12 60 -5 q 33 2 9 15 l 9 15 l 44 98 q 62 89 83 83 q 103 77 126 77 l 126 77 q 139 77 153 80 q 167 83 177 93 l 177 93 q 193 109 199 139 q 204 169 204 227 l 204 227 l 204 555 l 313 559 l 313 221 q 313 171 318 146 q 323 120 334 102 l 334 102 q 341 91 355 84 q 369 77 385 77 l 385 77 q 403 77 417 83 q 430 88 439 101 l 439 101 q 449 117 453 140 q 457 163 457 203 l 457 203 l 457 346 q 457 387 463 420 q 468 452 479 479 q 490 506 509 525 l 509 525 q 529 545 559 558 q 589 571 635 571 l 635 571 q 679 571 711 558 q 743 545 762 525 l 762 525 q 782 506 794 480 q 805 454 811 422 q 816 389 816 350 l 816 350 l 816 211 q 816 174 819 149 q 822 123 832 105 l 832 105 q 839 92 853 85 q 866 77 886 77 l 886 77 q 905 77 919 84 q 932 91 938 103 l 938 103 q 949 120 953 145 q 957 170 957 209 l 957 209 l 957 346 q 957 387 962 420 q 967 452 979 479 q 991 506 1010 525 l 1010 525 q 1029 545 1060 558 q 1090 571 1134 571 z m 1550 377 l 1550 377 q 1550 323 1536 273 q 1521 222 1494 173 q 1466 124 1429 72 l 1429 72 l 1410 83 q 1428 85 1455 86 q 1482 87 1492 87 l 1492 87 l 1614 87 l 1614 286 q 1614 347 1603 387 q 1592 426 1570 451 q 1548 476 1512 489 l 1512 489 l 1512 492 q 1528 473 1539 443 q 1550 413 1550 377 z"},"൹":{"ha":928,"x_min":35,"x_max":906,"o":"m 239 571 l 239 571 q 273 571 297 562 q 321 552 342 535 q 362 517 384 491 l 384 491 l 422 238 l 422 0 l 314 0 l 314 346 q 314 401 308 427 q 301 452 287 468 l 287 468 q 281 474 271 479 q 260 483 245 483 l 245 483 q 220 483 198 464 q 175 444 161 403 q 146 362 146 299 l 146 299 q 146 248 156 203 q 165 158 183 119 q 200 80 223 47 l 223 47 l 137 -11 q 108 30 85 77 q 62 124 49 180 q 35 236 35 303 l 35 303 q 35 382 58 443 q 81 503 127 537 q 173 571 239 571 z m 539 571 l 539 571 q 597 571 646 549 q 694 527 730 485 q 766 442 786 378 q 805 314 805 229 l 805 229 q 805 139 784 86 q 762 33 723 11 q 684 -12 631 -12 l 631 -12 q 574 -12 540 12 q 505 35 490 71 q 475 107 475 148 l 475 148 q 475 201 493 237 q 511 273 543 297 l 543 297 q 564 312 590 321 q 615 329 649 333 q 683 337 729 337 l 729 337 l 906 337 l 906 250 l 733 250 q 683 250 657 244 q 630 238 612 224 l 612 224 q 597 212 589 194 q 580 175 580 148 l 580 148 q 580 118 594 98 q 607 77 634 77 l 634 77 q 654 77 668 93 q 682 108 690 141 q 697 173 697 228 l 697 228 q 697 244 697 259 q 696 274 695 287 l 695 287 l 689 319 q 684 358 669 395 q 653 432 623 458 q 592 483 543 483 l 543 483 q 521 483 501 477 q 480 470 462 454 l 462 454 q 447 440 439 422 q 430 403 426 375 q 422 346 422 304 l 422 304 l 422 210 l 359 224 l 349 468 q 369 498 394 522 q 419 545 454 558 q 489 571 539 571 z"},"ൺ":{"ha":1232,"x_min":36,"x_max":1198,"o":"m 300 571 l 300 571 q 365 571 407 547 q 449 523 484 474 l 484 474 l 452 483 q 479 529 516 550 q 553 571 601 571 l 601 571 q 654 571 689 547 q 723 522 748 478 l 748 478 l 749 451 l 782 334 l 782 0 l 673 0 l 673 336 q 673 389 670 415 q 666 440 654 457 l 654 457 q 645 469 632 476 q 619 483 597 483 l 597 483 q 577 483 564 476 q 551 468 542 457 l 542 457 q 528 437 524 412 q 520 386 520 333 l 520 333 l 520 0 l 412 0 l 412 307 q 412 370 404 402 q 396 434 380 452 l 380 452 q 367 466 350 474 q 332 482 301 482 l 301 482 q 253 482 216 456 q 179 429 158 376 q 136 323 136 246 l 136 246 l 136 228 q 136 167 144 134 q 152 100 167 87 q 181 74 199 74 l 199 74 q 214 74 225 83 q 235 92 241 112 q 246 131 246 163 l 246 163 q 246 213 233 234 q 220 254 191 254 l 191 254 q 167 254 145 239 q 122 223 98 189 l 98 189 l 79 266 q 100 292 138 315 q 175 337 219 337 l 219 337 q 262 337 292 318 q 321 298 336 261 q 351 223 351 169 l 351 169 q 351 109 334 69 q 316 28 283 8 q 250 -12 203 -12 l 203 -12 q 158 -12 120 13 q 82 37 59 93 q 36 148 36 242 l 36 242 q 36 353 71 427 q 105 500 165 536 q 225 571 300 571 z m 1026 -12 l 1026 -12 q 971 -12 933 14 q 895 39 876 89 q 856 139 856 212 l 856 212 q 856 266 868 315 q 880 364 906 411 q 931 457 971 502 l 971 502 l 981 530 q 1011 567 1028 596 q 1045 625 1045 651 l 1045 651 q 1045 676 1031 691 q 1017 706 988 706 l 988 706 q 978 706 964 704 q 949 702 939 699 l 939 699 l 920 783 q 938 790 966 794 q 993 797 1020 797 l 1020 797 q 1074 797 1103 777 q 1131 757 1142 728 q 1153 699 1153 670 l 1153 670 q 1153 624 1131 578 q 1109 532 1068 481 l 1068 481 l 1052 464 q 1024 427 1005 386 q 985 345 975 301 q 965 256 965 209 l 965 209 q 965 161 972 131 q 979 101 993 88 q 1006 74 1025 74 l 1025 74 q 1056 74 1071 103 q 1086 131 1086 210 l 1086 210 q 1086 255 1078 303 q 1070 350 1052 391 q 1034 431 1004 455 l 1004 455 q 987 468 967 477 q 946 486 913 486 l 913 486 q 888 486 866 479 q 844 472 825 456 l 825 456 q 811 442 802 424 q 792 405 787 377 q 782 348 782 307 l 782 307 l 782 58 l 680 58 l 680 255 l 710 460 q 731 492 757 517 q 782 542 820 557 q 858 571 912 571 l 912 571 q 949 571 982 563 q 1014 555 1039 541 l 1039 541 q 1042 541 1045 539 q 1048 536 1051 534 l 1051 534 q 1100 505 1133 457 q 1165 409 1182 348 q 1198 287 1198 219 l 1198 219 q 1198 101 1154 45 q 1109 -12 1026 -12 z"},"ൻ":{"ha":874,"x_min":35,"x_max":839,"o":"m 238 571 l 238 571 q 273 571 297 562 q 321 552 342 535 q 362 517 382 493 l 382 493 l 422 268 l 422 0 l 314 0 l 314 346 q 314 401 308 427 q 301 452 287 468 l 287 468 q 281 474 271 479 q 260 483 245 483 l 245 483 q 220 483 198 464 q 175 444 161 403 q 146 362 146 299 l 146 299 q 146 248 156 203 q 165 158 183 119 q 200 80 223 47 l 223 47 l 137 -11 q 108 30 85 77 q 62 124 49 180 q 35 236 35 303 l 35 303 q 35 382 58 443 q 81 503 127 537 q 172 571 238 571 z m 667 -12 l 667 -12 q 611 -12 573 14 q 535 39 516 89 q 497 139 497 212 l 497 212 q 497 266 509 315 q 521 364 547 411 q 572 457 611 502 l 611 502 l 621 530 q 652 567 669 596 q 686 625 686 651 l 686 651 q 686 676 672 691 q 658 706 629 706 l 629 706 q 618 706 605 704 q 592 702 579 699 l 579 699 l 560 783 q 579 790 607 794 q 634 797 661 797 l 661 797 q 715 797 744 777 q 772 757 783 728 q 794 699 794 670 l 794 670 q 794 624 772 578 q 750 532 709 481 l 709 481 l 693 464 q 665 427 645 386 q 625 345 616 301 q 606 256 606 209 l 606 209 q 606 161 613 131 q 620 101 634 88 q 647 74 666 74 l 666 74 q 697 74 712 103 q 727 131 727 210 l 727 210 q 727 255 719 303 q 711 350 693 391 q 675 431 645 455 l 645 455 q 627 468 607 477 q 587 486 553 486 l 553 486 q 529 486 507 479 q 485 472 466 456 l 466 456 q 452 442 443 424 q 433 405 428 377 q 422 348 422 307 l 422 307 l 422 58 l 320 58 l 320 255 l 351 460 q 372 492 398 517 q 423 542 461 557 q 498 571 553 571 l 553 571 q 590 571 622 563 q 654 555 680 541 l 680 541 q 683 541 686 539 q 688 536 691 534 l 691 534 q 740 505 773 457 q 806 409 823 348 q 839 287 839 219 l 839 219 q 839 101 795 45 q 750 -12 667 -12 z"},"ർ":{"ha":615,"x_min":35,"x_max":580,"o":"m 409 -12 l 409 -12 q 353 -12 315 14 q 277 39 258 89 q 238 139 238 212 l 238 212 q 238 266 251 315 q 263 364 289 411 q 314 457 353 502 l 353 502 l 363 530 q 394 567 411 596 q 428 625 428 651 l 428 651 q 428 676 414 691 q 400 706 370 706 l 370 706 q 360 706 346 704 q 331 702 321 699 l 321 699 l 302 783 q 320 790 348 794 q 376 797 403 797 l 403 797 q 456 797 485 777 q 513 757 525 728 q 536 699 536 670 l 536 670 q 536 624 514 578 q 491 532 451 481 l 451 481 l 435 464 q 406 427 387 386 q 367 345 358 301 q 348 256 348 209 l 348 209 q 348 161 355 131 q 361 101 375 88 q 389 74 408 74 l 408 74 q 438 74 454 103 q 469 131 469 210 l 469 210 q 469 244 465 279 q 460 314 450 349 q 440 383 425 411 q 410 439 386 456 l 386 456 q 369 469 352 477 q 334 485 300 485 l 300 485 q 249 485 215 461 q 180 436 163 392 q 146 347 146 288 l 146 288 q 146 234 156 192 q 165 150 184 115 q 202 80 228 49 l 228 49 l 149 -11 q 116 24 91 68 q 65 111 50 167 q 35 222 35 292 l 35 292 q 35 348 51 398 q 66 448 98 487 q 130 526 180 549 q 230 571 298 571 l 298 571 q 335 571 366 564 q 396 556 422 543 l 422 543 q 425 542 428 540 q 430 537 433 535 l 433 535 q 482 506 515 458 q 547 409 564 348 q 580 286 580 218 l 580 218 q 580 101 536 45 q 492 -12 409 -12 z"},"ൽ":{"ha":1004,"x_min":35,"x_max":969,"o":"m 610 571 l 610 571 q 663 571 700 565 q 737 558 765 547 q 793 536 817 522 l 817 522 l 839 512 q 906 462 938 385 q 969 307 969 215 l 969 215 q 969 101 925 45 q 881 -12 797 -12 l 797 -12 q 742 -12 704 14 q 666 39 647 89 q 627 139 627 212 l 627 212 q 627 266 639 315 q 651 364 677 411 q 703 457 742 502 l 742 502 l 749 525 q 782 564 799 595 q 816 625 816 651 l 816 651 q 816 676 802 691 q 788 706 759 706 l 759 706 q 749 706 735 704 q 720 702 710 699 l 710 699 l 691 783 q 709 790 737 794 q 764 797 791 797 l 791 797 q 845 797 874 777 q 902 757 913 728 q 924 699 924 670 l 924 670 q 924 624 902 578 q 880 532 839 481 l 839 481 l 823 464 q 795 427 776 386 q 756 345 746 301 q 736 256 736 209 l 736 209 q 736 161 743 131 q 750 101 764 88 q 778 74 797 74 l 797 74 q 827 74 842 103 q 857 131 857 209 l 857 209 q 857 254 848 300 q 838 346 819 384 q 800 422 771 444 l 771 444 l 738 456 q 709 472 678 478 q 647 483 612 483 l 612 483 q 574 483 540 477 q 506 470 479 457 l 479 457 l 458 454 q 411 421 384 356 q 356 290 356 203 l 356 203 q 356 153 365 125 q 373 97 388 86 q 403 75 420 75 l 420 75 q 438 75 453 87 q 467 98 476 129 q 484 159 484 215 l 484 215 q 484 273 472 323 q 459 372 436 408 q 413 444 381 464 l 381 464 l 365 472 q 352 480 336 483 q 320 486 305 486 l 305 486 q 253 486 218 461 q 182 436 165 391 q 147 346 147 287 l 147 287 q 147 234 157 192 q 166 150 184 116 q 202 81 228 50 l 228 50 l 147 -10 q 116 25 91 68 q 65 111 50 166 q 35 221 35 292 l 35 292 q 35 344 49 394 q 62 443 92 484 q 122 524 172 548 q 221 571 294 571 l 294 571 q 337 571 372 561 q 406 550 435 529 l 435 529 l 450 516 q 519 470 557 397 q 594 324 594 218 l 594 218 q 594 142 574 91 q 553 39 514 14 q 474 -12 417 -12 l 417 -12 q 363 -12 325 15 q 287 41 267 92 q 246 142 246 212 l 246 212 q 246 269 259 320 q 272 371 302 415 q 331 458 383 492 l 383 492 l 403 516 q 435 542 488 557 q 540 571 610 571 z"},"ൾ":{"ha":862,"x_min":35,"x_max":827,"o":"m 650 797 l 650 797 q 704 797 732 777 q 760 757 771 728 q 782 699 782 670 l 782 670 q 782 624 759 578 q 736 532 697 481 l 697 481 l 681 464 q 653 427 633 386 q 613 345 604 301 q 594 256 594 209 l 594 209 q 594 161 601 131 q 608 101 622 88 q 635 74 655 74 l 655 74 q 684 74 700 103 q 715 131 715 210 l 715 210 q 715 244 711 279 q 707 314 698 349 q 688 383 673 411 q 657 439 634 457 l 634 457 q 615 470 597 477 q 579 484 548 484 l 548 484 q 525 484 505 479 q 484 473 468 462 l 468 462 q 435 439 426 395 q 417 350 417 283 l 417 283 l 417 203 q 417 169 413 139 q 408 108 399 83 q 390 58 371 38 l 371 38 q 348 14 316 1 q 283 -12 238 -12 l 238 -12 q 174 -12 129 20 q 83 52 59 111 q 35 170 35 252 l 35 252 q 35 325 49 383 q 62 440 85 487 q 108 533 137 572 l 137 572 l 223 514 q 200 480 183 442 q 165 403 156 358 q 146 312 146 257 l 146 257 q 146 196 158 156 q 169 116 190 97 q 210 77 235 77 l 235 77 q 254 77 268 84 q 281 90 289 103 l 289 103 q 299 120 304 145 q 308 169 308 225 l 308 225 l 308 308 q 308 387 328 442 q 347 496 388 527 l 388 527 q 417 549 454 560 q 490 571 546 571 l 546 571 q 585 571 614 564 q 642 557 667 544 l 667 544 l 680 536 q 729 507 762 459 q 794 410 811 349 q 827 287 827 219 l 827 219 q 827 101 783 45 q 738 -12 655 -12 l 655 -12 q 599 -12 561 14 q 523 39 504 89 q 485 139 485 212 l 485 212 q 485 266 497 315 q 509 364 535 411 q 560 457 599 502 l 599 502 l 610 530 q 640 567 657 596 q 674 625 674 651 l 674 651 q 674 676 660 691 q 646 706 617 706 l 617 706 q 606 706 592 704 q 577 702 567 699 l 567 699 l 548 783 q 567 790 595 794 q 623 797 650 797 z"},"ൿ":{"ha":1000,"x_min":29,"x_max":970,"o":"m 429 571 l 429 571 q 499 571 542 537 q 585 502 606 437 q 627 372 627 281 l 627 281 q 627 180 604 115 q 580 50 536 19 q 491 -12 429 -12 l 429 -12 q 377 -12 341 9 q 305 29 283 60 l 283 60 q 253 103 242 161 q 230 219 230 284 l 230 284 q 230 427 283 499 q 335 571 429 571 z m 429 484 l 429 484 q 382 484 360 437 q 337 390 337 280 l 337 280 q 337 207 347 162 q 357 116 378 96 q 398 75 429 75 l 429 75 q 458 75 479 95 q 499 115 510 161 q 520 206 520 280 l 520 280 q 520 354 510 399 q 499 444 479 464 q 459 484 429 484 z m 185 -12 l 185 -12 q 110 -12 70 33 q 29 78 29 156 l 29 156 q 29 211 52 246 q 74 281 112 302 l 112 302 q 133 314 158 322 q 183 330 219 334 q 254 337 309 337 l 309 337 l 725 337 q 787 337 831 328 q 874 319 908 292 l 908 292 q 936 271 953 238 q 970 204 970 152 l 970 152 q 970 77 933 33 q 896 -12 819 -12 l 819 -12 q 741 -12 703 35 q 665 82 665 155 l 665 155 q 665 187 672 218 q 678 249 689 282 l 689 282 q 691 287 693 294 q 694 301 696 306 l 696 306 q 707 336 722 371 q 736 406 756 450 l 756 450 q 775 496 789 532 q 803 568 811 597 q 818 626 818 650 l 818 650 q 818 676 804 691 q 790 706 761 706 l 761 706 q 752 706 737 704 q 722 702 712 699 l 712 699 l 693 783 q 712 790 741 794 q 769 797 796 797 l 796 797 q 849 797 877 777 q 905 757 916 729 q 927 701 927 674 l 927 674 q 927 651 923 628 q 919 604 910 576 q 901 547 888 512 q 875 476 854 430 l 854 430 q 837 389 824 359 q 811 328 802 303 l 802 303 q 799 295 796 288 q 792 280 789 272 l 789 272 q 778 240 772 213 q 766 186 766 153 l 766 153 q 766 126 774 109 q 781 92 792 84 q 803 76 816 76 l 816 76 q 841 76 854 96 q 866 115 866 147 l 866 147 q 866 175 858 195 q 850 214 835 226 l 835 226 q 817 240 790 245 q 762 250 725 250 l 725 250 l 278 250 q 237 250 211 246 q 185 241 166 229 l 166 229 q 152 217 142 200 q 132 183 132 158 l 132 158 q 132 133 140 114 q 147 95 163 86 q 179 76 204 76 l 204 76 q 228 76 248 85 q 267 94 290 114 l 290 114 l 339 38 q 312 17 287 7 q 262 -4 238 -8 q 213 -12 185 -12 z"},"!":{"ha":261,"x_min":62,"x_max":198,"o":"m 174 225 l 86 225 l 64 714 l 196 714 l 174 225 z m 131 -13 l 131 -13 q 98 -13 80 7 q 62 26 62 62 l 62 62 q 62 100 80 119 q 97 137 131 137 l 131 137 q 162 137 180 120 q 198 102 198 62 l 198 62 q 198 24 179 6 q 160 -13 131 -13 z"},"\"":{"ha":421,"x_min":60,"x_max":361,"o":"m 158 542 l 77 542 l 60 800 l 175 800 l 158 542 z m 345 542 l 264 542 l 247 800 l 361 800 l 345 542 z"},"#":{"ha":519,"x_min":28,"x_max":491,"o":"m 146 0 l 65 0 l 103 205 l 28 205 l 28 288 l 119 288 l 146 430 l 51 430 l 51 512 l 161 512 l 201 713 l 283 713 l 244 512 l 334 512 l 374 713 l 455 713 l 416 512 l 491 512 l 491 430 l 400 430 l 372 288 l 467 288 l 467 205 l 356 205 l 317 0 l 235 0 l 274 205 l 185 205 l 146 0 z m 229 430 l 201 288 l 290 288 l 318 430 l 229 430 z"},"%":{"ha":726,"x_min":35,"x_max":691,"o":"m 272 0 l 186 0 l 453 714 l 539 714 l 272 0 z m 165 276 l 165 276 q 97 276 66 336 q 35 396 35 499 l 35 499 q 35 605 67 665 q 98 724 168 724 l 168 724 q 235 724 267 665 q 298 605 298 501 l 298 501 q 298 395 267 336 q 235 276 165 276 z m 166 358 l 166 358 q 187 358 197 392 q 206 425 206 500 l 206 500 q 206 575 197 608 q 187 641 167 641 l 167 641 q 146 641 137 608 q 127 574 127 500 l 127 500 q 127 425 137 392 q 147 358 166 358 z m 558 -8 l 558 -8 q 490 -8 459 52 q 428 112 428 215 l 428 215 q 428 321 460 381 q 491 440 561 440 l 561 440 q 628 440 660 381 q 691 321 691 217 l 691 217 q 691 111 660 52 q 628 -8 558 -8 z m 562 74 l 562 74 q 583 74 592 108 q 601 142 601 216 l 601 216 q 601 291 592 324 q 583 357 562 357 l 562 357 q 542 357 532 324 q 522 290 522 216 l 522 216 q 522 142 533 108 q 543 74 562 74 z"},"'":{"ha":235,"x_min":60,"x_max":175,"o":"m 158 542 l 77 542 l 60 800 l 175 800 l 158 542 z"},"(":{"ha":327,"x_min":45,"x_max":298,"o":"m 45 277 l 45 277 q 45 370 63 466 q 80 562 114 649 q 148 736 195 800 l 195 800 l 298 800 q 253 729 220 644 q 187 558 170 465 q 152 372 152 277 l 152 277 q 152 183 169 92 q 186 0 219 -84 q 251 -169 298 -244 l 298 -244 l 195 -244 q 144 -174 111 -86 q 78 1 62 95 q 45 188 45 277 z"},")":{"ha":327,"x_min":29,"x_max":282,"o":"m 282 280 l 282 280 q 282 188 265 91 q 247 -6 213 -93 q 179 -180 132 -244 l 132 -244 l 29 -244 q 75 -172 108 -87 q 140 -2 158 92 q 175 185 175 280 l 175 280 q 175 375 158 466 q 141 557 109 642 q 76 726 29 800 l 29 800 l 132 800 q 183 731 216 644 q 249 557 266 463 q 282 369 282 280 z"},"*":{"ha":515,"x_min":33,"x_max":482,"o":"m 203 800 l 310 800 l 294 628 l 467 676 l 482 572 l 318 560 l 424 419 l 331 367 l 255 520 l 188 367 l 91 419 l 196 560 l 33 573 l 50 676 l 220 629 l 203 800 z"},"+":{"ha":454,"x_min":31,"x_max":422,"o":"m 273 117 l 181 117 l 181 307 l 31 307 l 31 398 l 181 398 l 181 591 l 273 591 l 273 398 l 422 398 l 422 307 l 273 307 l 273 117 z"},",":{"ha":266,"x_min":40,"x_max":201,"o":"m 82 115 l 194 115 l 201 104 q 192 57 181 18 q 170 -22 157 -58 q 144 -94 129 -131 l 129 -131 l 40 -131 q 50 -93 58 -49 q 66 -5 73 38 q 79 81 82 115 l 82 115 z"},"-":{"ha":310,"x_min":33,"x_max":277,"o":"m 277 220 l 33 220 l 33 319 l 277 319 l 277 220 z"},".":{"ha":260,"x_min":62,"x_max":198,"o":"m 130 -13 l 130 -13 q 98 -13 80 7 q 62 26 62 62 l 62 62 q 62 99 80 118 q 97 137 130 137 l 130 137 q 163 137 181 119 q 198 100 198 62 l 198 62 q 198 25 180 6 q 162 -13 130 -13 z"},"/":{"ha":404,"x_min":18,"x_max":386,"o":"m 123 -244 l 18 -244 l 281 800 l 386 800 l 123 -244 z"},":":{"ha":260,"x_min":63,"x_max":198,"o":"m 130 -13 l 130 -13 q 98 -13 81 7 q 63 26 63 62 l 63 62 q 63 99 80 118 q 96 137 130 137 l 130 137 q 163 137 181 119 q 198 100 198 62 l 198 62 q 198 25 180 6 q 161 -13 130 -13 z m 130 393 l 130 393 q 98 393 81 413 q 63 432 63 468 l 63 468 q 63 506 80 525 q 96 544 130 544 l 130 544 q 164 544 181 525 q 198 506 198 469 l 198 469 q 198 432 180 413 q 161 393 130 393 z"},";":{"ha":262,"x_min":40,"x_max":201,"o":"m 83 115 l 195 115 l 201 104 q 193 57 182 18 q 170 -22 157 -58 q 144 -94 129 -131 l 129 -131 l 40 -131 q 50 -93 59 -49 q 67 -5 73 38 q 79 80 83 115 l 83 115 z m 128 393 l 128 393 q 96 393 79 413 q 61 432 61 468 l 61 468 q 61 506 78 525 q 95 544 128 544 l 128 544 q 162 544 179 525 q 196 506 196 469 l 196 469 q 196 432 178 413 q 159 393 128 393 z"},"<":{"ha":454,"x_min":31,"x_max":424,"o":"m 424 229 l 424 126 l 31 326 l 31 389 l 424 588 l 424 486 l 158 357 l 424 229 z"},"=":{"ha":454,"x_min":30,"x_max":424,"o":"m 424 201 l 30 201 l 30 291 l 424 291 l 424 201 z m 424 413 l 30 413 l 30 503 l 424 503 l 424 413 z"},">":{"ha":454,"x_min":30,"x_max":423,"o":"m 423 326 l 30 126 l 30 228 l 296 357 l 30 486 l 30 588 l 423 390 l 423 326 z"},"?":{"ha":361,"x_min":33,"x_max":334,"o":"m 173 724 l 173 724 q 253 724 294 679 q 334 633 334 561 l 334 561 q 334 519 327 489 q 319 458 302 429 q 285 400 256 361 l 256 361 q 238 336 228 318 q 217 299 213 283 q 208 266 208 248 l 208 248 l 208 224 l 108 224 l 108 255 q 108 286 115 313 q 122 339 137 364 q 152 388 173 413 l 173 413 q 194 440 205 461 q 216 482 221 503 q 225 523 225 547 l 225 547 q 225 586 204 605 q 182 624 149 624 l 149 624 q 130 624 110 619 q 90 613 72 603 l 72 603 l 33 689 q 69 707 100 716 q 131 724 173 724 z m 159 -13 l 159 -13 q 128 -13 110 7 q 91 26 91 62 l 91 62 q 91 99 109 118 q 126 137 159 137 l 159 137 q 192 137 210 119 q 227 100 227 62 l 227 62 q 227 25 209 6 q 191 -13 159 -13 z"},"[":{"ha":329,"x_min":67,"x_max":293,"o":"m 293 -244 l 67 -244 l 67 800 l 293 800 l 293 710 l 173 710 l 173 -154 l 293 -154 l 293 -244 z"},"\\":{"ha":404,"x_min":18,"x_max":386,"o":"m 386 -244 l 281 -244 l 18 800 l 123 800 l 386 -244 z"},"]":{"ha":328,"x_min":37,"x_max":261,"o":"m 261 -244 l 37 -244 l 37 -154 l 157 -154 l 157 710 l 37 710 l 37 800 l 261 800 l 261 -244 z"},"^":{"ha":488,"x_min":18,"x_max":470,"o":"m 121 333 l 18 333 l 210 715 l 271 715 l 470 333 l 366 333 l 240 575 l 121 333 z"},"_":{"ha":362,"x_min":-2,"x_max":364,"o":"m 364 -156 l -2 -156 l -2 -90 l 364 -90 l 364 -156 z"},"{":{"ha":372,"x_min":26,"x_max":336,"o":"m 336 -154 l 336 -244 q 263 -244 222 -224 q 181 -204 164 -168 q 147 -133 147 -85 l 147 -85 l 147 147 q 147 193 116 213 q 85 232 26 232 l 26 232 l 26 326 q 85 327 116 346 q 147 365 147 411 l 147 411 l 147 642 q 147 690 164 726 q 181 761 222 781 q 263 800 336 800 l 336 800 l 336 710 q 290 709 272 687 q 253 665 253 622 l 253 622 l 253 389 q 253 344 227 318 q 201 291 147 283 l 147 283 l 147 277 q 201 268 227 242 q 253 215 253 170 l 253 170 l 253 -67 q 253 -95 261 -114 q 269 -133 288 -143 q 306 -153 336 -154 l 336 -154 z"},"|":{"ha":551,"x_min":228,"x_max":323,"o":"m 323 -244 l 228 -244 l 228 800 l 323 800 l 323 -244 z"},"}":{"ha":372,"x_min":37,"x_max":345,"o":"m 37 710 l 37 800 q 110 800 151 781 q 191 761 208 725 q 225 689 225 641 l 225 641 l 225 411 q 225 365 256 346 q 287 326 345 326 l 345 326 l 345 232 q 287 232 256 213 q 225 193 225 148 l 225 148 l 225 -86 q 225 -134 207 -169 q 189 -205 148 -224 q 107 -244 37 -244 l 37 -244 l 37 -154 q 81 -152 100 -130 q 118 -109 118 -66 l 118 -66 l 118 170 q 118 214 145 241 q 172 268 226 276 l 226 276 l 226 282 q 171 291 145 318 q 118 344 118 389 l 118 389 l 118 623 q 118 651 110 670 q 102 689 85 699 q 67 709 37 710 l 37 710 z"},"~":{"ha":454,"x_min":31,"x_max":425,"o":"m 215 309 l 215 309 q 189 323 169 330 q 149 336 130 336 l 130 336 q 105 336 80 320 q 54 304 31 277 l 31 277 l 31 375 q 52 401 78 414 q 103 427 133 427 l 133 427 q 162 427 188 419 q 213 410 241 396 l 241 396 q 266 383 287 377 q 307 370 326 370 l 326 370 q 351 370 377 387 q 403 403 425 428 l 425 428 l 425 330 q 404 305 379 292 q 353 279 322 279 l 322 279 q 292 279 268 287 q 244 295 215 309 z"}," ":{"ha":221,"x_min":0,"x_max":0,"o":""},"­":{"ha":310,"x_min":33,"x_max":277,"o":"m 277 220 l 33 220 l 33 319 l 277 319 l 277 220 z"},"–":{"ha":500,"x_min":39,"x_max":461,"o":"m 461 219 l 39 219 l 39 317 l 461 317 l 461 219 z"},"—":{"ha":1000,"x_min":39,"x_max":961,"o":"m 961 219 l 39 219 l 39 317 l 961 317 l 961 219 z"},"‘":{"ha":240,"x_min":41,"x_max":202,"o":"m 159 554 l 47 554 l 41 565 q 50 612 61 652 q 71 691 85 728 q 98 764 114 800 l 114 800 l 202 800 q 192 762 184 718 q 175 673 169 631 q 163 589 159 554 l 159 554 z"},"’":{"ha":240,"x_min":40,"x_max":201,"o":"m 83 800 l 195 800 l 201 789 q 193 743 182 704 q 170 664 158 628 q 145 592 129 554 l 129 554 l 40 554 q 47 582 54 615 q 61 647 67 681 q 72 715 77 746 q 81 776 83 800 l 83 800 z"},"“":{"ha":431,"x_min":40,"x_max":393,"o":"m 350 555 l 238 555 l 233 565 q 242 613 253 653 q 263 692 277 729 q 290 765 304 800 l 304 800 l 393 800 q 383 760 375 718 q 366 675 360 634 q 354 593 350 555 l 350 555 z m 159 555 l 46 555 l 40 565 q 50 613 61 653 q 71 692 85 729 q 98 765 113 800 l 113 800 l 201 800 q 192 762 183 718 q 174 673 168 631 q 162 589 159 555 l 159 555 z"},"”":{"ha":431,"x_min":40,"x_max":393,"o":"m 275 800 l 386 800 l 393 790 q 384 743 373 704 q 362 664 349 628 q 336 592 320 555 l 320 555 l 232 555 q 243 598 251 640 q 259 681 265 722 q 271 762 275 800 l 275 800 z m 83 800 l 195 800 l 201 790 q 193 743 182 704 q 170 664 158 628 q 145 592 129 555 l 129 555 l 40 555 q 47 582 54 615 q 60 647 66 681 q 72 715 77 746 q 81 776 83 800 l 83 800 z"},"…":{"ha":757,"x_min":63,"x_max":694,"o":"m 130 -13 l 130 -13 q 99 -13 81 7 q 63 26 63 62 l 63 62 q 63 99 80 118 q 97 137 130 137 l 130 137 q 163 137 181 119 q 198 100 198 62 l 198 62 q 198 25 180 6 q 162 -13 130 -13 z m 378 -13 l 378 -13 q 346 -13 328 7 q 310 26 310 62 l 310 62 q 310 99 328 118 q 345 137 378 137 l 378 137 q 410 137 428 119 q 446 100 446 62 l 446 62 q 446 25 428 6 q 409 -13 378 -13 z m 626 -13 l 626 -13 q 594 -13 576 7 q 558 26 558 62 l 558 62 q 558 99 576 118 q 593 137 626 137 l 626 137 q 658 137 676 119 q 694 100 694 62 l 694 62 q 694 25 676 6 q 657 -13 626 -13 z"},"×":{"ha":454,"x_min":34,"x_max":420,"o":"m 225 417 l 356 546 l 420 484 l 289 353 l 417 223 l 355 161 l 225 290 l 96 161 l 34 224 l 161 353 l 34 482 l 96 545 l 225 417 z"},"÷":{"ha":454,"x_min":31,"x_max":422,"o":"m 422 307 l 31 307 l 31 398 l 422 398 l 422 307 z m 228 104 l 228 104 q 199 104 183 122 q 166 139 166 174 l 166 174 q 166 210 183 228 q 199 245 228 245 l 228 245 q 257 245 273 228 q 288 210 288 174 l 288 174 q 288 139 272 122 q 255 104 228 104 z m 228 460 l 228 460 q 199 460 183 478 q 166 495 166 531 l 166 531 q 166 566 183 584 q 199 602 228 602 l 228 602 q 257 602 273 584 q 288 566 288 531 l 288 531 q 288 496 272 478 q 255 460 228 460 z"},"−":{"ha":454,"x_min":32,"x_max":423,"o":"m 423 307 l 32 307 l 32 398 l 423 398 l 423 307 z"},"₹":{"ha":454,"x_min":51,"x_max":407,"o":"m 317 0 l 191 0 l 52 268 l 65 355 l 84 355 q 127 355 145 364 q 163 373 173 390 l 173 390 q 185 410 189 435 q 192 459 192 489 l 192 489 q 192 535 186 559 q 180 582 165 600 l 165 600 q 154 613 136 620 q 118 626 83 626 l 83 626 l 51 626 l 51 714 l 407 714 l 407 626 l 251 626 q 271 610 284 578 q 297 545 297 489 l 297 489 q 297 425 282 382 q 266 338 233 311 q 199 283 148 272 l 148 272 l 155 287 l 317 0 z m 407 449 l 51 449 l 51 540 l 407 540 l 407 449 z"},"꠰":{"ha":233,"x_min":62,"x_max":171,"o":"m 62 0 l 62 559 l 171 559 l 171 0 l 62 0 z"},"꠱":{"ha":404,"x_min":62,"x_max":342,"o":"m 62 0 l 62 559 l 171 559 l 171 0 l 62 0 z m 233 0 l 233 559 l 342 559 l 342 0 l 233 0 z"},"꠲":{"ha":574,"x_min":62,"x_max":512,"o":"m 62 0 l 62 559 l 171 559 l 171 0 l 62 0 z m 233 0 l 233 559 l 341 559 l 341 0 l 233 0 z m 404 0 l 404 559 l 512 559 l 512 0 l 404 0 z"},"॑":{"ha":0,"x_min":-320,"x_max":-238,"o":"m -320 653 l -320 864 l -238 864 l -238 653 l -320 653 z"},"॒":{"ha":0,"x_min":-484,"x_max":-74,"o":"m -74 -107 l -74 -185 l -484 -185 l -484 -107 l -74 -107 z"},"।":{"ha":303,"x_min":127,"x_max":238,"o":"m 238 -49 l 127 -49 l 127 603 l 238 603 l 238 -49 z"},"॥":{"ha":523,"x_min":128,"x_max":458,"o":"m 458 -49 l 348 -49 l 348 603 l 458 603 l 458 -49 z m 238 -49 l 128 -49 l 128 603 l 238 603 l 238 -49 z"},"᳚":{"ha":0,"x_min":-379,"x_max":-179,"o":"m -379 653 l -379 864 l -305 864 l -305 653 l -379 653 z m -253 653 l -253 864 l -179 864 l -179 653 l -253 653 z"},"̇":{"ha":0,"x_min":-312,"x_max":-196,"o":"m -312 701 l -312 701 q -312 736 -295 751 q -278 766 -254 766 l -254 766 q -227 766 -211 751 q -196 736 -196 701 l -196 701 q -196 666 -212 651 q -228 636 -254 636 l -254 636 q -278 636 -295 651 q -312 666 -312 701 z"},"̣":{"ha":0,"x_min":-312,"x_max":-195,"o":"m -312 -135 l -312 -135 q -312 -100 -295 -85 q -278 -70 -254 -70 l -254 -70 q -227 -70 -211 -85 q -195 -100 -195 -135 l -195 -135 q -195 -170 -211 -185 q -228 -201 -253 -201 l -253 -201 q -278 -201 -295 -185 q -312 -170 -312 -135 z"},"‐":{"ha":310,"x_min":33,"x_max":277,"o":"m 277 220 l 33 220 l 33 319 l 277 319 l 277 220 z"},"​":{"ha":0,"x_min":0,"x_max":0,"o":""},"‌":{"ha":0,"x_min":0,"x_max":0,"o":""},"‍":{"ha":0,"x_min":-161,"x_max":161,"o":"m 29 -244 l -29 -244 l -29 565 l -121 474 l -161 514 l -40 631 l -161 748 l -121 788 l 0 669 l 121 788 l 161 748 l 40 631 l 161 514 l 121 474 l 29 565 l 29 -244 z"},"◌":{"ha":562,"x_min":56,"x_max":503,"o":"m 88 231 l 88 231 q 56 231 56 264 l 56 264 q 56 295 88 295 l 88 295 q 120 295 120 264 l 120 264 q 120 231 88 231 z m 137 95 l 137 95 q 105 95 105 127 l 105 127 q 105 158 137 158 l 137 158 q 168 158 168 127 l 168 127 q 168 95 137 95 z m 280 40 l 280 40 q 248 40 248 72 l 248 72 q 248 104 280 104 l 280 104 q 311 104 311 72 l 311 72 q 311 40 280 40 z m 137 369 l 137 369 q 105 369 105 401 l 105 401 q 105 432 137 432 l 137 432 q 168 432 168 401 l 168 401 q 168 369 137 369 z m 422 95 l 422 95 q 390 95 390 127 l 390 127 q 390 158 422 158 l 422 158 q 454 158 454 127 l 454 127 q 454 95 422 95 z m 280 424 l 280 424 q 248 424 248 456 l 248 456 q 248 487 280 487 l 280 487 q 311 487 311 456 l 311 456 q 311 424 280 424 z m 471 231 l 471 231 q 440 231 440 264 l 440 264 q 440 295 471 295 l 471 295 q 503 295 503 264 l 503 264 q 503 231 471 231 z m 422 369 l 422 369 q 390 369 390 401 l 390 401 q 390 432 422 432 l 422 432 q 454 432 454 401 l 454 401 q 454 369 422 369 z"},"«":{"ha":499,"x_min":32,"x_max":465,"o":"m 32 263 l 32 277 l 179 485 l 259 444 l 154 270 l 259 98 l 179 55 l 32 263 z m 239 263 l 239 277 l 387 485 l 465 444 l 362 270 l 465 98 l 387 55 l 239 263 z"},"»":{"ha":499,"x_min":34,"x_max":468,"o":"m 468 277 l 468 263 l 319 55 l 241 98 l 345 270 l 241 444 l 319 485 l 468 277 z m 261 277 l 261 263 l 112 55 l 34 98 l 137 270 l 34 444 l 112 485 l 261 277 z"},"̈":{"ha":0,"x_min":-134,"x_max":136,"o":"m -134 676 l -134 676 q -134 707 -119 722 q -104 736 -81 736 l -81 736 q -57 736 -42 721 q -27 705 -27 676 l -27 676 q -27 647 -42 631 q -57 615 -81 615 l -81 615 q -104 615 -119 631 q -134 647 -134 676 z m 29 676 l 29 676 q 29 707 45 722 q 60 736 83 736 l 83 736 q 107 736 122 721 q 137 705 137 676 l 137 676 q 137 647 122 631 q 107 615 82 615 l 82 615 q 58 615 44 631 q 29 647 29 676 z"},"̀":{"ha":0,"x_min":-397,"x_max":-184,"o":"m -397 766 l -269 766 q -259 745 -243 717 q -228 688 -212 662 q -197 635 -184 618 l -184 618 l -184 606 l -261 606 q -275 618 -294 638 q -313 657 -333 680 q -354 702 -370 722 q -387 742 -397 757 l -397 757 l -397 766 z"},"́":{"ha":0,"x_min":-296,"x_max":-84,"o":"m -83 766 l -83 757 q -93 742 -109 723 q -125 704 -144 682 q -163 660 -183 641 q -203 621 -219 606 l -219 606 l -296 606 l -296 618 q -278 645 -262 670 q -247 695 -234 720 q -222 744 -212 766 l -212 766 l -83 766 z"},"̋":{"ha":0,"x_min":-108,"x_max":223,"o":"m 223 766 l 223 757 q 215 741 201 721 q 186 701 168 680 q 149 658 131 639 q 112 620 97 606 l 97 606 l 41 606 l 41 618 q 57 645 73 674 q 88 703 100 728 q 111 752 116 766 l 116 766 l 223 766 z m 74 766 l 74 757 q 66 740 52 721 q 38 701 21 681 q 3 660 -16 641 q -36 622 -55 606 l -55 606 l -108 606 l -108 618 q -92 647 -77 675 q -62 703 -50 728 q -39 752 -33 766 l -33 766 l 74 766 z"},"̄":{"ha":0,"x_min":-131,"x_max":132,"o":"m -131 702 l 132 702 l 132 617 l -131 617 l -131 702 z"},"˙":{"ha":202,"x_min":40,"x_max":162,"o":"m 102 753 l 102 753 q 133 753 148 736 q 162 718 162 685 l 162 685 q 162 652 148 635 q 133 618 102 618 l 102 618 q 72 618 56 635 q 40 652 40 685 l 40 685 q 40 719 56 736 q 71 753 102 753 z"},"°":{"ha":365,"x_min":35,"x_max":330,"o":"m 182 441 l 182 441 q 140 441 107 459 q 73 476 54 508 q 35 540 35 582 l 35 582 q 35 625 55 657 q 74 689 108 706 q 141 723 182 723 l 182 723 q 225 723 258 706 q 291 689 311 657 q 330 625 330 582 l 330 582 q 330 540 311 508 q 291 476 258 459 q 224 441 182 441 z m 182 508 l 182 508 q 213 508 234 528 q 255 548 255 582 l 255 582 q 255 617 235 637 q 214 656 182 656 l 182 656 q 151 656 131 636 q 110 615 110 582 l 110 582 q 110 548 132 528 q 154 508 182 508 z"},"A":{"ha":496,"x_min":0,"x_max":496,"o":"m 496 0 l 373 0 l 332 192 l 165 192 l 125 0 l 0 0 l 174 714 l 320 714 l 496 0 z m 312 296 l 267 508 q 262 532 259 550 q 255 568 253 584 q 250 600 247 618 l 247 618 q 246 603 243 584 q 239 565 235 546 q 231 526 227 510 l 227 510 l 184 296 l 312 296 z"},"Á":{"ha":496,"x_min":0,"x_max":496,"o":"m 496 0 l 373 0 l 332 192 l 165 192 l 125 0 l 0 0 l 174 714 l 320 714 l 496 0 z m 312 296 l 267 508 q 262 532 259 550 q 255 568 253 584 q 250 600 247 618 l 247 618 q 246 603 243 584 q 239 565 235 546 q 231 526 227 510 l 227 510 l 184 296 l 312 296 z m 395 937 l 395 928 q 385 913 369 894 q 353 875 334 853 q 315 831 295 812 q 275 792 259 777 l 259 777 l 182 777 l 182 789 q 200 816 216 841 q 231 866 244 891 q 256 915 266 937 l 266 937 l 395 937 z"},"Ă":{"ha":496,"x_min":0,"x_max":496,"o":"m 496 0 l 373 0 l 332 192 l 165 192 l 125 0 l 0 0 l 174 714 l 320 714 l 496 0 z m 312 296 l 267 508 q 262 532 259 550 q 255 568 253 584 q 250 600 247 618 l 247 618 q 246 603 243 584 q 239 565 235 546 q 231 526 227 510 l 227 510 l 184 296 l 312 296 z m 324 931 l 392 931 q 392 885 372 850 q 352 815 320 797 q 287 778 247 778 l 247 778 q 187 778 147 817 q 107 856 106 931 l 106 931 l 174 931 q 175 907 185 892 q 194 876 212 869 q 229 862 249 862 l 249 862 q 269 862 286 869 q 303 876 314 892 q 324 907 324 931 l 324 931 z"},"Â":{"ha":496,"x_min":0,"x_max":496,"o":"m 496 0 l 373 0 l 332 192 l 165 192 l 125 0 l 0 0 l 174 714 l 320 714 l 496 0 z m 312 296 l 267 508 q 262 532 259 550 q 255 568 253 584 q 250 600 247 618 l 247 618 q 246 603 243 584 q 239 565 235 546 q 231 526 227 510 l 227 510 l 184 296 l 312 296 z m 190 937 l 307 937 q 318 915 333 890 q 347 865 365 839 q 383 813 401 789 l 401 789 l 401 777 l 336 777 q 317 794 294 817 q 270 839 248 867 l 248 867 q 226 839 202 816 q 178 792 161 777 l 161 777 l 96 777 l 96 789 q 112 811 131 838 q 149 865 165 892 q 181 918 190 937 l 190 937 z"},"Ä":{"ha":496,"x_min":0,"x_max":496,"o":"m 496 0 l 373 0 l 332 192 l 165 192 l 125 0 l 0 0 l 174 714 l 320 714 l 496 0 z m 312 296 l 267 508 q 262 532 259 550 q 255 568 253 584 q 250 600 247 618 l 247 618 q 246 603 243 584 q 239 565 235 546 q 231 526 227 510 l 227 510 l 184 296 l 312 296 z m 112 847 l 112 847 q 112 878 127 893 q 142 907 165 907 l 165 907 q 189 907 204 892 q 219 876 219 847 l 219 847 q 219 818 204 802 q 189 786 165 786 l 165 786 q 142 786 127 802 q 112 818 112 847 z m 275 847 l 275 847 q 275 878 291 893 q 306 907 329 907 l 329 907 q 353 907 368 892 q 383 876 383 847 l 383 847 q 383 818 368 802 q 353 786 328 786 l 328 786 q 304 786 290 802 q 275 818 275 847 z"},"À":{"ha":496,"x_min":0,"x_max":496,"o":"m 496 0 l 373 0 l 332 192 l 165 192 l 125 0 l 0 0 l 174 714 l 320 714 l 496 0 z m 312 296 l 267 508 q 262 532 259 550 q 255 568 253 584 q 250 600 247 618 l 247 618 q 246 603 243 584 q 239 565 235 546 q 231 526 227 510 l 227 510 l 184 296 l 312 296 z m 104 937 l 232 937 q 242 916 258 888 q 273 859 289 833 q 304 806 317 789 l 317 789 l 317 777 l 240 777 q 226 789 207 809 q 188 828 168 851 q 147 873 131 893 q 114 913 104 928 l 104 928 l 104 937 z"},"Ā":{"ha":496,"x_min":0,"x_max":496,"o":"m 496 0 l 373 0 l 332 192 l 165 192 l 125 0 l 0 0 l 174 714 l 320 714 l 496 0 z m 312 296 l 267 508 q 262 532 259 550 q 255 568 253 584 q 250 600 247 618 l 247 618 q 246 603 243 584 q 239 565 235 546 q 231 526 227 510 l 227 510 l 184 296 l 312 296 z m 116 873 l 379 873 l 379 788 l 116 788 l 116 873 z"},"Ą":{"ha":496,"x_min":0,"x_max":496,"o":"m 496 0 l 373 0 l 332 192 l 165 192 l 125 0 l 0 0 l 174 714 l 320 714 l 496 0 z m 312 296 l 267 508 q 262 532 259 550 q 255 568 253 584 q 250 600 247 618 l 247 618 q 246 603 243 584 q 239 565 235 546 q 231 526 227 510 l 227 510 l 184 296 l 312 296 z m 387 -112 l 387 -112 q 387 -133 399 -146 q 410 -159 430 -159 l 430 -159 q 443 -159 451 -156 q 459 -154 465 -151 l 465 -151 l 465 -225 q 455 -229 441 -232 q 426 -235 407 -235 l 407 -235 q 353 -235 327 -207 q 300 -179 300 -131 l 300 -131 q 300 -105 311 -78 q 322 -52 342 -29 q 361 -6 387 11 l 387 11 l 447 0 q 414 -34 401 -60 q 387 -86 387 -112 z"},"Å":{"ha":496,"x_min":0,"x_max":496,"o":"m 496 0 l 373 0 l 332 192 l 165 192 l 125 0 l 0 0 l 174 714 l 320 714 l 496 0 z m 312 296 l 267 508 q 262 532 259 550 q 255 568 253 584 q 250 600 247 618 l 247 618 q 246 603 243 584 q 239 565 235 546 q 231 526 227 510 l 227 510 l 184 296 l 312 296 z m 249 655 l 249 655 q 198 655 168 686 q 137 716 137 764 l 137 764 q 137 812 167 843 q 197 873 249 873 l 249 873 q 299 873 330 843 q 361 812 361 765 l 361 765 q 361 717 331 686 q 300 655 249 655 z m 250 717 l 250 717 q 270 717 284 730 q 298 743 298 764 l 298 764 q 298 785 286 799 q 273 813 250 813 l 250 813 q 228 813 215 799 q 201 785 201 764 l 201 764 q 201 742 213 730 q 225 717 250 717 z"},"Ã":{"ha":496,"x_min":0,"x_max":496,"o":"m 496 0 l 373 0 l 332 192 l 165 192 l 125 0 l 0 0 l 174 714 l 320 714 l 496 0 z m 312 296 l 267 508 q 262 532 259 550 q 255 568 253 584 q 250 600 247 618 l 247 618 q 246 603 243 584 q 239 565 235 546 q 231 526 227 510 l 227 510 l 184 296 l 312 296 z m 151 776 l 88 776 q 89 799 95 823 q 101 847 112 868 q 123 889 141 902 q 158 914 183 914 l 183 914 q 202 914 219 907 q 236 899 251 888 q 266 877 281 869 q 295 861 311 861 l 311 861 q 325 861 334 877 q 343 893 347 915 l 347 915 l 410 915 q 408 848 380 813 q 352 777 314 777 l 314 777 q 297 777 280 785 q 262 793 246 804 q 229 814 215 823 q 201 831 189 831 l 189 831 q 178 831 166 816 q 154 800 151 776 l 151 776 z"},"Æ":{"ha":683,"x_min":-1,"x_max":635,"o":"m 635 102 l 635 0 l 316 0 l 316 192 l 173 192 l 117 0 l -1 0 l 217 714 l 635 714 l 635 613 l 430 613 l 430 422 l 622 422 l 622 321 l 430 321 l 430 102 l 635 102 z m 292 613 l 204 295 l 316 295 l 316 613 l 292 613 z"},"B":{"ha":512,"x_min":71,"x_max":470,"o":"m 71 714 l 242 714 q 344 714 401 673 q 457 632 457 538 l 457 538 q 457 497 448 464 q 438 430 418 408 q 397 386 365 378 l 365 378 l 365 374 q 404 364 427 342 q 450 320 460 287 q 470 253 470 207 l 470 207 q 470 144 447 98 q 423 51 379 26 q 334 0 270 0 l 270 0 l 71 0 l 71 714 z m 186 420 l 247 420 q 295 420 317 445 q 339 470 339 523 l 339 523 q 339 569 316 592 q 292 614 245 614 l 245 614 l 186 614 l 186 420 z m 253 323 l 186 323 l 186 102 l 260 102 q 306 102 329 130 q 351 158 351 216 l 351 216 q 351 252 340 276 q 329 299 307 311 q 284 323 253 323 l 253 323 z"},"C":{"ha":466,"x_min":48,"x_max":439,"o":"m 299 623 l 299 623 q 265 623 240 602 q 214 581 199 545 q 183 508 176 460 q 168 411 168 356 l 168 356 q 168 272 183 213 q 198 154 229 123 q 259 92 302 92 l 302 92 q 332 92 361 101 q 389 110 421 126 l 421 126 l 421 23 q 391 7 359 -1 q 326 -10 288 -10 l 288 -10 q 212 -10 159 33 q 105 76 77 158 q 48 240 48 357 l 48 357 q 48 435 64 502 q 79 569 110 619 q 141 669 187 697 q 232 725 291 725 l 291 725 q 331 725 368 714 q 404 702 439 681 l 439 681 l 404 584 q 378 601 352 612 q 325 623 299 623 z"},"Ć":{"ha":466,"x_min":48,"x_max":439,"o":"m 299 623 l 299 623 q 265 623 240 602 q 214 581 199 545 q 183 508 176 460 q 168 411 168 356 l 168 356 q 168 272 183 213 q 198 154 229 123 q 259 92 302 92 l 302 92 q 332 92 361 101 q 389 110 421 126 l 421 126 l 421 23 q 391 7 359 -1 q 326 -10 288 -10 l 288 -10 q 212 -10 159 33 q 105 76 77 158 q 48 240 48 357 l 48 357 q 48 435 64 502 q 79 569 110 619 q 141 669 187 697 q 232 725 291 725 l 291 725 q 331 725 368 714 q 404 702 439 681 l 439 681 l 404 584 q 378 601 352 612 q 325 623 299 623 z m 433 937 l 433 928 q 423 913 407 894 q 391 875 372 853 q 353 831 333 812 q 313 792 297 777 l 297 777 l 220 777 l 220 789 q 238 816 254 841 q 269 866 282 891 q 294 915 304 937 l 304 937 l 433 937 z"},"Č":{"ha":466,"x_min":48,"x_max":439,"o":"m 299 623 l 299 623 q 265 623 240 602 q 214 581 199 545 q 183 508 176 460 q 168 411 168 356 l 168 356 q 168 272 183 213 q 198 154 229 123 q 259 92 302 92 l 302 92 q 332 92 361 101 q 389 110 421 126 l 421 126 l 421 23 q 391 7 359 -1 q 326 -10 288 -10 l 288 -10 q 212 -10 159 33 q 105 76 77 158 q 48 240 48 357 l 48 357 q 48 435 64 502 q 79 569 110 619 q 141 669 187 697 q 232 725 291 725 l 291 725 q 331 725 368 714 q 404 702 439 681 l 439 681 l 404 584 q 378 601 352 612 q 325 623 299 623 z m 345 777 l 228 777 q 219 797 203 824 q 186 851 168 879 q 150 906 134 926 l 134 926 l 134 937 l 199 937 q 217 922 241 898 q 265 874 286 847 l 286 847 q 310 877 331 897 q 352 916 374 937 l 374 937 l 439 937 l 439 926 q 424 906 406 879 q 388 852 372 826 q 356 799 345 777 l 345 777 z"},"Ç":{"ha":466,"x_min":48,"x_max":439,"o":"m 299 623 l 299 623 q 265 623 240 602 q 214 581 199 545 q 183 508 176 460 q 168 411 168 356 l 168 356 q 168 272 183 213 q 198 154 229 123 q 259 92 302 92 l 302 92 q 332 92 361 101 q 389 110 421 126 l 421 126 l 421 23 q 391 7 359 -1 q 326 -10 288 -10 l 288 -10 q 212 -10 159 33 q 105 76 77 158 q 48 240 48 357 l 48 357 q 48 435 64 502 q 79 569 110 619 q 141 669 187 697 q 232 725 291 725 l 291 725 q 331 725 368 714 q 404 702 439 681 l 439 681 l 404 584 q 378 601 352 612 q 325 623 299 623 z m 367 -128 l 367 -128 q 367 -182 338 -211 q 309 -240 238 -240 l 238 -240 q 221 -240 207 -238 q 193 -237 180 -234 l 180 -234 l 180 -165 q 192 -168 207 -170 q 222 -172 233 -172 l 233 -172 q 253 -172 264 -162 q 275 -152 275 -134 l 275 -134 q 275 -113 258 -98 q 240 -84 201 -81 l 201 -81 l 237 0 l 305 0 l 287 -38 q 314 -44 332 -57 q 349 -71 358 -89 q 367 -107 367 -128 z"},"Ċ":{"ha":466,"x_min":48,"x_max":439,"o":"m 299 623 l 299 623 q 265 623 240 602 q 214 581 199 545 q 183 508 176 460 q 168 411 168 356 l 168 356 q 168 272 183 213 q 198 154 229 123 q 259 92 302 92 l 302 92 q 332 92 361 101 q 389 110 421 126 l 421 126 l 421 23 q 391 7 359 -1 q 326 -10 288 -10 l 288 -10 q 212 -10 159 33 q 105 76 77 158 q 48 240 48 357 l 48 357 q 48 435 64 502 q 79 569 110 619 q 141 669 187 697 q 232 725 291 725 l 291 725 q 331 725 368 714 q 404 702 439 681 l 439 681 l 404 584 q 378 601 352 612 q 325 623 299 623 z m 287 924 l 287 924 q 318 924 333 907 q 347 889 347 856 l 347 856 q 347 823 333 806 q 318 789 287 789 l 287 789 q 257 789 241 806 q 225 823 225 856 l 225 856 q 225 890 241 907 q 256 924 287 924 z"},"D":{"ha":548,"x_min":71,"x_max":501,"o":"m 501 365 l 501 365 q 501 248 470 167 q 438 85 375 43 q 312 0 220 0 l 220 0 l 71 0 l 71 714 l 231 714 q 316 714 376 675 q 436 635 469 558 q 501 480 501 365 z m 380 361 l 380 361 q 380 447 364 503 q 348 558 316 585 q 283 612 235 612 l 235 612 l 186 612 l 186 102 l 227 102 q 307 102 344 167 q 380 232 380 361 z"},"Ð":{"ha":548,"x_min":14,"x_max":500,"o":"m 69 714 l 230 714 q 315 714 375 675 q 435 635 468 558 q 500 480 500 365 l 500 365 q 500 248 469 167 q 437 85 375 43 q 312 0 219 0 l 219 0 l 69 0 l 69 323 l 14 323 l 14 412 l 69 412 l 69 714 z m 234 612 l 234 612 l 185 612 l 185 412 l 261 412 l 261 323 l 185 323 l 185 102 l 227 102 q 305 102 343 167 q 380 231 380 361 l 380 361 q 380 447 364 503 q 347 558 315 585 q 282 612 234 612 z"},"Ď":{"ha":548,"x_min":71,"x_max":501,"o":"m 501 365 l 501 365 q 501 248 470 167 q 438 85 375 43 q 312 0 220 0 l 220 0 l 71 0 l 71 714 l 231 714 q 316 714 376 675 q 436 635 469 558 q 501 480 501 365 z m 380 361 l 380 361 q 380 447 364 503 q 348 558 316 585 q 283 612 235 612 l 235 612 l 186 612 l 186 102 l 227 102 q 307 102 344 167 q 380 232 380 361 z m 329 777 l 212 777 q 203 797 187 824 q 170 851 152 879 q 134 906 118 926 l 118 926 l 118 937 l 183 937 q 201 922 225 898 q 249 874 270 847 l 270 847 q 294 877 315 897 q 336 916 358 937 l 358 937 l 423 937 l 423 926 q 408 906 390 879 q 372 852 356 826 q 340 799 329 777 l 329 777 z"},"Đ":{"ha":548,"x_min":14,"x_max":500,"o":"m 69 714 l 230 714 q 315 714 375 675 q 435 635 468 558 q 500 480 500 365 l 500 365 q 500 248 469 167 q 437 85 375 43 q 312 0 219 0 l 219 0 l 69 0 l 69 323 l 14 323 l 14 412 l 69 412 l 69 714 z m 234 612 l 234 612 l 185 612 l 185 412 l 261 412 l 261 323 l 185 323 l 185 102 l 227 102 q 305 102 343 167 q 380 231 380 361 l 380 361 q 380 447 364 503 q 347 558 315 585 q 282 612 234 612 z"},"E":{"ha":423,"x_min":71,"x_max":376,"o":"m 376 102 l 376 0 l 71 0 l 71 714 l 376 714 l 376 614 l 186 614 l 186 422 l 363 422 l 363 321 l 186 321 l 186 102 l 376 102 z"},"É":{"ha":423,"x_min":71,"x_max":376,"o":"m 376 102 l 376 0 l 71 0 l 71 714 l 376 714 l 376 614 l 186 614 l 186 422 l 363 422 l 363 321 l 186 321 l 186 102 l 376 102 z m 371 937 l 371 928 q 361 913 345 894 q 329 875 310 853 q 291 831 271 812 q 251 792 235 777 l 235 777 l 158 777 l 158 789 q 176 816 192 841 q 207 866 220 891 q 232 915 242 937 l 242 937 l 371 937 z"},"Ě":{"ha":423,"x_min":71,"x_max":377,"o":"m 376 102 l 376 0 l 71 0 l 71 714 l 376 714 l 376 614 l 186 614 l 186 422 l 363 422 l 363 321 l 186 321 l 186 102 l 376 102 z m 283 777 l 166 777 q 157 797 141 824 q 124 851 106 879 q 88 906 72 926 l 72 926 l 72 937 l 137 937 q 155 922 179 898 q 203 874 224 847 l 224 847 q 248 877 269 897 q 290 916 312 937 l 312 937 l 377 937 l 377 926 q 362 906 344 879 q 326 852 310 826 q 294 799 283 777 l 283 777 z"},"Ê":{"ha":423,"x_min":71,"x_max":377,"o":"m 376 102 l 376 0 l 71 0 l 71 714 l 376 714 l 376 614 l 186 614 l 186 422 l 363 422 l 363 321 l 186 321 l 186 102 l 376 102 z m 166 937 l 283 937 q 294 915 309 890 q 323 865 341 839 q 359 813 377 789 l 377 789 l 377 777 l 312 777 q 293 794 270 817 q 246 839 224 867 l 224 867 q 202 839 178 816 q 154 792 137 777 l 137 777 l 72 777 l 72 789 q 88 811 107 838 q 125 865 141 892 q 157 918 166 937 l 166 937 z"},"Ë":{"ha":423,"x_min":71,"x_max":376,"o":"m 376 102 l 376 0 l 71 0 l 71 714 l 376 714 l 376 614 l 186 614 l 186 422 l 363 422 l 363 321 l 186 321 l 186 102 l 376 102 z m 88 847 l 88 847 q 88 878 103 893 q 118 907 141 907 l 141 907 q 165 907 180 892 q 195 876 195 847 l 195 847 q 195 818 180 802 q 165 786 141 786 l 141 786 q 118 786 103 802 q 88 818 88 847 z m 251 847 l 251 847 q 251 878 267 893 q 282 907 305 907 l 305 907 q 329 907 344 892 q 359 876 359 847 l 359 847 q 359 818 344 802 q 329 786 304 786 l 304 786 q 280 786 266 802 q 251 818 251 847 z"},"Ė":{"ha":423,"x_min":71,"x_max":376,"o":"m 376 102 l 376 0 l 71 0 l 71 714 l 376 714 l 376 614 l 186 614 l 186 422 l 363 422 l 363 321 l 186 321 l 186 102 l 376 102 z m 225 924 l 225 924 q 256 924 271 907 q 285 889 285 856 l 285 856 q 285 823 271 806 q 256 789 225 789 l 225 789 q 195 789 179 806 q 163 823 163 856 l 163 856 q 163 890 179 907 q 194 924 225 924 z"},"È":{"ha":423,"x_min":71,"x_max":376,"o":"m 376 102 l 376 0 l 71 0 l 71 714 l 376 714 l 376 614 l 186 614 l 186 422 l 363 422 l 363 321 l 186 321 l 186 102 l 376 102 z m 81 937 l 209 937 q 219 916 235 888 q 250 859 266 833 q 281 806 294 789 l 294 789 l 294 777 l 217 777 q 203 789 184 809 q 165 828 145 851 q 124 873 108 893 q 91 913 81 928 l 81 928 l 81 937 z"},"Ē":{"ha":423,"x_min":71,"x_max":376,"o":"m 376 102 l 376 0 l 71 0 l 71 714 l 376 714 l 376 614 l 186 614 l 186 422 l 363 422 l 363 321 l 186 321 l 186 102 l 376 102 z m 93 873 l 356 873 l 356 788 l 93 788 l 93 873 z"},"Ę":{"ha":423,"x_min":71,"x_max":376,"o":"m 376 102 l 376 0 l 71 0 l 71 714 l 376 714 l 376 614 l 186 614 l 186 422 l 363 422 l 363 321 l 186 321 l 186 102 l 376 102 z m 296 -112 l 296 -112 q 296 -133 308 -146 q 319 -159 339 -159 l 339 -159 q 352 -159 360 -156 q 368 -154 374 -151 l 374 -151 l 374 -225 q 364 -229 350 -232 q 335 -235 316 -235 l 316 -235 q 262 -235 236 -207 q 209 -179 209 -131 l 209 -131 q 209 -105 220 -78 q 231 -52 251 -29 q 270 -6 296 11 l 296 11 l 356 0 q 323 -34 310 -60 q 296 -86 296 -112 z"},"F":{"ha":412,"x_min":71,"x_max":374,"o":"m 186 293 l 186 0 l 71 0 l 71 714 l 374 714 l 374 614 l 186 614 l 186 394 l 362 394 l 362 293 l 186 293 z"},"G":{"ha":556,"x_min":48,"x_max":498,"o":"m 291 289 l 291 392 l 498 392 l 498 28 q 450 9 403 0 q 356 -10 302 -10 l 302 -10 q 215 -10 158 37 q 101 83 75 166 q 48 249 48 359 l 48 359 q 48 469 80 551 q 112 633 176 679 q 239 724 332 724 l 332 724 q 377 724 419 712 q 461 700 496 678 l 496 678 l 460 582 q 432 602 401 613 q 369 623 336 623 l 336 623 q 285 623 248 593 q 210 563 189 504 q 168 444 168 356 l 168 356 q 168 280 182 221 q 195 161 226 127 q 256 92 306 92 l 306 92 q 330 92 347 95 q 364 98 382 104 l 382 104 l 382 289 l 291 289 z"},"Ğ":{"ha":556,"x_min":48,"x_max":498,"o":"m 291 289 l 291 392 l 498 392 l 498 28 q 450 9 403 0 q 356 -10 302 -10 l 302 -10 q 215 -10 158 37 q 101 83 75 166 q 48 249 48 359 l 48 359 q 48 469 80 551 q 112 633 176 679 q 239 724 332 724 l 332 724 q 377 724 419 712 q 461 700 496 678 l 496 678 l 460 582 q 432 602 401 613 q 369 623 336 623 l 336 623 q 285 623 248 593 q 210 563 189 504 q 168 444 168 356 l 168 356 q 168 280 182 221 q 195 161 226 127 q 256 92 306 92 l 306 92 q 330 92 347 95 q 364 98 382 104 l 382 104 l 382 289 l 291 289 z m 390 931 l 458 931 q 458 885 438 850 q 418 815 386 797 q 353 778 313 778 l 313 778 q 253 778 213 817 q 173 856 172 931 l 172 931 l 240 931 q 241 907 251 892 q 260 876 278 869 q 295 862 315 862 l 315 862 q 335 862 352 869 q 369 876 380 892 q 390 907 390 931 l 390 931 z"},"Ģ":{"ha":556,"x_min":48,"x_max":498,"o":"m 291 289 l 291 392 l 498 392 l 498 28 q 450 9 403 0 q 356 -10 302 -10 l 302 -10 q 215 -10 158 37 q 101 83 75 166 q 48 249 48 359 l 48 359 q 48 469 80 551 q 112 633 176 679 q 239 724 332 724 l 332 724 q 377 724 419 712 q 461 700 496 678 l 496 678 l 460 582 q 432 602 401 613 q 369 623 336 623 l 336 623 q 285 623 248 593 q 210 563 189 504 q 168 444 168 356 l 168 356 q 168 280 182 221 q 195 161 226 127 q 256 92 306 92 l 306 92 q 330 92 347 95 q 364 98 382 104 l 382 104 l 382 289 l 291 289 z m 385 -61 l 385 -71 q 377 -95 366 -121 q 355 -148 343 -173 q 331 -199 318 -221 l 318 -221 l 249 -221 l 249 -209 q 254 -191 259 -164 q 264 -137 269 -109 q 274 -82 276 -61 l 276 -61 l 385 -61 z"},"Ġ":{"ha":556,"x_min":48,"x_max":498,"o":"m 291 289 l 291 392 l 498 392 l 498 28 q 450 9 403 0 q 356 -10 302 -10 l 302 -10 q 215 -10 158 37 q 101 83 75 166 q 48 249 48 359 l 48 359 q 48 469 80 551 q 112 633 176 679 q 239 724 332 724 l 332 724 q 377 724 419 712 q 461 700 496 678 l 496 678 l 460 582 q 432 602 401 613 q 369 623 336 623 l 336 623 q 285 623 248 593 q 210 563 189 504 q 168 444 168 356 l 168 356 q 168 280 182 221 q 195 161 226 127 q 256 92 306 92 l 306 92 q 330 92 347 95 q 364 98 382 104 l 382 104 l 382 289 l 291 289 z m 315 924 l 315 924 q 346 924 361 907 q 375 889 375 856 l 375 856 q 375 823 361 806 q 346 789 315 789 l 315 789 q 285 789 269 806 q 253 823 253 856 l 253 856 q 253 890 269 907 q 284 924 315 924 z"},"H":{"ha":567,"x_min":71,"x_max":497,"o":"m 497 714 l 497 0 l 382 0 l 382 321 l 186 321 l 186 0 l 71 0 l 71 714 l 186 714 l 186 423 l 382 423 l 382 714 l 497 714 z"},"Ħ":{"ha":561,"x_min":-3,"x_max":564,"o":"m 183 0 l 67 0 l 67 527 l -3 527 l -3 610 l 67 610 l 67 714 l 183 714 l 183 610 l 378 610 l 378 714 l 494 714 l 494 610 l 564 610 l 564 527 l 494 527 l 494 0 l 378 0 l 378 321 l 183 321 l 183 0 z m 183 527 l 183 424 l 379 424 l 379 527 l 183 527 z"},"I":{"ha":303,"x_min":28,"x_max":274,"o":"m 274 63 l 274 0 l 28 0 l 28 63 l 94 95 l 94 619 l 28 651 l 28 714 l 274 714 l 274 651 l 209 619 l 209 95 l 274 63 z"}}}
